<?xml version="1.0" encoding="UTF-8"?>
<svg width="1440px" height="900px" viewBox="0 0 1440 900" version="1.1" xmlns="http://www.w3.org/2000/svg" xmlns:xlink="http://www.w3.org/1999/xlink">
    <!-- Generator: Sketch 53.2 (72643) - https://sketchapp.com -->
    <title>b3</title>
    <desc>Created with Sketch.</desc>
    <defs>
        <polygon id="path-1" points="0 0.248856241 293.360557 0.248856241 293.360557 334 0 334"></polygon>
        <linearGradient x1="50%" y1="0%" x2="50%" y2="100%" id="linearGradient-3">
            <stop stop-color="#FFD5E2" offset="0%"></stop>
            <stop stop-color="#FF94C2" offset="100%"></stop>
        </linearGradient>
        <linearGradient x1="50%" y1="100%" x2="50%" y2="50%" id="linearGradient-4">
            <stop stop-color="#FFD5E2" offset="0%"></stop>
            <stop stop-color="#FF94C2" offset="100%"></stop>
        </linearGradient>
        <linearGradient x1="50%" y1="100%" x2="50%" y2="50%" id="linearGradient-5">
            <stop stop-color="#FFD5E2" offset="0%"></stop>
            <stop stop-color="#FF94C2" offset="100%"></stop>
        </linearGradient>
        <linearGradient x1="31.4374176%" y1="10.6457546%" x2="31.4374176%" y2="89.6503452%" id="linearGradient-6">
            <stop stop-color="#4637ED" offset="0%"></stop>
            <stop stop-color="#0083EA" offset="100%"></stop>
        </linearGradient>
        <linearGradient x1="4.89834628%" y1="50.0001335%" x2="89.5234957%" y2="50.0001335%" id="linearGradient-7">
            <stop stop-color="#4637ED" offset="0%"></stop>
            <stop stop-color="#0083EA" offset="100%"></stop>
        </linearGradient>
        <linearGradient x1="50%" y1="0%" x2="50%" y2="100%" id="linearGradient-8">
            <stop stop-color="#FFD5E2" offset="0%"></stop>
            <stop stop-color="#FF94C2" offset="100%"></stop>
        </linearGradient>
        <linearGradient x1="100.00045%" y1="50.0001335%" x2="-0.000153098935%" y2="50.0001335%" id="linearGradient-9">
            <stop stop-color="#4637ED" offset="0%"></stop>
            <stop stop-color="#0083EA" offset="100%"></stop>
        </linearGradient>
        <linearGradient x1="100.00045%" y1="50.0001335%" x2="-0.000153098935%" y2="50.0001335%" id="linearGradient-10">
            <stop stop-color="#4637ED" offset="0%"></stop>
            <stop stop-color="#0083EA" offset="100%"></stop>
        </linearGradient>
    </defs>
    <g id="b3" stroke="none" stroke-width="1" fill="none" fill-rule="evenodd">
        <g id="back" transform="translate(-45.500000, -0.500000)">
            <g id="leafs" transform="translate(1169.500000, 540.500000)">
                <g id="Group-3" transform="translate(0.000000, 39.000000)">
                    <mask id="mask-2" fill="white">
                        <use xlink:href="#path-1"></use>
                    </mask>
                    <g id="Clip-2"></g>
                    <path d="M12.2791075,268.834618 C-2.65565373,262.301023 -3.38626567,239.615173 6.93445075,227.016546 C17.2573612,214.417918 33.9780627,209.388539 49.6566,204.924062 C65.3373313,200.457395 82.0470627,195.222199 92.1044955,182.411186 C108.658451,161.325892 100.439615,128.859356 114.78857,106.219487 C129.01466,83.7722974 159.230839,79.2136699 185.627212,75.8111209 C212.023585,72.4085719 242.489884,64.8962516 253.078272,40.5266438 C256.94854,31.6217745 257.505824,21.4951405 261.839033,12.8048464 C266.172242,4.11455229 276.922988,-2.93796405 285.446794,1.74108824 C293.79069,6.31942157 293.922331,18.0312843 292.948182,27.4835392 C290.087167,55.2491275 287.226152,83.0147157 284.365137,110.778114 C281.172824,141.751382 276.06951,176.302363 251.320854,195.261611 C229.722824,211.805794 198.194615,211.917461 178.213585,230.373114 C151.966406,254.613539 155.713809,300.98148 127.755287,323.23599 C106.699182,339.996938 74.6180776,335.703245 52.3859731,320.529716 C30.1516746,305.360565 15.4933612,281.691611 1.49325672,258.732069" id="Fill-1" fill="#FFAF0B" mask="url(#mask-2)"></path>
                </g>
                <path d="M281.992458,42 C282.561483,84.0650498 250.83888,137.75757 218.663694,165.01089 C198.503945,182.085523 173.40752,193.857434 157.369359,214.82321 C143.477676,232.985525 137.950003,256.065386 126.756245,275.98725 C108.591381,308.309123 66.8262531,329.878923 30,335" id="Stroke-4" stroke="#FFF9F7" stroke-width="0.674"></path>
                <path d="M152,222.133947 C152,222.133947 233.044861,245.693267 264,220" id="Stroke-6" stroke="#FFF9F7" stroke-width="0.674"></path>
                <path d="M254,122 C254,122 238.700028,109.250189 253.339493,79" id="Stroke-8" stroke="#FFF9F7" stroke-width="0.674"></path>
                <path d="M99,306 C99,306 131.015875,327.90429 155,306.875742" id="Stroke-10" stroke="#FFF9F7" stroke-width="0.674"></path>
                <path d="M68,325 C68,325 44.03449,285.042359 63.8394449,240" id="Stroke-12" stroke="#FFF9F7" stroke-width="0.674"></path>
                <path d="M277,196.628566 C277,196.628566 244.598269,214.251821 175,195" id="Stroke-14" stroke="#FFF9F7" stroke-width="0.674"></path>
                <path d="M157,215 C157,215 132.312608,160.027654 150.978895,122" id="Stroke-16" stroke="#FFF9F7" stroke-width="0.674"></path>
                <path d="M221,107 C221,107 201.096366,147.425287 212.556102,168" id="Stroke-18" stroke="#FFF9F7" stroke-width="0.674"></path>
                <path d="M291,82 C291,82 290.952233,91.5559354 270,96" id="Stroke-20" stroke="#FFF9F7" stroke-width="0.674"></path>
                <path d="M286,134 C286,134 272.511628,143.022054 246,136.827808" id="Stroke-22" stroke="#FFF9F7" stroke-width="0.674"></path>
                <path d="M92.3985012,221 C92.3985012,221 65.0731217,281.16916 109,298" id="Stroke-24" stroke="#FFF9F7" stroke-width="0.674"></path>
                <path d="M178,269.104624 C178,269.104624 153.542268,277.782974 138,258" id="Stroke-26" stroke="#FFF9F7" stroke-width="0.674"></path>
                <path d="M132,357 C132,357 84.1185447,356.749979 58,331" id="Stroke-28" stroke="#FFF9F7" stroke-width="0.674"></path>
                <g id="Group-56" transform="translate(4.000000, 0.000000)">
                    <path d="M13.68972,216.864625 C2.81292,216.050875 -1.91048,202.610875 2.40152,192.922437 C6.71352,183.234 16.58052,176.748063 25.87992,170.81775 C35.18152,164.887438 45.00012,158.285562 49.10312,148.52275 C55.85492,132.453375 44.45892,114.710562 49.49252,98.1686875 C54.48652,81.7668125 73.16452,72.76525 89.59192,65.2468125 C106.01712,57.7305625 124.30352,46.9068125 126.58272,30.109 C127.41652,23.970875 125.88092,17.789 127.05352,11.6836875 C128.22832,5.5761875 133.85812,-0.879125 140.24252,0.153375 C146.49492,1.1661875 148.77192,8.1530625 149.91372,14.0199375 L159.96772,65.7018125 C163.70552,84.9211875 166.87792,106.678063 154.43252,123.174 C143.56892,137.56775 123.20792,144.176187 113.74792,159.3815 C101.32452,179.353375 112.43012,206.3515 98.52612,225.48775 C88.05412,239.899 66.51172,243.98525 49.29892,239.514 C32.08392,235.038375 18.17552,223.901812 4.82372,213.051812" id="Fill-30" fill="#008858"></path>
                    <path d="M137.97256,1.773875 C146.22256,26.868875 135.80776,65.627 120.14376,88.63075 C110.32956,103.044188 96.33316,115.30075 89.90916,131.192938 C84.34316,144.956688 85.10216,159.936688 81.60856,174.199188 C75.94136,197.334188 53.02176,218.922625 30.20776,229.623875" id="Stroke-32" stroke="#FFF9F7" stroke-width="0.439"></path>
                    <path d="M95.62894,61.678125 C95.62894,61.678125 91.89774,88.3809375 107.16354,104.911875" id="Stroke-34" stroke="#FFF9F7" stroke-width="0.439"></path>
                    <path d="M81.1635,169.632563 C81.1635,169.632563 48.4363,114.870688 54.4929,88.57475" id="Stroke-36" stroke="#FFF9F7" stroke-width="0.439"></path>
                    <path d="M135.1625,55.9934688 C135.1625,55.9934688 122.5323,51.5594063 126.5847,30.1087813" id="Stroke-38" stroke="#FFF9F7" stroke-width="0.439"></path>
                    <path d="M69.27844,197.57 C69.27844,197.57 94.30344,204.265938 105.89744,186.402813" id="Stroke-40" stroke="#FFF9F7" stroke-width="0.439"></path>
                    <path d="M52.64094,215.4375 C52.64094,215.4375 29.94134,196.5375 34.16314,165.65875" id="Stroke-42" stroke="#FFF9F7" stroke-width="0.439"></path>
                    <path d="M164.02232,95.691125 C164.02232,95.691125 146.30572,112.659563 97.86172,115.892688" id="Stroke-44" stroke="#FFF9F7" stroke-width="0.439"></path>
                    <path d="M151.94388,23.629625 C151.94388,23.629625 153.71488,29.4024375 140.86688,36.4768125" id="Stroke-46" stroke="#FFF9F7" stroke-width="0.439"></path>
                    <path d="M157.91864,56.1185938 C157.91864,56.1185938 150.94244,64.3545313 132.71544,66.0892188" id="Stroke-48" stroke="#FFF9F7" stroke-width="0.439"></path>
                    <path d="M49.10246,148.522312 C49.10246,148.522312 42.91606,190.240125 74.16706,191.32075" id="Stroke-50" stroke="#FFF9F7" stroke-width="0.439"></path>
                    <path d="M113.74902,159.380625 C113.74902,159.380625 99.61182,169.801875 85.75622,160.844063" id="Stroke-52" stroke="#FFF9F7" stroke-width="0.439"></path>
                    <path d="M100.69928,221.151906 C100.69928,221.151906 69.50108,231.004406 47.73648,221.195656" id="Stroke-54" stroke="#FFF9F7" stroke-width="0.439"></path>
                </g>
            </g>
            <g id="ground" transform="translate(0.000000, 13.000000)">
                <g id="gr1" transform="translate(686.000000, 592.000000) rotate(180.000000) translate(-686.000000, -592.000000) translate(1.500000, 157.500000)" fill="url(#linearGradient-3)">
                    <path d="M498.766198,140.45789 C462.764924,198.885811 349.309717,170.889633 289.563725,323.877069 C263.873932,434.5 302.316634,505.788034 236.901032,542.463724 C202.815634,561.573755 166.379858,566.441247 132.478467,586.492968 C98.5770759,606.540504 62.3860545,662.265529 42.7711577,728.462873 L-4.54747351e-13,869 L1281.87743,869 C1281.87743,869 1408.25005,562.257819 1356.59565,386.127995 C1343.4665,341.125986 1261.3564,133.115475 1110.14097,170.097253 C1056.34005,187.730237 1010.67915,214.31397 936.877591,182.354925 C863.076035,150.39588 883.696124,88.0465901 813.044918,36.7977219 C773.437361,4.86342558 696.728824,1.70530257e-13 675.806037,1.70530257e-13 C629.007004,-0.00418528936 581.123559,31.791458 542.303056,78.7378487 C526.836689,97.4426835 512.44459,118.258677 498.766198,140.45789 Z" id="ground" transform="translate(684.500000, 434.500000) scale(1, -1) translate(-684.500000, -434.500000) "></path>
                </g>
                <g id="gr2" fill-opacity="0.53">
                    <path d="M255.892811,330.799251 C225.440308,380.217573 129.471623,356.538412 78.9341074,485.93515 C57.2038083,579.5 89.7214482,639.795402 34.3881632,670.815693 C5.5562489,686.978953 -25.263787,691.095876 -53.940055,708.055618 C-82.616323,725.011819 -113.229327,772.144032 -129.821037,828.13373 L-166,947 L918.305381,947 C918.305381,947 1025.20055,687.557534 981.507494,538.586969 C970.401908,500.524281 900.947197,324.589038 773.03816,355.868217 C727.529419,370.782191 688.906102,393.266706 626.479365,366.235753 C564.052628,339.204801 581.494603,286.469786 521.732663,243.123505 C488.229703,216.113484 423.34403,212 405.646012,212 C366.059979,211.99646 325.55667,238.889208 292.719458,278.596454 C279.636878,294.416999 267.462991,312.023162 255.892811,330.799251 Z" id="ground-copy" fill="url(#linearGradient-4)" transform="translate(413.000000, 579.500000) scale(1, -1) rotate(90.000000) translate(-413.000000, -579.500000) "></path>
                    <path d="M301.071303,532.617919 C279.375867,562.201676 211.004395,548.026396 174.999688,625.488389 C159.518257,681.5 182.68497,717.595207 143.263588,736.165177 C122.722716,745.841142 100.765437,748.305695 80.3354531,758.458465 C59.9054694,768.609116 38.0956866,796.824318 26.2751681,830.341961 L0.5,901.5 L772.997357,901.5 C772.997357,901.5 849.153243,746.187503 818.024769,657.007846 C810.112758,634.222018 760.630775,528.900241 669.503871,547.625191 C637.08184,556.553284 609.565228,570.013402 565.090221,553.831607 C520.615214,537.649813 533.041492,506.080552 490.46498,480.131758 C466.596291,463.962494 420.369452,461.5 407.76076,461.5 C379.558275,461.497881 350.702291,477.596941 327.307904,501.367265 C317.987413,510.838068 309.314307,521.377811 301.071303,532.617919 Z" id="ground-copy-2" fill="url(#linearGradient-5)" transform="translate(413.000000, 681.500000) scale(1, -1) rotate(180.000000) translate(-413.000000, -681.500000) "></path>
                </g>
            </g>
            <g id="stars" transform="translate(117.399495, 89.500000)">
                <rect id="Rectangle" stroke="#FF67B1" stroke-width="6" transform="translate(429.899495, 227.798990) rotate(45.000000) translate(-429.899495, -227.798990) " x="418.899495" y="216.79899" width="22" height="22"></rect>
                <rect id="Rectangle-Copy-2" stroke="#FF67B1" stroke-width="6" transform="translate(1116.000000, 401.899495) rotate(45.000000) translate(-1116.000000, -401.899495) " x="1112" y="397.899495" width="8" height="8"></rect>
                <rect id="Rectangle-Copy-3" stroke="#FF67B1" stroke-width="6" transform="translate(558.000000, 150.899495) rotate(45.000000) translate(-558.000000, -150.899495) " x="554" y="146.899495" width="8" height="8"></rect>
                <rect id="Rectangle-Copy" stroke="#FF67B1" stroke-width="6" transform="translate(1078.970563, 736.870058) rotate(45.000000) translate(-1078.970563, -736.870058) " x="1062.97056" y="720.870058" width="32" height="32"></rect>
                <circle id="Oval" stroke="#FFFFFF" stroke-width="5" cx="66.1005051" cy="302" r="19"></circle>
                <circle id="Oval-Copy-3" stroke="#FF50A2" stroke-width="5" cx="262.100505" cy="14" r="14"></circle>
                <circle id="Oval-Copy-2" stroke="#FFFFFF" stroke-width="5" cx="578.600505" cy="305.5" r="9.5"></circle>
                <circle id="Oval-Copy" stroke="#FFFFFF" stroke-width="5" cx="879.100505" cy="412" r="27"></circle>
                <rect id="Rectangle-Copy-4" stroke="#FF67B1" stroke-width="6" transform="translate(10.000000, 43.899495) rotate(45.000000) translate(-10.000000, -43.899495) " x="6" y="39.8994949" width="8" height="8"></rect>
                <circle id="Oval-Copy-4" stroke="#FF50A2" stroke-width="5" cx="1199.10051" cy="127" r="14"></circle>
            </g>
        </g>
        <g id="woman" transform="translate(634.000000, 64.000000)">
            <g id="Group" transform="translate(174.000000, 578.500000) scale(-1, 1) translate(-174.000000, -578.500000) translate(16.000000, 378.000000)">
                <path d="M210.666667,342.575691 C210.666667,342.575691 181.215853,408.823575 177.772752,396.558175 C174.334997,384.286885 175.471113,354.820477 177.318305,350.615197 C179.16817,346.406972 191.208332,327.824818 191.208332,327.824818 L210.666667,342.575691" id="Fill-2772" fill="#F1B0A0"></path>
                <path d="M211.484177,31.7147329 L237.905312,20.4890511 C237.905312,20.4890511 316.324207,174.44001 315.998991,217.157052 C315.673776,259.868265 208.297589,345.386861 208.297589,345.386861 L190.185185,328.813535 C190.185185,328.813535 241.081408,245.667136 258.803029,224.087133 C267.665151,213.292759 204.221905,160.413736 194.612312,109.530973 C185.002719,58.6482094 211.484177,31.7147329 211.484177,31.7147329" id="Fill-2773" fill="url(#linearGradient-6)"></path>
                <path d="M52.6666667,308.815944 C52.6666667,308.815944 -2.21295519,352.564317 0.0692573491,340.286548 C2.35945896,327.997259 16.1752333,302.917546 19.637166,300.126751 C23.1070877,297.338837 41.8467956,286.846715 41.8467956,286.846715 L52.6666667,308.815944" id="Fill-2774" fill="#F1B0A0"></path>
                <path d="M142.900771,85.5925707 L222.175703,35.1240876 C222.175703,35.1240876 225.324678,210.435968 206.292524,248.342108 C187.26037,286.248248 52.9448537,310.262774 52.9448537,310.262774 L43.8888889,286.692312 C43.8888889,286.692312 126.754291,232.458048 152.19876,221.844328 C177.643228,211.224766 142.900771,85.5925707 142.900771,85.5925707" id="Fill-2775" fill="#326DF6"></path>
                <path d="M186.753288,0 C186.753288,0 127.655981,22.5776956 138.954154,84.5123932 C150.249634,146.447091 169.079025,158.058394 169.079025,158.058394 L202.970851,98.0613346 L237,19.4896757 L202.970851,14.8358584 L186.753288,0" id="Fill-2776" fill="#326DF6"></path>
                <path d="M26.3333333,295.627737 C26.3333333,295.627737 19.089662,299.42029 17.1988507,301.696988 C15.3104605,303.973685 -2.01188858,339.995649 0.193654396,344.549045 C2.39677636,349.09661 19.7699667,333.649464 19.7699667,333.649464 C19.7699667,333.649464 5.23178275,336.963939 26.3333333,295.627737" id="Fill-2792" fill="#323232"></path>
                <path d="M182.970019,342.459854 C182.970019,342.459854 177.424517,349.28439 176.568552,352.414529 C175.715197,355.541699 174.183334,397.914404 178.181315,400.759445 C182.179295,403.607456 193.111111,380.226443 193.111111,380.226443 C193.111111,380.226443 180.044603,391.873888 182.970019,342.557856" id="Fill-2793" fill="#323232"></path>
            </g>
            <path d="M160.467909,112.08727 C178.573569,112.08727 187.263037,128.64449 195.909856,130.088519 C213.408728,133.013295 236.452029,138.245631 253.559048,133.537239 C284.445259,125.032798 293.241484,90.7519993 325.268163,91.0013534 C338.456651,91.1069621 360.663608,97.138577 373.51288,100.127892 C389.467734,103.838868 406.086399,103.439901 422.254725,106.088922 C438.417203,108.740876 455.114823,115.259285 464.250264,128.897486 C475.087633,145.082033 472.113644,167.914066 460.744056,183.726048 C449.371544,199.538031 431.156224,209.166032 412.499338,214.622486 C399.483382,218.427336 385.613538,220.627519 374.352148,228.199082 C362.959166,235.858653 357.793711,253.539141 347.175662,262.251866 C320.541349,284.10115 276.812897,272.487301 249.298377,251.758643 C242.385387,246.548609 235.975372,240.508373 228.208493,236.694723 C196.617531,221.181965 151.185968,241.719941 123.978497,213.493059 C96.34993,184.832007 76.7071488,104.766103 140.910059,120.858058 C141.878186,115.010866 148.39747,112.08727 160.467909,112.08727 Z" id="Fill-2733" fill="url(#linearGradient-7)"></path>
            <path d="M345.119286,178.378339 C347.802154,181.753936 346.010643,178.125098 349.051228,183 C361.688565,182.562583 370.171121,172.067442 370.171121,172.067442 C370.171121,172.067442 390.232527,172.588314 389.997959,169.074585 C389.769255,165.552224 370.769268,166.867354 370.769268,166.867354 C370.769268,166.867354 390.868792,160.668688 389.766323,157.577989 C388.669719,154.484411 365.465105,164.346448 365.465105,164.346448 C365.465105,164.346448 388.88083,150.078582 385.420956,147.793651 C381.964014,145.50872 359.433782,157.963607 359.433782,157.963607 C359.433782,157.963607 379.014324,142.179168 376.079296,140.141723 C373.150131,138.107157 345.993051,158.651388 345.993051,158.651388 C346.388884,148.547621 339,148.901583 339,148.901583 L339.30787,173.578258 C339.30787,173.578258 343.881941,176.824356 345.119286,178.378339" id="Fill-2735" fill="#F1B0A0"></path>
            <path d="M47.5229006,65.0043582 C43.2330393,65.7920866 46.5624402,64.3015522 40.9958693,66 C31.8568542,57.2852059 33.0691426,43.5922028 33.0691426,43.5922028 C33.0691426,43.5922028 17.7427713,30.6898564 20.2844775,28.16854 C22.8408249,25.6413668 36.1379308,39.2377341 36.1379308,39.2377341 C36.1379308,39.2377341 25.3210382,21.196119 28.2287735,19.5708802 C31.1335807,17.9514981 41.8099181,40.839546 41.8099181,40.839546 C41.8099181,40.839546 33.953469,14.4579667 38.0822775,15.008498 C42.2052295,15.5648861 50.6209711,39.972752 50.6209711,39.972752 C50.6209711,39.972752 46.6649283,14.9850712 50.2256596,15.3803995 C53.7863909,15.7727995 60.1962929,49.4167073 60.1962929,49.4167073 C66.7262524,41.4632863 72,46.6318386 72,46.6318386 L55.446699,64.8345134 C55.446699,64.8345134 49.4936014,64.6441701 47.5229006,65.0043582" id="Fill-2736" fill="#F1B0A0"></path>
            <path d="M151.966576,169.06416 C146.41246,168.145306 132.990502,177.161933 126.275124,191.85767 C122.518618,200.079932 119.929238,208.435576 124.245848,221.815278 C126.275124,228.107946 130.530152,228.893418 131.47441,231.712225 C132.679659,235.2839 128.703217,246.532453 128.703217,246.532453 L144.547403,253 C145.579636,245.272733 146.74383,237.495078 154.538361,234.139779 C157.453245,232.885987 160.570471,232.088659 163.321137,230.496967 C170.746175,226.193173 174.710887,216.785292 177.757733,209.081738 C180.033337,203.328526 165.881191,171.370188 151.966576,169.06416" id="Fill-2737" fill="#F1B0A0"></path>
            <path d="M110,262.941597 C110,251.370974 113.736364,243 125.347434,243 C136.958504,243 153,247.058654 153,258.632159 C153,270.205665 143.852848,289 132.241778,289 C120.6336,289 110,274.517985 110,262.941597" id="Fill-2741" fill="#F1B0A0"></path>
            <path d="M120,241.242788 C120,241.242788 83.1854528,201.834054 75.8207737,163.233391 C68.4531452,124.632727 55.9417441,62 55.9417441,62 L41.9467892,65.9820062 C41.9467892,65.9820062 35.3165135,151.582011 41.9467892,164.692001 C48.5711662,177.80199 80.9527487,265.079397 90.8155789,288 L120,241.242788" id="Fill-2742" fill="#F1B0A0"></path>
            <path d="M158,271.792108 C158,271.792108 160.806027,259.506673 206.992815,242.809359 C253.176678,226.112045 340.303951,172 340.303951,172 L349,181.93477 C349,181.93477 301.657444,236.576007 274.115079,246.162856 C246.572713,255.749705 188.073349,293.535747 182.054583,296.561788 C172.954747,301.134472 173.065934,306.894183 158,271.792108" id="Fill-2743" fill="#F1B0A0"></path>
            <path d="M94.7279936,264.009453 C88.2159414,274.428258 83,289.41536 83,310.695393 C83,310.695393 83.0233037,388.26607 91.7301657,402.3773 C91.7301657,402.3773 105.884278,406.028375 123.53104,402.3773 C142.034214,398.541323 159.943142,384.791091 159.943142,384.791091 L189,296.892333 L185.524829,255.709142 L146.013328,248.019578 C146.013328,248.019578 157.3506,301.388673 116.341834,278.446185 C108.371953,273.987999 128.063618,243.70814 128.063618,243.70814 L119.942263,242 C119.942263,242 105.546528,246.700592 94.7279936,264.009453 Z" id="Fill-2744" fill="#323232"></path>
            <path d="M87.3301472,287 L69,249.171601 C69,249.171601 71.6282304,226.225839 105.278966,218 C105.278966,218 108.681586,229.567314 112.412735,233.986777 C116.14095,238.406241 127,243.104645 127,243.104645 L87.3301472,287" id="Fill-2745" fill="#323232"></path>
            <path d="M157.030022,303 L214.893694,291.035756 C214.893694,291.035756 224.954536,270.009471 201.099712,245 C201.099712,245 155.967155,247.746518 150.125751,248.237073 C144.371707,248.721752 148.323245,253.18668 148.323245,253.18668 L157.030022,303" id="Fill-2746" fill="#323232"></path>
            <path d="M176.714166,209.135232 C176.714166,209.135232 182.756742,203.454238 186.47373,207.386622 C190.190719,211.319006 173,217 173,217 L176.714166,209.135232" id="Fill-2748" fill="#F1B0A0"></path>
            <path d="M144.473302,203.814238 C144.456614,204.04744 142.76002,204.208461 140.170628,203.353385 C139.528147,203.128511 138.774414,202.831456 138.070745,202.187373 C137.720301,201.868107 137.400451,201.437793 137.200198,200.924193 C136.919286,200.205152 136.941537,199.391719 137.219667,198.769846 C137.305887,198.64214 137.303106,198.345084 137.464421,198.339532 L137.965056,198.325651 C138.290468,198.278455 138.671506,198.386728 139.046982,198.456133 C139.728401,198.586615 139.945342,198.564406 140.434852,198.59772 C141.28593,198.617154 142.175946,198.531091 143.057619,198.333979 C146.67053,197.576071 149.093044,194.949767 150.177751,192.789868 C151.318085,190.616088 151.415431,188.980894 151.718593,189.000328 C151.929972,188.972566 152.355511,190.710479 151.415431,193.334007 C150.937047,194.616621 150.105438,196.09357 148.762069,197.387288 C147.427044,198.678231 145.577478,199.738747 143.474814,200.196823 C142.426264,200.430025 141.37215,200.516088 140.359756,200.46334 C139.917529,200.443907 139.222204,200.355068 139.016388,200.310648 C138.83004,200.277333 138.855072,200.23569 138.821697,200.260676 C138.799446,200.28011 138.78554,200.318977 138.788321,200.368949 C138.863416,200.621585 138.9997,200.857563 139.19161,201.074109 C139.578211,201.507199 140.137252,201.834793 140.685169,202.106862 C142.926898,203.200693 144.515021,203.528287 144.473302,203.814238" id="Fill-2750" fill="#E26559"></path>
            <path d="M130,206 L151,214.20915 C151,214.20915 132.542151,226.835985 130,206" id="Fill-2751" fill="#FFFFFE"></path>
            <path d="M161.770236,210.659526 C161.033616,212.179364 158.750093,212.447571 156.66489,211.254514 C154.585354,210.061456 153.491756,207.863394 154.23121,206.340474 C154.96783,204.820636 157.24852,204.552429 159.333723,205.745486 C161.413259,206.938544 162.506856,209.136606 161.770236,210.659526" id="Fill-2752" fill="#ED9E90"></path>
            <path d="M136.840863,196.394275 C136.223225,198.019448 134.005847,198.489225 131.885845,197.44175 C129.763061,196.397449 128.544477,194.229494 129.159334,192.604321 C129.776972,190.979148 131.994349,190.512546 134.117134,191.556846 C136.234353,192.604321 137.455719,194.769102 136.840863,196.394275" id="Fill-2753" fill="#ED9E90"></path>
            <path d="M129,228 C129,228 136.344078,234.152584 144,232.168526 C144,232.168526 141.359336,236.133779 131.194354,234.679376 C131.194354,234.679376 132.041198,230.313303 129,228" id="Fill-2754" fill="#E98E82"></path>
            <path d="M161.402233,195.734564 C161.402235,196.544629 160.089992,197.198228 158.474921,197.198224 C156.854803,197.198219 155.55265,196.544611 155.552647,195.734547 C155.552645,194.927005 156.854794,194.273406 158.474912,194.27341 C160.089983,194.273415 161.40223,194.927023 161.402233,195.734564" id="Fill-2755" fill="#252D35" transform="translate(158.477440, 195.735817) rotate(20.000000) translate(-158.477440, -195.735817) "></path>
            <path d="M146.09009,191.446392 C146.090092,192.256457 144.777849,192.910057 143.162778,192.910052 C141.542659,192.910047 140.240506,192.25644 140.240504,191.446375 C140.240502,190.638834 141.542651,189.985234 143.162769,189.985239 C144.77784,189.985244 146.090087,190.638851 146.09009,191.446392" id="Fill-2755-Copy" fill="#252D35" transform="translate(143.165297, 191.447646) rotate(20.000000) translate(-143.165297, -191.447646) "></path>
            <path d="M167.316161,194.375782 C166.792623,194.595142 165.780643,193.372568 164.24805,192.381052 C162.74763,191.345665 161.226738,190.880616 161.229661,190.310277 C161.179939,189.766261 163.303336,189.327543 165.362392,190.710985 C167.430222,192.082728 167.839698,194.211994 167.316161,194.375782" id="Fill-2757" fill="#67477F" transform="translate(164.375718, 192.094682) rotate(14.000000) translate(-164.375718, -192.094682) "></path>
            <path d="M137.00048,185.060554 C136.966713,184.698554 138.719753,184.240554 141.066519,184.286554 C143.455493,184.322554 145.219788,185.146554 144.977796,185.490554 C144.749872,185.838554 143.086876,185.688554 140.990545,185.660554 C138.882957,185.616554 137.034246,185.454554 137.00048,185.060554" id="Fill-2758" fill="#67477F"></path>
            <g id="phone" transform="translate(0.340808, 0.827774)" stroke="#000000" stroke-width="6">
                <rect id="Rectangle" fill="#FFFFFF" transform="translate(42.000000, 39.000000) rotate(51.000000) translate(-42.000000, -39.000000) " x="25" y="5" width="34" height="68" rx="8"></rect>
                <rect id="Rectangle" fill="url(#linearGradient-8)" transform="translate(42.000000, 39.000000) rotate(51.000000) translate(-42.000000, -39.000000) " x="25" y="5" width="34" height="68" rx="8"></rect>
            </g>
        </g>
        <g id="man" transform="translate(40.000000, 150.000000)">
            <path d="M187.084352,179 C187.084352,179 180.701343,183.496724 183.894359,190.994341 C187.084352,198.491958 201.07799,220.732427 219.9821,219.981434 C220.756165,219.950656 196.167517,179 196.167517,179 L187.084352,179" id="Fill-2707" fill="#442B29"></path>
            <path d="M158,587.891651 C158,587.891651 133.938658,566.652166 126.235212,570.456117 C116.823651,575.10539 62.9549282,627.250835 65.0600648,651.819918 C65.9218167,661.878646 77.7770597,653.258182 98.9053681,631.608198 C120.033676,609.961256 146.643342,619.238517 146.643342,619.238517 L158,587.891651" id="Fill-2708" fill="url(#linearGradient-9)"></path>
            <path d="M217,622.470716 L188.205149,605 C188.205149,605 113.574654,675.771519 125.237194,685.204224 C134.080956,692.362836 139.276171,685.94477 160.218713,663.978323 C181.161255,642.008789 207.692542,654.638185 207.692542,654.638185 L217,622.470716" id="Fill-2709" fill="url(#linearGradient-10)"></path>
            <path d="M278.441768,440 C278.441768,440 383.299947,446.621123 397.261917,441.953323 C397.261917,441.953323 417.753305,643.634677 381.289252,665.393288 C344.8252,687.161069 263,655.290421 263,655.290421 L285.093231,611.770142 L332.72747,608.658275 L332.72747,530.938033 L329.313256,531.714471 L278.441768,440" id="Fill-2711" fill="#191D23"></path>
            <path d="M146.554586,577.731962 C146.554586,577.731962 120.160733,588.627122 128.701178,615.08461 C128.701178,615.08461 218.795695,685.89397 262.636849,669.551229 C287.198643,660.400519 313.583335,590.552138 332.041322,530.882773 L397,441.95562 C397,441.95562 366.364933,443.49196 356.142048,443.452174 C336.612307,443.378724 278.09026,440 278.09026,440 C278.09026,440 247.525422,600.299633 236.633836,604.18945 C225.742249,608.076207 146.554586,577.731962 146.554586,577.731962" id="Fill-2712" fill="#252D35"></path>
            <path d="M303,238.845789 C303,238.845789 365.88101,179.661263 376.746883,164.084132 C387.612756,148.510062 410.904619,96.3361654 439.621787,74.5294059 L425.650943,44.940206 C425.650943,44.940206 434.190377,40.2695167 439.621787,52.7257092 C439.621787,52.7257092 459.802573,12.2331296 464.458504,13.0110674 C469.12054,13.7890051 455.149696,44.1592055 455.149696,44.1592055 C455.149696,44.1592055 474.561109,16.1228184 479.992519,16.9068817 C485.420876,17.6848195 466.015569,48.4225495 466.015569,48.4225495 C466.015569,48.4225495 487.750367,23.1365093 490.858392,26.2513231 C493.963363,29.366137 473.779523,48.4225495 473.779523,48.4225495 C473.779523,48.4225495 495.511269,35.905102 497.840761,40.0306224 C500.173305,44.1592055 476.109015,55.0625852 476.109015,55.0625852 C476.109015,55.0625852 473.779523,72.9735304 459.0332,80.7590335 C459.0332,80.7590335 429.830594,159.903482 403.436813,185.602993 L318.650032,274 L303,238.845789" id="Fill-2713" fill="#FFDED6"></path>
            <path d="M227.3283,270 C227.3283,270 167.564714,332.279276 151.887263,342.990676 C136.209811,353.695976 83.8270923,376.491643 61.7549307,404.986226 L32.2957767,390.745036 C32.2957767,390.745036 27.5456834,399.235446 39.9522779,404.778771 C39.9522779,404.778771 -0.725181593,424.566338 0.0098425206,429.23408 C0.741804034,433.895721 31.2422421,420.21588 31.2422421,420.21588 C31.2422421,420.21588 3.02650399,439.350573 3.7554029,444.781018 C4.48430181,450.217565 35.398191,431.11338 35.398191,431.11338 C35.398191,431.11338 9.91122985,452.594147 12.9983311,455.72428 C16.0823698,458.860515 35.3277512,438.868544 35.3277512,438.868544 C35.3277512,438.868544 22.6087714,460.468293 26.7157186,462.835723 C30.8196033,465.200102 41.9460308,441.260381 41.9460308,441.260381 C41.9460308,441.260381 59.874494,439.103457 67.8035666,424.432102 C67.8035666,424.432102 142.766838,394.726346 168.71319,368.59004 L262,302.744365 L227.3283,270" id="Fill-2714" fill="#FFDED6"></path>
            <path d="M249.225199,244.201222 L219,273.847889 L226.665012,307.275189 C226.665012,307.275189 256.446174,378.913886 260.944737,396.390106 C267.942161,423.566474 256.623789,465 256.623789,465 C256.623789,465 307.106302,460.802025 353.041255,459.240059 C398.973146,457.681161 414,442.853225 414,442.853225 C414,442.853225 374.174396,309.935748 346.680795,272.779983 C319.178008,235.630356 309.176437,224 309.176437,224 L268.68937,232.86853 L249.225199,244.201222" id="Fill-2715" fill="#008858"></path>
            <path d="M338.269803,269 L369.803179,248.909784 C369.803179,248.909784 374.620267,227.385644 336.592561,202 L292,229.859086 L338.269803,269" id="Fill-2716" fill="#008858"></path>
            <path d="M226.176209,271.635502 C208.96325,274.082688 177.507926,318.289821 174,318.203195 C174,318.203195 196.137489,354.811986 213.674069,356 C213.674069,356 290.845398,262.443858 226.176209,271.635502" id="Fill-2717" fill="#008858"></path>
            <path d="M286,242.559728 C286,242.559728 260.933734,223.934044 261.802413,216.504459 C262.022641,214.636414 265.497354,211.597038 266.399679,208.901456 C271.259996,194.401291 247.824031,157.028227 233.429663,149.154448 C222.103198,142.957043 227.067511,142.409407 203.230854,156.498846 C179.394196,170.588284 192.974943,194.955011 203.619312,207.553665 C213.682523,219.464732 225.207805,224.569909 235.576889,225.427871 L250.319952,258 L286,242.559728" id="Fill-2718" fill="#FFDED6"></path>
            <path d="M241.258006,269.83634 C236.550203,258.181766 245.464656,243.498596 261.170496,237.036776 C276.88241,230.568824 293.426543,234.77146 298.143458,246.426034 C302.848224,258.074478 287.042154,275.590058 278.218819,279.222533 C269.395484,282.851943 245.962772,281.484784 241.258006,269.83634" id="Fill-2719" fill="#FFDED6"></path>
            <path d="M203.715668,209.008876 C203.715668,209.008876 195.9057,208.570551 195.035639,213.854311 C194.168518,219.138071 209.359304,219.138071 215,215.175251 L203.715668,209.008876" id="Fill-2720" fill="#FFDED6"></path>
            <path d="M205.408672,205.367228 C201.831323,198.995607 196.453444,193.25465 196.828259,186.323511 C201.834747,186.360306 205.047958,180.151124 202.768108,174.846488 C201.87453,172.761429 200.35361,170.973798 199.386586,168.916336 C198.416503,166.861939 198.159446,164.16976 199.646704,163.010713 C200.34749,162.461852 201.299212,162.366798 202.211152,162.271743 C209.632139,161.508244 222.338093,163.737417 229.165401,161.204684 C235.668328,158.791535 246.967037,153.001072 247,145 C247.04602,133.829604 245.092538,131.130113 235,121.036637 C226,112.035801 217.184715,120.46018 213.714447,121.036637 C208.408059,121.922787 207.125834,129.008921 206.740249,134.945207 C203.031286,131.403673 197.562707,131.973998 194.334195,134.853219 C191.108743,137.729374 189.584763,142.304238 188.177071,146.722723 C186.769378,151.141208 185.282121,155.728338 182.099512,158.659685 C179.131117,161.397858 174.439829,163.467586 175.054929,168.119107 C175.786317,173.662911 183.014512,175.634518 186.356251,180.359629 C185.536117,179.200582 184.835331,186.602541 185.309663,187.859709 C186.735716,191.640411 190.29473,194.139416 192.868359,197.033968 C198.352239,203.197157 201.032975,209.403273 208.291771,213 C207.866378,210.298254 206.767395,207.787252 205.408672,205.367228 Z" id="Fill-2721" fill="#442B29"></path>
            <path d="M253.578157,191 L235,200.85356 C235,200.85356 257.314649,217.464925 253.578157,191" id="Fill-2722" fill="#FFFFFE"></path>
            <path d="M228.68333,194.724427 C229.697027,196.680723 228.196388,199.509253 225.332923,201.041893 C222.469459,202.574532 219.327305,202.231869 218.31667,200.275573 C217.302973,198.319277 218.803612,195.490747 221.667077,193.958107 C224.530541,192.425468 227.672695,192.768131 228.68333,194.724427" id="Fill-2723" fill="#ED9E90"></path>
            <path d="M255.68333,175.72357 C256.697027,177.679579 255.196388,180.507694 252.332923,182.043223 C249.469459,183.575638 246.327305,183.22991 245.31667,181.273901 C244.302973,179.321007 245.803612,176.492892 248.667077,174.960478 C251.530541,173.424948 254.672695,173.767561 255.68333,175.72357" id="Fill-2724" fill="#ED9E90"></path>
            <path d="M240.226251,189.964962 C240.140755,189.854468 240.485794,189.384079 241.28885,188.787411 C242.049158,188.174959 243.377406,187.521466 244.363669,186.42284 C245.340771,185.355784 245.69497,183.13959 244.198783,182.82705 C242.641526,182.280894 240.879688,184.124565 238.855255,185.876684 C238.351436,186.306032 237.856778,186.732223 237.368227,187.1521 C236.907157,187.584605 235.942269,188.22547 234.940739,188.096035 C233.032336,187.780337 232.223173,186.460723 231.487293,185.583085 C230.02164,183.635234 229.11782,181.598988 228.617055,179.837398 C227.624686,176.276334 228.070489,173.978059 228.308657,174.000158 C228.644536,173.981216 228.75446,176.191096 230.015533,179.322811 C230.647596,180.879198 231.600271,182.647102 232.983481,184.31714 C233.655239,185.163208 234.504096,185.952451 235.108678,185.977707 C235.365168,185.990335 235.560588,185.90194 236.039979,185.488376 C236.522423,185.068499 237.010974,184.642308 237.508686,184.21296 C238.525483,183.360578 239.407928,182.498725 240.574344,181.696854 C241.707172,180.907611 243.325497,180.40881 244.769777,180.917082 C246.317873,181.333802 247.221693,183.199572 246.952989,184.49393 C246.778943,185.813544 246.14688,186.785892 245.426267,187.49621 C243.899545,188.812667 242.537709,189.131521 241.679691,189.5293 C240.800299,189.873409 240.320908,190.088083 240.226251,189.964962" id="Fill-2725" fill="#E26559"></path>
            <path d="M236,226.699489 C236,226.699489 248.314933,226.763676 255,223 C255,223 249.344631,229.351568 238.033893,231 L236,226.699489" id="Fill-2726" fill="#E98E82"></path>
            <path d="M240.991728,172.889442 C240.887599,173.486364 239.281037,173.670753 237.582247,174.458315 C235.862631,175.189623 234.619033,176.274083 234.137064,175.936556 C233.64617,175.661535 234.461352,173.50824 236.784916,172.480034 C239.10848,171.442453 241.146434,172.326897 240.991728,172.889442" id="Fill-2727" fill="#252D35"></path>
            <path d="M218.146842,187.935855 C217.64818,187.579572 218.430328,185.505139 220.329343,183.434036 C222.252266,181.316316 224.708006,180.61041 224.967584,181.199775 C225.240823,181.779151 223.744837,183.12104 222.057583,184.982369 C220.349836,186.837039 218.68649,188.332095 218.146842,187.935855" id="Fill-2728" fill="#252D35"></path>
            <path d="M208.773637,184.73604 C207.828957,184.042484 207.094874,181.089661 210.699101,177.106923 C214.339431,173.034885 218.403964,173.749278 218.891347,174.883376 C219.411824,175.993661 218.060991,177.574254 214.868933,181.152171 C211.628739,184.721157 209.793531,185.492106 208.773637,184.73604" id="Fill-2729" fill="#442B29"></path>
            <path d="M229.160147,169.281527 C228.630531,168.35561 229.215252,165.660736 233.98486,163.783183 C238.821818,161.842759 242.045436,163.983227 241.999516,165.094898 C241.990332,166.200854 240.168819,166.975309 235.922705,168.684254 C231.636792,170.361763 229.729561,170.290319 229.160147,169.281527" id="Fill-2730" fill="#442B29"></path>
            <g id="phone" transform="translate(423.861013, 0.700054)" stroke="#000000" stroke-width="6">
                <rect id="Rectangle-Copy-5" fill="#FFFFFF" transform="translate(40.000000, 41.000000) rotate(-43.000000) translate(-40.000000, -41.000000) " x="23" y="7" width="34" height="68" rx="8"></rect>
                <rect id="Rectangle-Copy-5" fill="url(#linearGradient-8)" transform="translate(40.000000, 41.000000) rotate(-43.000000) translate(-40.000000, -41.000000) " x="23" y="7" width="34" height="68" rx="8"></rect>
            </g>
        </g>
    </g>
</svg>