<?xml version="1.0" encoding="UTF-8"?>
<svg width="1283px" height="887px" viewBox="0 0 1283 887" version="1.1" xmlns="http://www.w3.org/2000/svg" xmlns:xlink="http://www.w3.org/1999/xlink">
    <!-- Generator: Sketch 53.2 (72643) - https://sketchapp.com -->
    <title>ground</title>
    <desc>Created with Sketch.</desc>
    <defs>
        <linearGradient x1="50%" y1="0%" x2="50%" y2="100%" id="linearGradient-1">
            <stop stop-color="#FFD5E2" offset="0%"></stop>
            <stop stop-color="#FF94C2" offset="100%"></stop>
        </linearGradient>
        <linearGradient x1="50%" y1="100%" x2="50%" y2="50%" id="linearGradient-2">
            <stop stop-color="#FFD5E2" offset="0%"></stop>
            <stop stop-color="#FF94C2" offset="100%"></stop>
        </linearGradient>
        <linearGradient x1="50%" y1="100%" x2="50%" y2="50%" id="linearGradient-3">
            <stop stop-color="#FFD5E2" offset="0%"></stop>
            <stop stop-color="#FF94C2" offset="100%"></stop>
        </linearGradient>
    </defs>
    <g id="Page-3" stroke="none" stroke-width="1" fill="none" fill-rule="evenodd">
        <g id="b3" transform="translate(0.000000, -13.000000)">
            <g id="back" transform="translate(-45.500000, -0.500000)">
                <g id="ground" transform="translate(0.000000, 13.000000)">
                    <g id="gr1" transform="translate(686.000000, 592.000000) rotate(180.000000) translate(-686.000000, -592.000000) translate(1.500000, 157.500000)" fill="url(#linearGradient-1)">
                        <path d="M498.766198,140.45789 C462.764924,198.885811 349.309717,170.889633 289.563725,323.877069 C263.873932,434.5 302.316634,505.788034 236.901032,542.463724 C202.815634,561.573755 166.379858,566.441247 132.478467,586.492968 C98.5770759,606.540504 62.3860545,662.265529 42.7711577,728.462873 L-4.54747351e-13,869 L1281.87743,869 C1281.87743,869 1408.25005,562.257819 1356.59565,386.127995 C1343.4665,341.125986 1261.3564,133.115475 1110.14097,170.097253 C1056.34005,187.730237 1010.67915,214.31397 936.877591,182.354925 C863.076035,150.39588 883.696124,88.0465901 813.044918,36.7977219 C773.437361,4.86342558 696.728824,1.70530257e-13 675.806037,1.70530257e-13 C629.007004,-0.00418528936 581.123559,31.791458 542.303056,78.7378487 C526.836689,97.4426835 512.44459,118.258677 498.766198,140.45789 Z" id="ground" transform="translate(684.500000, 434.500000) scale(1, -1) translate(-684.500000, -434.500000) "></path>
                    </g>
                    <g id="gr2" fill-opacity="0.53">
                        <path d="M255.892811,330.799251 C225.440308,380.217573 129.471623,356.538412 78.9341074,485.93515 C57.2038083,579.5 89.7214482,639.795402 34.3881632,670.815693 C5.5562489,686.978953 -25.263787,691.095876 -53.940055,708.055618 C-82.616323,725.011819 -113.229327,772.144032 -129.821037,828.13373 L-166,947 L918.305381,947 C918.305381,947 1025.20055,687.557534 981.507494,538.586969 C970.401908,500.524281 900.947197,324.589038 773.03816,355.868217 C727.529419,370.782191 688.906102,393.266706 626.479365,366.235753 C564.052628,339.204801 581.494603,286.469786 521.732663,243.123505 C488.229703,216.113484 423.34403,212 405.646012,212 C366.059979,211.99646 325.55667,238.889208 292.719458,278.596454 C279.636878,294.416999 267.462991,312.023162 255.892811,330.799251 Z" id="ground-copy" fill="url(#linearGradient-2)" transform="translate(413.000000, 579.500000) scale(1, -1) rotate(90.000000) translate(-413.000000, -579.500000) "></path>
                        <path d="M301.071303,532.617919 C279.375867,562.201676 211.004395,548.026396 174.999688,625.488389 C159.518257,681.5 182.68497,717.595207 143.263588,736.165177 C122.722716,745.841142 100.765437,748.305695 80.3354531,758.458465 C59.9054694,768.609116 38.0956866,796.824318 26.2751681,830.341961 L0.5,901.5 L772.997357,901.5 C772.997357,901.5 849.153243,746.187503 818.024769,657.007846 C810.112758,634.222018 760.630775,528.900241 669.503871,547.625191 C637.08184,556.553284 609.565228,570.013402 565.090221,553.831607 C520.615214,537.649813 533.041492,506.080552 490.46498,480.131758 C466.596291,463.962494 420.369452,461.5 407.76076,461.5 C379.558275,461.497881 350.702291,477.596941 327.307904,501.367265 C317.987413,510.838068 309.314307,521.377811 301.071303,532.617919 Z" id="ground-copy-2" fill="url(#linearGradient-3)" transform="translate(413.000000, 681.500000) scale(1, -1) rotate(180.000000) translate(-413.000000, -681.500000) "></path>
                    </g>
                </g>
            </g>
        </g>
    </g>
</svg>