<?xml version="1.0" encoding="UTF-8"?>
<svg width="1440px" height="900px" viewBox="0 0 1440 900" version="1.1" xmlns="http://www.w3.org/2000/svg" xmlns:xlink="http://www.w3.org/1999/xlink">
    <!-- Generator: Sketch 53.2 (72643) - https://sketchapp.com -->
    <title>HD_back</title>
    <desc>Created with Sketch.</desc>
    <defs>
        <polygon id="path-1" points="0 0.248856241 293.360557 0.248856241 293.360557 334 0 334"></polygon>
        <linearGradient x1="50%" y1="0%" x2="50%" y2="100%" id="linearGradient-3">
            <stop stop-color="#FFD5E2" offset="0%"></stop>
            <stop stop-color="#FF94C2" offset="100%"></stop>
        </linearGradient>
        <linearGradient x1="50%" y1="100%" x2="50%" y2="50%" id="linearGradient-4">
            <stop stop-color="#FFD5E2" offset="0%"></stop>
            <stop stop-color="#FF94C2" offset="100%"></stop>
        </linearGradient>
        <linearGradient x1="50%" y1="100%" x2="50%" y2="50%" id="linearGradient-5">
            <stop stop-color="#FFD5E2" offset="0%"></stop>
            <stop stop-color="#FF94C2" offset="100%"></stop>
        </linearGradient>
    </defs>
    <g id="Page-3" stroke="none" stroke-width="1" fill="none" fill-rule="evenodd">
        <g id="b3">
            <g id="back" transform="translate(-45.500000, -0.500000)">
                <g id="leafs" transform="translate(1169.500000, 540.500000)">
                    <g id="Group-3" transform="translate(0.000000, 39.000000)">
                        <mask id="mask-2" fill="white">
                            <use xlink:href="#path-1"></use>
                        </mask>
                        <g id="Clip-2"></g>
                        <path d="M12.2791075,268.834618 C-2.65565373,262.301023 -3.38626567,239.615173 6.93445075,227.016546 C17.2573612,214.417918 33.9780627,209.388539 49.6566,204.924062 C65.3373313,200.457395 82.0470627,195.222199 92.1044955,182.411186 C108.658451,161.325892 100.439615,128.859356 114.78857,106.219487 C129.01466,83.7722974 159.230839,79.2136699 185.627212,75.8111209 C212.023585,72.4085719 242.489884,64.8962516 253.078272,40.5266438 C256.94854,31.6217745 257.505824,21.4951405 261.839033,12.8048464 C266.172242,4.11455229 276.922988,-2.93796405 285.446794,1.74108824 C293.79069,6.31942157 293.922331,18.0312843 292.948182,27.4835392 C290.087167,55.2491275 287.226152,83.0147157 284.365137,110.778114 C281.172824,141.751382 276.06951,176.302363 251.320854,195.261611 C229.722824,211.805794 198.194615,211.917461 178.213585,230.373114 C151.966406,254.613539 155.713809,300.98148 127.755287,323.23599 C106.699182,339.996938 74.6180776,335.703245 52.3859731,320.529716 C30.1516746,305.360565 15.4933612,281.691611 1.49325672,258.732069" id="Fill-1" fill="#FFAF0B" mask="url(#mask-2)"></path>
                    </g>
                    <path d="M281.992458,42 C282.561483,84.0650498 250.83888,137.75757 218.663694,165.01089 C198.503945,182.085523 173.40752,193.857434 157.369359,214.82321 C143.477676,232.985525 137.950003,256.065386 126.756245,275.98725 C108.591381,308.309123 66.8262531,329.878923 30,335" id="Stroke-4" stroke="#FFF9F7" stroke-width="0.674"></path>
                    <path d="M152,222.133947 C152,222.133947 233.044861,245.693267 264,220" id="Stroke-6" stroke="#FFF9F7" stroke-width="0.674"></path>
                    <path d="M254,122 C254,122 238.700028,109.250189 253.339493,79" id="Stroke-8" stroke="#FFF9F7" stroke-width="0.674"></path>
                    <path d="M99,306 C99,306 131.015875,327.90429 155,306.875742" id="Stroke-10" stroke="#FFF9F7" stroke-width="0.674"></path>
                    <path d="M68,325 C68,325 44.03449,285.042359 63.8394449,240" id="Stroke-12" stroke="#FFF9F7" stroke-width="0.674"></path>
                    <path d="M277,196.628566 C277,196.628566 244.598269,214.251821 175,195" id="Stroke-14" stroke="#FFF9F7" stroke-width="0.674"></path>
                    <path d="M157,215 C157,215 132.312608,160.027654 150.978895,122" id="Stroke-16" stroke="#FFF9F7" stroke-width="0.674"></path>
                    <path d="M221,107 C221,107 201.096366,147.425287 212.556102,168" id="Stroke-18" stroke="#FFF9F7" stroke-width="0.674"></path>
                    <path d="M291,82 C291,82 290.952233,91.5559354 270,96" id="Stroke-20" stroke="#FFF9F7" stroke-width="0.674"></path>
                    <path d="M286,134 C286,134 272.511628,143.022054 246,136.827808" id="Stroke-22" stroke="#FFF9F7" stroke-width="0.674"></path>
                    <path d="M92.3985012,221 C92.3985012,221 65.0731217,281.16916 109,298" id="Stroke-24" stroke="#FFF9F7" stroke-width="0.674"></path>
                    <path d="M178,269.104624 C178,269.104624 153.542268,277.782974 138,258" id="Stroke-26" stroke="#FFF9F7" stroke-width="0.674"></path>
                    <path d="M132,357 C132,357 84.1185447,356.749979 58,331" id="Stroke-28" stroke="#FFF9F7" stroke-width="0.674"></path>
                    <g id="Group-56" transform="translate(4.000000, 0.000000)">
                        <path d="M13.68972,216.864625 C2.81292,216.050875 -1.91048,202.610875 2.40152,192.922437 C6.71352,183.234 16.58052,176.748063 25.87992,170.81775 C35.18152,164.887438 45.00012,158.285562 49.10312,148.52275 C55.85492,132.453375 44.45892,114.710562 49.49252,98.1686875 C54.48652,81.7668125 73.16452,72.76525 89.59192,65.2468125 C106.01712,57.7305625 124.30352,46.9068125 126.58272,30.109 C127.41652,23.970875 125.88092,17.789 127.05352,11.6836875 C128.22832,5.5761875 133.85812,-0.879125 140.24252,0.153375 C146.49492,1.1661875 148.77192,8.1530625 149.91372,14.0199375 L159.96772,65.7018125 C163.70552,84.9211875 166.87792,106.678063 154.43252,123.174 C143.56892,137.56775 123.20792,144.176187 113.74792,159.3815 C101.32452,179.353375 112.43012,206.3515 98.52612,225.48775 C88.05412,239.899 66.51172,243.98525 49.29892,239.514 C32.08392,235.038375 18.17552,223.901812 4.82372,213.051812" id="Fill-30" fill="#008858"></path>
                        <path d="M137.97256,1.773875 C146.22256,26.868875 135.80776,65.627 120.14376,88.63075 C110.32956,103.044188 96.33316,115.30075 89.90916,131.192938 C84.34316,144.956688 85.10216,159.936688 81.60856,174.199188 C75.94136,197.334188 53.02176,218.922625 30.20776,229.623875" id="Stroke-32" stroke="#FFF9F7" stroke-width="0.439"></path>
                        <path d="M95.62894,61.678125 C95.62894,61.678125 91.89774,88.3809375 107.16354,104.911875" id="Stroke-34" stroke="#FFF9F7" stroke-width="0.439"></path>
                        <path d="M81.1635,169.632563 C81.1635,169.632563 48.4363,114.870688 54.4929,88.57475" id="Stroke-36" stroke="#FFF9F7" stroke-width="0.439"></path>
                        <path d="M135.1625,55.9934688 C135.1625,55.9934688 122.5323,51.5594063 126.5847,30.1087813" id="Stroke-38" stroke="#FFF9F7" stroke-width="0.439"></path>
                        <path d="M69.27844,197.57 C69.27844,197.57 94.30344,204.265938 105.89744,186.402813" id="Stroke-40" stroke="#FFF9F7" stroke-width="0.439"></path>
                        <path d="M52.64094,215.4375 C52.64094,215.4375 29.94134,196.5375 34.16314,165.65875" id="Stroke-42" stroke="#FFF9F7" stroke-width="0.439"></path>
                        <path d="M164.02232,95.691125 C164.02232,95.691125 146.30572,112.659563 97.86172,115.892688" id="Stroke-44" stroke="#FFF9F7" stroke-width="0.439"></path>
                        <path d="M151.94388,23.629625 C151.94388,23.629625 153.71488,29.4024375 140.86688,36.4768125" id="Stroke-46" stroke="#FFF9F7" stroke-width="0.439"></path>
                        <path d="M157.91864,56.1185938 C157.91864,56.1185938 150.94244,64.3545313 132.71544,66.0892188" id="Stroke-48" stroke="#FFF9F7" stroke-width="0.439"></path>
                        <path d="M49.10246,148.522312 C49.10246,148.522312 42.91606,190.240125 74.16706,191.32075" id="Stroke-50" stroke="#FFF9F7" stroke-width="0.439"></path>
                        <path d="M113.74902,159.380625 C113.74902,159.380625 99.61182,169.801875 85.75622,160.844063" id="Stroke-52" stroke="#FFF9F7" stroke-width="0.439"></path>
                        <path d="M100.69928,221.151906 C100.69928,221.151906 69.50108,231.004406 47.73648,221.195656" id="Stroke-54" stroke="#FFF9F7" stroke-width="0.439"></path>
                    </g>
                </g>
                <g id="ground" transform="translate(0.000000, 13.000000)">
                    <g id="gr1" transform="translate(686.000000, 592.000000) rotate(180.000000) translate(-686.000000, -592.000000) translate(1.500000, 157.500000)" fill="url(#linearGradient-3)">
                        <path d="M498.766198,140.45789 C462.764924,198.885811 349.309717,170.889633 289.563725,323.877069 C263.873932,434.5 302.316634,505.788034 236.901032,542.463724 C202.815634,561.573755 166.379858,566.441247 132.478467,586.492968 C98.5770759,606.540504 62.3860545,662.265529 42.7711577,728.462873 L-4.54747351e-13,869 L1281.87743,869 C1281.87743,869 1408.25005,562.257819 1356.59565,386.127995 C1343.4665,341.125986 1261.3564,133.115475 1110.14097,170.097253 C1056.34005,187.730237 1010.67915,214.31397 936.877591,182.354925 C863.076035,150.39588 883.696124,88.0465901 813.044918,36.7977219 C773.437361,4.86342558 696.728824,1.70530257e-13 675.806037,1.70530257e-13 C629.007004,-0.00418528936 581.123559,31.791458 542.303056,78.7378487 C526.836689,97.4426835 512.44459,118.258677 498.766198,140.45789 Z" id="ground" transform="translate(684.500000, 434.500000) scale(1, -1) translate(-684.500000, -434.500000) "></path>
                    </g>
                    <g id="gr2" fill-opacity="0.53">
                        <path d="M255.892811,330.799251 C225.440308,380.217573 129.471623,356.538412 78.9341074,485.93515 C57.2038083,579.5 89.7214482,639.795402 34.3881632,670.815693 C5.5562489,686.978953 -25.263787,691.095876 -53.940055,708.055618 C-82.616323,725.011819 -113.229327,772.144032 -129.821037,828.13373 L-166,947 L918.305381,947 C918.305381,947 1025.20055,687.557534 981.507494,538.586969 C970.401908,500.524281 900.947197,324.589038 773.03816,355.868217 C727.529419,370.782191 688.906102,393.266706 626.479365,366.235753 C564.052628,339.204801 581.494603,286.469786 521.732663,243.123505 C488.229703,216.113484 423.34403,212 405.646012,212 C366.059979,211.99646 325.55667,238.889208 292.719458,278.596454 C279.636878,294.416999 267.462991,312.023162 255.892811,330.799251 Z" id="ground-copy" fill="url(#linearGradient-4)" transform="translate(413.000000, 579.500000) scale(1, -1) rotate(90.000000) translate(-413.000000, -579.500000) "></path>
                        <path d="M301.071303,532.617919 C279.375867,562.201676 211.004395,548.026396 174.999688,625.488389 C159.518257,681.5 182.68497,717.595207 143.263588,736.165177 C122.722716,745.841142 100.765437,748.305695 80.3354531,758.458465 C59.9054694,768.609116 38.0956866,796.824318 26.2751681,830.341961 L0.5,901.5 L772.997357,901.5 C772.997357,901.5 849.153243,746.187503 818.024769,657.007846 C810.112758,634.222018 760.630775,528.900241 669.503871,547.625191 C637.08184,556.553284 609.565228,570.013402 565.090221,553.831607 C520.615214,537.649813 533.041492,506.080552 490.46498,480.131758 C466.596291,463.962494 420.369452,461.5 407.76076,461.5 C379.558275,461.497881 350.702291,477.596941 327.307904,501.367265 C317.987413,510.838068 309.314307,521.377811 301.071303,532.617919 Z" id="ground-copy-2" fill="url(#linearGradient-5)" transform="translate(413.000000, 681.500000) scale(1, -1) rotate(180.000000) translate(-413.000000, -681.500000) "></path>
                    </g>
                </g>
                <g id="stars" transform="translate(117.399495, 89.500000)">
                    <rect id="Rectangle" stroke="#FF67B1" stroke-width="6" transform="translate(429.899495, 227.798990) rotate(45.000000) translate(-429.899495, -227.798990) " x="418.899495" y="216.79899" width="22" height="22"></rect>
                    <rect id="Rectangle-Copy-2" stroke="#FF67B1" stroke-width="6" transform="translate(1116.000000, 401.899495) rotate(45.000000) translate(-1116.000000, -401.899495) " x="1112" y="397.899495" width="8" height="8"></rect>
                    <rect id="Rectangle-Copy-3" stroke="#FF67B1" stroke-width="6" transform="translate(558.000000, 150.899495) rotate(45.000000) translate(-558.000000, -150.899495) " x="554" y="146.899495" width="8" height="8"></rect>
                    <rect id="Rectangle-Copy" stroke="#FF67B1" stroke-width="6" transform="translate(1078.970563, 736.870058) rotate(45.000000) translate(-1078.970563, -736.870058) " x="1062.97056" y="720.870058" width="32" height="32"></rect>
                    <circle id="Oval" stroke="#FFFFFF" stroke-width="5" cx="66.1005051" cy="302" r="19"></circle>
                    <circle id="Oval-Copy-3" stroke="#FF50A2" stroke-width="5" cx="262.100505" cy="14" r="14"></circle>
                    <circle id="Oval-Copy-2" stroke="#FFFFFF" stroke-width="5" cx="578.600505" cy="305.5" r="9.5"></circle>
                    <circle id="Oval-Copy" stroke="#FFFFFF" stroke-width="5" cx="879.100505" cy="412" r="27"></circle>
                    <rect id="Rectangle-Copy-4" stroke="#FF67B1" stroke-width="6" transform="translate(10.000000, 43.899495) rotate(45.000000) translate(-10.000000, -43.899495) " x="6" y="39.8994949" width="8" height="8"></rect>
                    <circle id="Oval-Copy-4" stroke="#FF50A2" stroke-width="5" cx="1199.10051" cy="127" r="14"></circle>
                </g>
            </g>
        </g>
    </g>
</svg>