<?xml version="1.0" encoding="UTF-8"?>
<svg width="294px" height="360px" viewBox="0 0 294 360" version="1.1" xmlns="http://www.w3.org/2000/svg" xmlns:xlink="http://www.w3.org/1999/xlink">
    <!-- Generator: Sketch 53.2 (72643) - https://sketchapp.com -->
    <title>leafs</title>
    <desc>Created with Sketch.</desc>
    <defs>
        <polygon id="path-1" points="0 0.248856241 293.360557 0.248856241 293.360557 334 0 334"></polygon>
    </defs>
    <g id="Page-3" stroke="none" stroke-width="1" fill="none" fill-rule="evenodd">
        <g id="b3" transform="translate(-1124.000000, -540.000000)">
            <g id="back" transform="translate(-45.500000, -0.500000)">
                <g id="leafs" transform="translate(1169.500000, 540.500000)">
                    <g id="Group-3" transform="translate(0.000000, 39.000000)">
                        <mask id="mask-2" fill="white">
                            <use xlink:href="#path-1"></use>
                        </mask>
                        <g id="Clip-2"></g>
                        <path d="M12.2791075,268.834618 C-2.65565373,262.301023 -3.38626567,239.615173 6.93445075,227.016546 C17.2573612,214.417918 33.9780627,209.388539 49.6566,204.924062 C65.3373313,200.457395 82.0470627,195.222199 92.1044955,182.411186 C108.658451,161.325892 100.439615,128.859356 114.78857,106.219487 C129.01466,83.7722974 159.230839,79.2136699 185.627212,75.8111209 C212.023585,72.4085719 242.489884,64.8962516 253.078272,40.5266438 C256.94854,31.6217745 257.505824,21.4951405 261.839033,12.8048464 C266.172242,4.11455229 276.922988,-2.93796405 285.446794,1.74108824 C293.79069,6.31942157 293.922331,18.0312843 292.948182,27.4835392 C290.087167,55.2491275 287.226152,83.0147157 284.365137,110.778114 C281.172824,141.751382 276.06951,176.302363 251.320854,195.261611 C229.722824,211.805794 198.194615,211.917461 178.213585,230.373114 C151.966406,254.613539 155.713809,300.98148 127.755287,323.23599 C106.699182,339.996938 74.6180776,335.703245 52.3859731,320.529716 C30.1516746,305.360565 15.4933612,281.691611 1.49325672,258.732069" id="Fill-1" fill="#FFAF0B" mask="url(#mask-2)"></path>
                    </g>
                    <path d="M281.992458,42 C282.561483,84.0650498 250.83888,137.75757 218.663694,165.01089 C198.503945,182.085523 173.40752,193.857434 157.369359,214.82321 C143.477676,232.985525 137.950003,256.065386 126.756245,275.98725 C108.591381,308.309123 66.8262531,329.878923 30,335" id="Stroke-4" stroke="#FFF9F7" stroke-width="0.674"></path>
                    <path d="M152,222.133947 C152,222.133947 233.044861,245.693267 264,220" id="Stroke-6" stroke="#FFF9F7" stroke-width="0.674"></path>
                    <path d="M254,122 C254,122 238.700028,109.250189 253.339493,79" id="Stroke-8" stroke="#FFF9F7" stroke-width="0.674"></path>
                    <path d="M99,306 C99,306 131.015875,327.90429 155,306.875742" id="Stroke-10" stroke="#FFF9F7" stroke-width="0.674"></path>
                    <path d="M68,325 C68,325 44.03449,285.042359 63.8394449,240" id="Stroke-12" stroke="#FFF9F7" stroke-width="0.674"></path>
                    <path d="M277,196.628566 C277,196.628566 244.598269,214.251821 175,195" id="Stroke-14" stroke="#FFF9F7" stroke-width="0.674"></path>
                    <path d="M157,215 C157,215 132.312608,160.027654 150.978895,122" id="Stroke-16" stroke="#FFF9F7" stroke-width="0.674"></path>
                    <path d="M221,107 C221,107 201.096366,147.425287 212.556102,168" id="Stroke-18" stroke="#FFF9F7" stroke-width="0.674"></path>
                    <path d="M291,82 C291,82 290.952233,91.5559354 270,96" id="Stroke-20" stroke="#FFF9F7" stroke-width="0.674"></path>
                    <path d="M286,134 C286,134 272.511628,143.022054 246,136.827808" id="Stroke-22" stroke="#FFF9F7" stroke-width="0.674"></path>
                    <path d="M92.3985012,221 C92.3985012,221 65.0731217,281.16916 109,298" id="Stroke-24" stroke="#FFF9F7" stroke-width="0.674"></path>
                    <path d="M178,269.104624 C178,269.104624 153.542268,277.782974 138,258" id="Stroke-26" stroke="#FFF9F7" stroke-width="0.674"></path>
                    <path d="M132,357 C132,357 84.1185447,356.749979 58,331" id="Stroke-28" stroke="#FFF9F7" stroke-width="0.674"></path>
                    <g id="Group-56" transform="translate(4.000000, 0.000000)">
                        <path d="M13.68972,216.864625 C2.81292,216.050875 -1.91048,202.610875 2.40152,192.922437 C6.71352,183.234 16.58052,176.748063 25.87992,170.81775 C35.18152,164.887438 45.00012,158.285562 49.10312,148.52275 C55.85492,132.453375 44.45892,114.710562 49.49252,98.1686875 C54.48652,81.7668125 73.16452,72.76525 89.59192,65.2468125 C106.01712,57.7305625 124.30352,46.9068125 126.58272,30.109 C127.41652,23.970875 125.88092,17.789 127.05352,11.6836875 C128.22832,5.5761875 133.85812,-0.879125 140.24252,0.153375 C146.49492,1.1661875 148.77192,8.1530625 149.91372,14.0199375 L159.96772,65.7018125 C163.70552,84.9211875 166.87792,106.678063 154.43252,123.174 C143.56892,137.56775 123.20792,144.176187 113.74792,159.3815 C101.32452,179.353375 112.43012,206.3515 98.52612,225.48775 C88.05412,239.899 66.51172,243.98525 49.29892,239.514 C32.08392,235.038375 18.17552,223.901812 4.82372,213.051812" id="Fill-30" fill="#008858"></path>
                        <path d="M137.97256,1.773875 C146.22256,26.868875 135.80776,65.627 120.14376,88.63075 C110.32956,103.044188 96.33316,115.30075 89.90916,131.192938 C84.34316,144.956688 85.10216,159.936688 81.60856,174.199188 C75.94136,197.334188 53.02176,218.922625 30.20776,229.623875" id="Stroke-32" stroke="#FFF9F7" stroke-width="0.439"></path>
                        <path d="M95.62894,61.678125 C95.62894,61.678125 91.89774,88.3809375 107.16354,104.911875" id="Stroke-34" stroke="#FFF9F7" stroke-width="0.439"></path>
                        <path d="M81.1635,169.632563 C81.1635,169.632563 48.4363,114.870688 54.4929,88.57475" id="Stroke-36" stroke="#FFF9F7" stroke-width="0.439"></path>
                        <path d="M135.1625,55.9934688 C135.1625,55.9934688 122.5323,51.5594063 126.5847,30.1087813" id="Stroke-38" stroke="#FFF9F7" stroke-width="0.439"></path>
                        <path d="M69.27844,197.57 C69.27844,197.57 94.30344,204.265938 105.89744,186.402813" id="Stroke-40" stroke="#FFF9F7" stroke-width="0.439"></path>
                        <path d="M52.64094,215.4375 C52.64094,215.4375 29.94134,196.5375 34.16314,165.65875" id="Stroke-42" stroke="#FFF9F7" stroke-width="0.439"></path>
                        <path d="M164.02232,95.691125 C164.02232,95.691125 146.30572,112.659563 97.86172,115.892688" id="Stroke-44" stroke="#FFF9F7" stroke-width="0.439"></path>
                        <path d="M151.94388,23.629625 C151.94388,23.629625 153.71488,29.4024375 140.86688,36.4768125" id="Stroke-46" stroke="#FFF9F7" stroke-width="0.439"></path>
                        <path d="M157.91864,56.1185938 C157.91864,56.1185938 150.94244,64.3545313 132.71544,66.0892188" id="Stroke-48" stroke="#FFF9F7" stroke-width="0.439"></path>
                        <path d="M49.10246,148.522312 C49.10246,148.522312 42.91606,190.240125 74.16706,191.32075" id="Stroke-50" stroke="#FFF9F7" stroke-width="0.439"></path>
                        <path d="M113.74902,159.380625 C113.74902,159.380625 99.61182,169.801875 85.75622,160.844063" id="Stroke-52" stroke="#FFF9F7" stroke-width="0.439"></path>
                        <path d="M100.69928,221.151906 C100.69928,221.151906 69.50108,231.004406 47.73648,221.195656" id="Stroke-54" stroke="#FFF9F7" stroke-width="0.439"></path>
                    </g>
                </g>
            </g>
        </g>
    </g>
</svg>