<?xml version="1.0" encoding="UTF-8"?>
<svg width="501px" height="684px" viewBox="0 0 501 684" version="1.1" xmlns="http://www.w3.org/2000/svg" xmlns:xlink="http://www.w3.org/1999/xlink">
    <!-- Generator: Sketch 53.2 (72643) - https://sketchapp.com -->
    <title>man</title>
    <desc>Created with Sketch.</desc>
    <defs>
        <linearGradient x1="100.00045%" y1="50.0001335%" x2="-0.000153098935%" y2="50.0001335%" id="linearGradient-1">
            <stop stop-color="#4637ED" offset="0%"></stop>
            <stop stop-color="#0083EA" offset="100%"></stop>
        </linearGradient>
        <linearGradient x1="100.00045%" y1="50.0001335%" x2="-0.000153098935%" y2="50.0001335%" id="linearGradient-2">
            <stop stop-color="#4637ED" offset="0%"></stop>
            <stop stop-color="#0083EA" offset="100%"></stop>
        </linearGradient>
        <linearGradient x1="50%" y1="0%" x2="50%" y2="100%" id="linearGradient-3">
            <stop stop-color="#FFD5E2" offset="0%"></stop>
            <stop stop-color="#FF94C2" offset="100%"></stop>
        </linearGradient>
    </defs>
    <g id="Page-3" stroke="none" stroke-width="1" fill="none" fill-rule="evenodd">
        <g id="b3" transform="translate(-40.000000, -154.000000)">
            <g id="man" transform="translate(40.000000, 150.000000)">
                <path d="M187.084352,179 C187.084352,179 180.701343,183.496724 183.894359,190.994341 C187.084352,198.491958 201.07799,220.732427 219.9821,219.981434 C220.756165,219.950656 196.167517,179 196.167517,179 L187.084352,179" id="Fill-2707" fill="#442B29"></path>
                <path d="M158,587.891651 C158,587.891651 133.938658,566.652166 126.235212,570.456117 C116.823651,575.10539 62.9549282,627.250835 65.0600648,651.819918 C65.9218167,661.878646 77.7770597,653.258182 98.9053681,631.608198 C120.033676,609.961256 146.643342,619.238517 146.643342,619.238517 L158,587.891651" id="Fill-2708" fill="url(#linearGradient-1)"></path>
                <path d="M217,622.470716 L188.205149,605 C188.205149,605 113.574654,675.771519 125.237194,685.204224 C134.080956,692.362836 139.276171,685.94477 160.218713,663.978323 C181.161255,642.008789 207.692542,654.638185 207.692542,654.638185 L217,622.470716" id="Fill-2709" fill="url(#linearGradient-2)"></path>
                <path d="M278.441768,440 C278.441768,440 383.299947,446.621123 397.261917,441.953323 C397.261917,441.953323 417.753305,643.634677 381.289252,665.393288 C344.8252,687.161069 263,655.290421 263,655.290421 L285.093231,611.770142 L332.72747,608.658275 L332.72747,530.938033 L329.313256,531.714471 L278.441768,440" id="Fill-2711" fill="#191D23"></path>
                <path d="M146.554586,577.731962 C146.554586,577.731962 120.160733,588.627122 128.701178,615.08461 C128.701178,615.08461 218.795695,685.89397 262.636849,669.551229 C287.198643,660.400519 313.583335,590.552138 332.041322,530.882773 L397,441.95562 C397,441.95562 366.364933,443.49196 356.142048,443.452174 C336.612307,443.378724 278.09026,440 278.09026,440 C278.09026,440 247.525422,600.299633 236.633836,604.18945 C225.742249,608.076207 146.554586,577.731962 146.554586,577.731962" id="Fill-2712" fill="#252D35"></path>
                <path d="M303,238.845789 C303,238.845789 365.88101,179.661263 376.746883,164.084132 C387.612756,148.510062 410.904619,96.3361654 439.621787,74.5294059 L425.650943,44.940206 C425.650943,44.940206 434.190377,40.2695167 439.621787,52.7257092 C439.621787,52.7257092 459.802573,12.2331296 464.458504,13.0110674 C469.12054,13.7890051 455.149696,44.1592055 455.149696,44.1592055 C455.149696,44.1592055 474.561109,16.1228184 479.992519,16.9068817 C485.420876,17.6848195 466.015569,48.4225495 466.015569,48.4225495 C466.015569,48.4225495 487.750367,23.1365093 490.858392,26.2513231 C493.963363,29.366137 473.779523,48.4225495 473.779523,48.4225495 C473.779523,48.4225495 495.511269,35.905102 497.840761,40.0306224 C500.173305,44.1592055 476.109015,55.0625852 476.109015,55.0625852 C476.109015,55.0625852 473.779523,72.9735304 459.0332,80.7590335 C459.0332,80.7590335 429.830594,159.903482 403.436813,185.602993 L318.650032,274 L303,238.845789" id="Fill-2713" fill="#FFDED6"></path>
                <path d="M227.3283,270 C227.3283,270 167.564714,332.279276 151.887263,342.990676 C136.209811,353.695976 83.8270923,376.491643 61.7549307,404.986226 L32.2957767,390.745036 C32.2957767,390.745036 27.5456834,399.235446 39.9522779,404.778771 C39.9522779,404.778771 -0.725181593,424.566338 0.0098425206,429.23408 C0.741804034,433.895721 31.2422421,420.21588 31.2422421,420.21588 C31.2422421,420.21588 3.02650399,439.350573 3.7554029,444.781018 C4.48430181,450.217565 35.398191,431.11338 35.398191,431.11338 C35.398191,431.11338 9.91122985,452.594147 12.9983311,455.72428 C16.0823698,458.860515 35.3277512,438.868544 35.3277512,438.868544 C35.3277512,438.868544 22.6087714,460.468293 26.7157186,462.835723 C30.8196033,465.200102 41.9460308,441.260381 41.9460308,441.260381 C41.9460308,441.260381 59.874494,439.103457 67.8035666,424.432102 C67.8035666,424.432102 142.766838,394.726346 168.71319,368.59004 L262,302.744365 L227.3283,270" id="Fill-2714" fill="#FFDED6"></path>
                <path d="M249.225199,244.201222 L219,273.847889 L226.665012,307.275189 C226.665012,307.275189 256.446174,378.913886 260.944737,396.390106 C267.942161,423.566474 256.623789,465 256.623789,465 C256.623789,465 307.106302,460.802025 353.041255,459.240059 C398.973146,457.681161 414,442.853225 414,442.853225 C414,442.853225 374.174396,309.935748 346.680795,272.779983 C319.178008,235.630356 309.176437,224 309.176437,224 L268.68937,232.86853 L249.225199,244.201222" id="Fill-2715" fill="#008858"></path>
                <path d="M338.269803,269 L369.803179,248.909784 C369.803179,248.909784 374.620267,227.385644 336.592561,202 L292,229.859086 L338.269803,269" id="Fill-2716" fill="#008858"></path>
                <path d="M226.176209,271.635502 C208.96325,274.082688 177.507926,318.289821 174,318.203195 C174,318.203195 196.137489,354.811986 213.674069,356 C213.674069,356 290.845398,262.443858 226.176209,271.635502" id="Fill-2717" fill="#008858"></path>
                <path d="M286,242.559728 C286,242.559728 260.933734,223.934044 261.802413,216.504459 C262.022641,214.636414 265.497354,211.597038 266.399679,208.901456 C271.259996,194.401291 247.824031,157.028227 233.429663,149.154448 C222.103198,142.957043 227.067511,142.409407 203.230854,156.498846 C179.394196,170.588284 192.974943,194.955011 203.619312,207.553665 C213.682523,219.464732 225.207805,224.569909 235.576889,225.427871 L250.319952,258 L286,242.559728" id="Fill-2718" fill="#FFDED6"></path>
                <path d="M241.258006,269.83634 C236.550203,258.181766 245.464656,243.498596 261.170496,237.036776 C276.88241,230.568824 293.426543,234.77146 298.143458,246.426034 C302.848224,258.074478 287.042154,275.590058 278.218819,279.222533 C269.395484,282.851943 245.962772,281.484784 241.258006,269.83634" id="Fill-2719" fill="#FFDED6"></path>
                <path d="M203.715668,209.008876 C203.715668,209.008876 195.9057,208.570551 195.035639,213.854311 C194.168518,219.138071 209.359304,219.138071 215,215.175251 L203.715668,209.008876" id="Fill-2720" fill="#FFDED6"></path>
                <path d="M205.408672,205.367228 C201.831323,198.995607 196.453444,193.25465 196.828259,186.323511 C201.834747,186.360306 205.047958,180.151124 202.768108,174.846488 C201.87453,172.761429 200.35361,170.973798 199.386586,168.916336 C198.416503,166.861939 198.159446,164.16976 199.646704,163.010713 C200.34749,162.461852 201.299212,162.366798 202.211152,162.271743 C209.632139,161.508244 222.338093,163.737417 229.165401,161.204684 C235.668328,158.791535 246.967037,153.001072 247,145 C247.04602,133.829604 245.092538,131.130113 235,121.036637 C226,112.035801 217.184715,120.46018 213.714447,121.036637 C208.408059,121.922787 207.125834,129.008921 206.740249,134.945207 C203.031286,131.403673 197.562707,131.973998 194.334195,134.853219 C191.108743,137.729374 189.584763,142.304238 188.177071,146.722723 C186.769378,151.141208 185.282121,155.728338 182.099512,158.659685 C179.131117,161.397858 174.439829,163.467586 175.054929,168.119107 C175.786317,173.662911 183.014512,175.634518 186.356251,180.359629 C185.536117,179.200582 184.835331,186.602541 185.309663,187.859709 C186.735716,191.640411 190.29473,194.139416 192.868359,197.033968 C198.352239,203.197157 201.032975,209.403273 208.291771,213 C207.866378,210.298254 206.767395,207.787252 205.408672,205.367228 Z" id="Fill-2721" fill="#442B29"></path>
                <path d="M253.578157,191 L235,200.85356 C235,200.85356 257.314649,217.464925 253.578157,191" id="Fill-2722" fill="#FFFFFE"></path>
                <path d="M228.68333,194.724427 C229.697027,196.680723 228.196388,199.509253 225.332923,201.041893 C222.469459,202.574532 219.327305,202.231869 218.31667,200.275573 C217.302973,198.319277 218.803612,195.490747 221.667077,193.958107 C224.530541,192.425468 227.672695,192.768131 228.68333,194.724427" id="Fill-2723" fill="#ED9E90"></path>
                <path d="M255.68333,175.72357 C256.697027,177.679579 255.196388,180.507694 252.332923,182.043223 C249.469459,183.575638 246.327305,183.22991 245.31667,181.273901 C244.302973,179.321007 245.803612,176.492892 248.667077,174.960478 C251.530541,173.424948 254.672695,173.767561 255.68333,175.72357" id="Fill-2724" fill="#ED9E90"></path>
                <path d="M240.226251,189.964962 C240.140755,189.854468 240.485794,189.384079 241.28885,188.787411 C242.049158,188.174959 243.377406,187.521466 244.363669,186.42284 C245.340771,185.355784 245.69497,183.13959 244.198783,182.82705 C242.641526,182.280894 240.879688,184.124565 238.855255,185.876684 C238.351436,186.306032 237.856778,186.732223 237.368227,187.1521 C236.907157,187.584605 235.942269,188.22547 234.940739,188.096035 C233.032336,187.780337 232.223173,186.460723 231.487293,185.583085 C230.02164,183.635234 229.11782,181.598988 228.617055,179.837398 C227.624686,176.276334 228.070489,173.978059 228.308657,174.000158 C228.644536,173.981216 228.75446,176.191096 230.015533,179.322811 C230.647596,180.879198 231.600271,182.647102 232.983481,184.31714 C233.655239,185.163208 234.504096,185.952451 235.108678,185.977707 C235.365168,185.990335 235.560588,185.90194 236.039979,185.488376 C236.522423,185.068499 237.010974,184.642308 237.508686,184.21296 C238.525483,183.360578 239.407928,182.498725 240.574344,181.696854 C241.707172,180.907611 243.325497,180.40881 244.769777,180.917082 C246.317873,181.333802 247.221693,183.199572 246.952989,184.49393 C246.778943,185.813544 246.14688,186.785892 245.426267,187.49621 C243.899545,188.812667 242.537709,189.131521 241.679691,189.5293 C240.800299,189.873409 240.320908,190.088083 240.226251,189.964962" id="Fill-2725" fill="#E26559"></path>
                <path d="M236,226.699489 C236,226.699489 248.314933,226.763676 255,223 C255,223 249.344631,229.351568 238.033893,231 L236,226.699489" id="Fill-2726" fill="#E98E82"></path>
                <path d="M240.991728,172.889442 C240.887599,173.486364 239.281037,173.670753 237.582247,174.458315 C235.862631,175.189623 234.619033,176.274083 234.137064,175.936556 C233.64617,175.661535 234.461352,173.50824 236.784916,172.480034 C239.10848,171.442453 241.146434,172.326897 240.991728,172.889442" id="Fill-2727" fill="#252D35"></path>
                <path d="M218.146842,187.935855 C217.64818,187.579572 218.430328,185.505139 220.329343,183.434036 C222.252266,181.316316 224.708006,180.61041 224.967584,181.199775 C225.240823,181.779151 223.744837,183.12104 222.057583,184.982369 C220.349836,186.837039 218.68649,188.332095 218.146842,187.935855" id="Fill-2728" fill="#252D35"></path>
                <path d="M208.773637,184.73604 C207.828957,184.042484 207.094874,181.089661 210.699101,177.106923 C214.339431,173.034885 218.403964,173.749278 218.891347,174.883376 C219.411824,175.993661 218.060991,177.574254 214.868933,181.152171 C211.628739,184.721157 209.793531,185.492106 208.773637,184.73604" id="Fill-2729" fill="#442B29"></path>
                <path d="M229.160147,169.281527 C228.630531,168.35561 229.215252,165.660736 233.98486,163.783183 C238.821818,161.842759 242.045436,163.983227 241.999516,165.094898 C241.990332,166.200854 240.168819,166.975309 235.922705,168.684254 C231.636792,170.361763 229.729561,170.290319 229.160147,169.281527" id="Fill-2730" fill="#442B29"></path>
                <g id="phone" transform="translate(423.861013, 0.700054)" stroke="#000000" stroke-width="6">
                    <rect id="Rectangle-Copy-5" fill="#FFFFFF" transform="translate(40.000000, 41.000000) rotate(-43.000000) translate(-40.000000, -41.000000) " x="23" y="7" width="34" height="68" rx="8"></rect>
                    <rect id="Rectangle-Copy-5" fill="url(#linearGradient-3)" transform="translate(40.000000, 41.000000) rotate(-43.000000) translate(-40.000000, -41.000000) " x="23" y="7" width="34" height="68" rx="8"></rect>
                </g>
            </g>
        </g>
    </g>
</svg>