<?xml version="1.0" encoding="UTF-8"?>
<svg width="467px" height="775px" viewBox="0 0 467 775" version="1.1" xmlns="http://www.w3.org/2000/svg" xmlns:xlink="http://www.w3.org/1999/xlink">
    <!-- Generator: Sketch 53.2 (72643) - https://sketchapp.com -->
    <title>woman</title>
    <desc>Created with Sketch.</desc>
    <defs>
        <linearGradient x1="31.4374176%" y1="10.6457546%" x2="31.4374176%" y2="89.6503452%" id="linearGradient-1">
            <stop stop-color="#4637ED" offset="0%"></stop>
            <stop stop-color="#0083EA" offset="100%"></stop>
        </linearGradient>
        <linearGradient x1="4.89834628%" y1="50.0001335%" x2="89.5234957%" y2="50.0001335%" id="linearGradient-2">
            <stop stop-color="#4637ED" offset="0%"></stop>
            <stop stop-color="#0083EA" offset="100%"></stop>
        </linearGradient>
        <linearGradient x1="50%" y1="0%" x2="50%" y2="100%" id="linearGradient-3">
            <stop stop-color="#FFD5E2" offset="0%"></stop>
            <stop stop-color="#FF94C2" offset="100%"></stop>
        </linearGradient>
    </defs>
    <g id="Page-3" stroke="none" stroke-width="1" fill="none" fill-rule="evenodd">
        <g id="b3" transform="translate(-638.000000, -68.000000)">
            <g id="woman" transform="translate(634.000000, 64.000000)">
                <g id="Group" transform="translate(174.000000, 578.500000) scale(-1, 1) translate(-174.000000, -578.500000) translate(16.000000, 378.000000)">
                    <path d="M210.666667,342.575691 C210.666667,342.575691 181.215853,408.823575 177.772752,396.558175 C174.334997,384.286885 175.471113,354.820477 177.318305,350.615197 C179.16817,346.406972 191.208332,327.824818 191.208332,327.824818 L210.666667,342.575691" id="Fill-2772" fill="#F1B0A0"></path>
                    <path d="M211.484177,31.7147329 L237.905312,20.4890511 C237.905312,20.4890511 316.324207,174.44001 315.998991,217.157052 C315.673776,259.868265 208.297589,345.386861 208.297589,345.386861 L190.185185,328.813535 C190.185185,328.813535 241.081408,245.667136 258.803029,224.087133 C267.665151,213.292759 204.221905,160.413736 194.612312,109.530973 C185.002719,58.6482094 211.484177,31.7147329 211.484177,31.7147329" id="Fill-2773" fill="url(#linearGradient-1)"></path>
                    <path d="M52.6666667,308.815944 C52.6666667,308.815944 -2.21295519,352.564317 0.0692573491,340.286548 C2.35945896,327.997259 16.1752333,302.917546 19.637166,300.126751 C23.1070877,297.338837 41.8467956,286.846715 41.8467956,286.846715 L52.6666667,308.815944" id="Fill-2774" fill="#F1B0A0"></path>
                    <path d="M142.900771,85.5925707 L222.175703,35.1240876 C222.175703,35.1240876 225.324678,210.435968 206.292524,248.342108 C187.26037,286.248248 52.9448537,310.262774 52.9448537,310.262774 L43.8888889,286.692312 C43.8888889,286.692312 126.754291,232.458048 152.19876,221.844328 C177.643228,211.224766 142.900771,85.5925707 142.900771,85.5925707" id="Fill-2775" fill="#326DF6"></path>
                    <path d="M186.753288,0 C186.753288,0 127.655981,22.5776956 138.954154,84.5123932 C150.249634,146.447091 169.079025,158.058394 169.079025,158.058394 L202.970851,98.0613346 L237,19.4896757 L202.970851,14.8358584 L186.753288,0" id="Fill-2776" fill="#326DF6"></path>
                    <path d="M26.3333333,295.627737 C26.3333333,295.627737 19.089662,299.42029 17.1988507,301.696988 C15.3104605,303.973685 -2.01188858,339.995649 0.193654396,344.549045 C2.39677636,349.09661 19.7699667,333.649464 19.7699667,333.649464 C19.7699667,333.649464 5.23178275,336.963939 26.3333333,295.627737" id="Fill-2792" fill="#323232"></path>
                    <path d="M182.970019,342.459854 C182.970019,342.459854 177.424517,349.28439 176.568552,352.414529 C175.715197,355.541699 174.183334,397.914404 178.181315,400.759445 C182.179295,403.607456 193.111111,380.226443 193.111111,380.226443 C193.111111,380.226443 180.044603,391.873888 182.970019,342.557856" id="Fill-2793" fill="#323232"></path>
                </g>
                <path d="M160.467909,112.08727 C178.573569,112.08727 187.263037,128.64449 195.909856,130.088519 C213.408728,133.013295 236.452029,138.245631 253.559048,133.537239 C284.445259,125.032798 293.241484,90.7519993 325.268163,91.0013534 C338.456651,91.1069621 360.663608,97.138577 373.51288,100.127892 C389.467734,103.838868 406.086399,103.439901 422.254725,106.088922 C438.417203,108.740876 455.114823,115.259285 464.250264,128.897486 C475.087633,145.082033 472.113644,167.914066 460.744056,183.726048 C449.371544,199.538031 431.156224,209.166032 412.499338,214.622486 C399.483382,218.427336 385.613538,220.627519 374.352148,228.199082 C362.959166,235.858653 357.793711,253.539141 347.175662,262.251866 C320.541349,284.10115 276.812897,272.487301 249.298377,251.758643 C242.385387,246.548609 235.975372,240.508373 228.208493,236.694723 C196.617531,221.181965 151.185968,241.719941 123.978497,213.493059 C96.34993,184.832007 76.7071488,104.766103 140.910059,120.858058 C141.878186,115.010866 148.39747,112.08727 160.467909,112.08727 Z" id="Fill-2733" fill="url(#linearGradient-2)"></path>
                <path d="M345.119286,178.378339 C347.802154,181.753936 346.010643,178.125098 349.051228,183 C361.688565,182.562583 370.171121,172.067442 370.171121,172.067442 C370.171121,172.067442 390.232527,172.588314 389.997959,169.074585 C389.769255,165.552224 370.769268,166.867354 370.769268,166.867354 C370.769268,166.867354 390.868792,160.668688 389.766323,157.577989 C388.669719,154.484411 365.465105,164.346448 365.465105,164.346448 C365.465105,164.346448 388.88083,150.078582 385.420956,147.793651 C381.964014,145.50872 359.433782,157.963607 359.433782,157.963607 C359.433782,157.963607 379.014324,142.179168 376.079296,140.141723 C373.150131,138.107157 345.993051,158.651388 345.993051,158.651388 C346.388884,148.547621 339,148.901583 339,148.901583 L339.30787,173.578258 C339.30787,173.578258 343.881941,176.824356 345.119286,178.378339" id="Fill-2735" fill="#F1B0A0"></path>
                <path d="M47.5229006,65.0043582 C43.2330393,65.7920866 46.5624402,64.3015522 40.9958693,66 C31.8568542,57.2852059 33.0691426,43.5922028 33.0691426,43.5922028 C33.0691426,43.5922028 17.7427713,30.6898564 20.2844775,28.16854 C22.8408249,25.6413668 36.1379308,39.2377341 36.1379308,39.2377341 C36.1379308,39.2377341 25.3210382,21.196119 28.2287735,19.5708802 C31.1335807,17.9514981 41.8099181,40.839546 41.8099181,40.839546 C41.8099181,40.839546 33.953469,14.4579667 38.0822775,15.008498 C42.2052295,15.5648861 50.6209711,39.972752 50.6209711,39.972752 C50.6209711,39.972752 46.6649283,14.9850712 50.2256596,15.3803995 C53.7863909,15.7727995 60.1962929,49.4167073 60.1962929,49.4167073 C66.7262524,41.4632863 72,46.6318386 72,46.6318386 L55.446699,64.8345134 C55.446699,64.8345134 49.4936014,64.6441701 47.5229006,65.0043582" id="Fill-2736" fill="#F1B0A0"></path>
                <path d="M151.966576,169.06416 C146.41246,168.145306 132.990502,177.161933 126.275124,191.85767 C122.518618,200.079932 119.929238,208.435576 124.245848,221.815278 C126.275124,228.107946 130.530152,228.893418 131.47441,231.712225 C132.679659,235.2839 128.703217,246.532453 128.703217,246.532453 L144.547403,253 C145.579636,245.272733 146.74383,237.495078 154.538361,234.139779 C157.453245,232.885987 160.570471,232.088659 163.321137,230.496967 C170.746175,226.193173 174.710887,216.785292 177.757733,209.081738 C180.033337,203.328526 165.881191,171.370188 151.966576,169.06416" id="Fill-2737" fill="#F1B0A0"></path>
                <path d="M110,262.941597 C110,251.370974 113.736364,243 125.347434,243 C136.958504,243 153,247.058654 153,258.632159 C153,270.205665 143.852848,289 132.241778,289 C120.6336,289 110,274.517985 110,262.941597" id="Fill-2741" fill="#F1B0A0"></path>
                <path d="M120,241.242788 C120,241.242788 83.1854528,201.834054 75.8207737,163.233391 C68.4531452,124.632727 55.9417441,62 55.9417441,62 L41.9467892,65.9820062 C41.9467892,65.9820062 35.3165135,151.582011 41.9467892,164.692001 C48.5711662,177.80199 80.9527487,265.079397 90.8155789,288 L120,241.242788" id="Fill-2742" fill="#F1B0A0"></path>
                <path d="M158,271.792108 C158,271.792108 160.806027,259.506673 206.992815,242.809359 C253.176678,226.112045 340.303951,172 340.303951,172 L349,181.93477 C349,181.93477 301.657444,236.576007 274.115079,246.162856 C246.572713,255.749705 188.073349,293.535747 182.054583,296.561788 C172.954747,301.134472 173.065934,306.894183 158,271.792108" id="Fill-2743" fill="#F1B0A0"></path>
                <path d="M94.7279936,264.009453 C88.2159414,274.428258 83,289.41536 83,310.695393 C83,310.695393 83.0233037,388.26607 91.7301657,402.3773 C91.7301657,402.3773 105.884278,406.028375 123.53104,402.3773 C142.034214,398.541323 159.943142,384.791091 159.943142,384.791091 L189,296.892333 L185.524829,255.709142 L146.013328,248.019578 C146.013328,248.019578 157.3506,301.388673 116.341834,278.446185 C108.371953,273.987999 128.063618,243.70814 128.063618,243.70814 L119.942263,242 C119.942263,242 105.546528,246.700592 94.7279936,264.009453 Z" id="Fill-2744" fill="#323232"></path>
                <path d="M87.3301472,287 L69,249.171601 C69,249.171601 71.6282304,226.225839 105.278966,218 C105.278966,218 108.681586,229.567314 112.412735,233.986777 C116.14095,238.406241 127,243.104645 127,243.104645 L87.3301472,287" id="Fill-2745" fill="#323232"></path>
                <path d="M157.030022,303 L214.893694,291.035756 C214.893694,291.035756 224.954536,270.009471 201.099712,245 C201.099712,245 155.967155,247.746518 150.125751,248.237073 C144.371707,248.721752 148.323245,253.18668 148.323245,253.18668 L157.030022,303" id="Fill-2746" fill="#323232"></path>
                <path d="M176.714166,209.135232 C176.714166,209.135232 182.756742,203.454238 186.47373,207.386622 C190.190719,211.319006 173,217 173,217 L176.714166,209.135232" id="Fill-2748" fill="#F1B0A0"></path>
                <path d="M144.473302,203.814238 C144.456614,204.04744 142.76002,204.208461 140.170628,203.353385 C139.528147,203.128511 138.774414,202.831456 138.070745,202.187373 C137.720301,201.868107 137.400451,201.437793 137.200198,200.924193 C136.919286,200.205152 136.941537,199.391719 137.219667,198.769846 C137.305887,198.64214 137.303106,198.345084 137.464421,198.339532 L137.965056,198.325651 C138.290468,198.278455 138.671506,198.386728 139.046982,198.456133 C139.728401,198.586615 139.945342,198.564406 140.434852,198.59772 C141.28593,198.617154 142.175946,198.531091 143.057619,198.333979 C146.67053,197.576071 149.093044,194.949767 150.177751,192.789868 C151.318085,190.616088 151.415431,188.980894 151.718593,189.000328 C151.929972,188.972566 152.355511,190.710479 151.415431,193.334007 C150.937047,194.616621 150.105438,196.09357 148.762069,197.387288 C147.427044,198.678231 145.577478,199.738747 143.474814,200.196823 C142.426264,200.430025 141.37215,200.516088 140.359756,200.46334 C139.917529,200.443907 139.222204,200.355068 139.016388,200.310648 C138.83004,200.277333 138.855072,200.23569 138.821697,200.260676 C138.799446,200.28011 138.78554,200.318977 138.788321,200.368949 C138.863416,200.621585 138.9997,200.857563 139.19161,201.074109 C139.578211,201.507199 140.137252,201.834793 140.685169,202.106862 C142.926898,203.200693 144.515021,203.528287 144.473302,203.814238" id="Fill-2750" fill="#E26559"></path>
                <path d="M130,206 L151,214.20915 C151,214.20915 132.542151,226.835985 130,206" id="Fill-2751" fill="#FFFFFE"></path>
                <path d="M161.770236,210.659526 C161.033616,212.179364 158.750093,212.447571 156.66489,211.254514 C154.585354,210.061456 153.491756,207.863394 154.23121,206.340474 C154.96783,204.820636 157.24852,204.552429 159.333723,205.745486 C161.413259,206.938544 162.506856,209.136606 161.770236,210.659526" id="Fill-2752" fill="#ED9E90"></path>
                <path d="M136.840863,196.394275 C136.223225,198.019448 134.005847,198.489225 131.885845,197.44175 C129.763061,196.397449 128.544477,194.229494 129.159334,192.604321 C129.776972,190.979148 131.994349,190.512546 134.117134,191.556846 C136.234353,192.604321 137.455719,194.769102 136.840863,196.394275" id="Fill-2753" fill="#ED9E90"></path>
                <path d="M129,228 C129,228 136.344078,234.152584 144,232.168526 C144,232.168526 141.359336,236.133779 131.194354,234.679376 C131.194354,234.679376 132.041198,230.313303 129,228" id="Fill-2754" fill="#E98E82"></path>
                <path d="M161.402233,195.734564 C161.402235,196.544629 160.089992,197.198228 158.474921,197.198224 C156.854803,197.198219 155.55265,196.544611 155.552647,195.734547 C155.552645,194.927005 156.854794,194.273406 158.474912,194.27341 C160.089983,194.273415 161.40223,194.927023 161.402233,195.734564" id="Fill-2755" fill="#252D35" transform="translate(158.477440, 195.735817) rotate(20.000000) translate(-158.477440, -195.735817) "></path>
                <path d="M146.09009,191.446392 C146.090092,192.256457 144.777849,192.910057 143.162778,192.910052 C141.542659,192.910047 140.240506,192.25644 140.240504,191.446375 C140.240502,190.638834 141.542651,189.985234 143.162769,189.985239 C144.77784,189.985244 146.090087,190.638851 146.09009,191.446392" id="Fill-2755-Copy" fill="#252D35" transform="translate(143.165297, 191.447646) rotate(20.000000) translate(-143.165297, -191.447646) "></path>
                <path d="M167.316161,194.375782 C166.792623,194.595142 165.780643,193.372568 164.24805,192.381052 C162.74763,191.345665 161.226738,190.880616 161.229661,190.310277 C161.179939,189.766261 163.303336,189.327543 165.362392,190.710985 C167.430222,192.082728 167.839698,194.211994 167.316161,194.375782" id="Fill-2757" fill="#67477F" transform="translate(164.375718, 192.094682) rotate(14.000000) translate(-164.375718, -192.094682) "></path>
                <path d="M137.00048,185.060554 C136.966713,184.698554 138.719753,184.240554 141.066519,184.286554 C143.455493,184.322554 145.219788,185.146554 144.977796,185.490554 C144.749872,185.838554 143.086876,185.688554 140.990545,185.660554 C138.882957,185.616554 137.034246,185.454554 137.00048,185.060554" id="Fill-2758" fill="#67477F"></path>
                <g id="phone" transform="translate(0.340808, 0.827774)" stroke="#000000" stroke-width="6">
                    <rect id="Rectangle" fill="#FFFFFF" transform="translate(42.000000, 39.000000) rotate(51.000000) translate(-42.000000, -39.000000) " x="25" y="5" width="34" height="68" rx="8"></rect>
                    <rect id="Rectangle" fill="url(#linearGradient-3)" transform="translate(42.000000, 39.000000) rotate(51.000000) translate(-42.000000, -39.000000) " x="25" y="5" width="34" height="68" rx="8"></rect>
                </g>
            </g>
        </g>
    </g>
</svg>