<?xml version="1.0" encoding="UTF-8"?>
<svg width="1185px" height="248px" viewBox="0 0 1185 248" version="1.1" xmlns="http://www.w3.org/2000/svg" xmlns:xlink="http://www.w3.org/1999/xlink">
    <!-- Generator: Sketch 53.2 (72643) - https://sketchapp.com -->
    <title>Clouds</title>
    <desc>Created with Sketch.</desc>
    <defs>
        <linearGradient x1="100.00045%" y1="50.0001335%" x2="-0.000153098935%" y2="50.0001335%" id="linearGradient-1">
            <stop stop-color="#4637ED" offset="0%"></stop>
            <stop stop-color="#0083EA" offset="100%"></stop>
        </linearGradient>
        <linearGradient x1="100.00045%" y1="50.0001335%" x2="-0.000153098935%" y2="50.0001335%" id="linearGradient-2">
            <stop stop-color="#4637ED" offset="0%"></stop>
            <stop stop-color="#0083EA" offset="100%"></stop>
        </linearGradient>
        <linearGradient x1="100.00045%" y1="50.0001335%" x2="-0.000153098935%" y2="50.0001335%" id="linearGradient-3">
            <stop stop-color="#4637ED" offset="0%"></stop>
            <stop stop-color="#0083EA" offset="100%"></stop>
        </linearGradient>
        <linearGradient x1="100.00045%" y1="50.0001335%" x2="-0.000153098935%" y2="50.0001335%" id="linearGradient-4">
            <stop stop-color="#4637ED" offset="0%"></stop>
            <stop stop-color="#0083EA" offset="100%"></stop>
        </linearGradient>
    </defs>
    <g id="Page-1" stroke="none" stroke-width="1" fill="none" fill-rule="evenodd">
        <g id="b1" transform="translate(-248.000000, -54.000000)">
            <g id="Clouds">
                <path d="M1284.36094,255.302552 C1277.93581,264.698443 1276.61897,277.072023 1279.32972,288.159971 L1279.32972,288.159971 C1280.48421,292.8828 1282.60789,297.774835 1286.79784,300.158644 L1286.79784,300.158644 C1289.60699,301.759463 1292.91959,301.991706 1296.17643,302 L1296.17643,302 L1296.59953,302 C1296.99475,301.998341 1297.38832,301.995023 1297.78026,301.991706 L1297.78026,301.991706 L1430.98948,299.707429 C1432.34896,296.650115 1432.9918,293.345627 1433,290.024551 L1433,290.024551 L1433,289.918383 C1432.98688,280.172468 1427.52601,270.303796 1418.73121,266.100196 L1418.73121,266.100196 C1406.90588,260.450054 1391.09067,266.010617 1385.2805,277.864967 L1385.2805,277.864967 C1384.9476,265.191131 1375.07047,253.42636 1362.76137,251.040891 L1362.76137,251.040891 C1350.45062,248.657082 1336.97555,255.89809 1332.03945,267.548398 L1332.03945,267.548398 C1333.64327,256.243136 1324.76484,244.91631 1313.72174,242.537477 L1313.72174,242.537477 C1312.03428,242.174182 1310.32715,242 1308.62329,242 L1308.62329,242 C1299.17089,242 1289.80378,247.34325 1284.36094,255.302552" id="4cl" fill="url(#linearGradient-1)" transform="translate(1355.500000, 272.000000) scale(-1, 1) translate(-1355.500000, -272.000000) "></path>
                <path d="M1183.80149,149.976914 C1178.95154,157.023833 1177.95754,166.304017 1180.00373,174.619978 L1180.00373,174.619978 C1180.87518,178.1621 1182.47821,181.831126 1185.64095,183.618983 L1185.64095,183.618983 C1187.7614,184.819597 1190.26188,184.993779 1192.72028,185 L1192.72028,185 L1193.03964,185 C1193.33797,184.998756 1193.63506,184.996268 1193.9309,184.993779 L1193.9309,184.993779 L1294.48238,183.280572 C1295.50857,180.987586 1295.99381,178.509221 1296,176.018414 L1296,176.018414 L1296,175.938787 C1295.9901,168.629351 1291.86802,161.227847 1285.22937,158.075147 L1285.22937,158.075147 C1276.30315,153.83754 1264.36522,158.007963 1259.97947,166.898725 L1259.97947,166.898725 C1259.72819,157.393348 1252.27255,148.56977 1242.98116,146.780669 L1242.98116,146.780669 C1233.68854,144.992812 1223.51703,150.423567 1219.79107,159.161298 L1219.79107,159.161298 C1221.00169,150.682352 1214.29991,142.187232 1205.96415,140.403108 L1205.96415,140.403108 C1204.6904,140.130637 1203.40178,140 1202.11564,140 L1202.11564,140 C1194.98061,140 1187.90995,144.007437 1183.80149,149.976914" id="3cl" fill="url(#linearGradient-2)"></path>
                <path d="M254.607172,67.7459703 C247.933322,77.4550582 246.565506,90.2410904 249.381196,101.698637 L249.381196,101.698637 C250.580377,106.578894 252.786257,111.633996 257.138397,114.097266 L257.138397,114.097266 C260.05629,115.751445 263.497122,115.991429 266.880038,116 L266.880038,116 L267.319511,116 C267.730026,115.998286 268.138837,115.994857 268.545945,115.991429 L268.545945,115.991429 L406.911654,113.63101 C408.323757,110.471785 408.991483,107.057148 409,103.62537 L409,103.62537 L409,103.515663 C408.986373,93.4448837 403.314111,83.2472559 394.178874,78.9035362 L394.178874,78.9035362 C381.895788,73.0650557 365.468373,78.8109707 359.433291,91.0604661 L359.433291,91.0604661 C359.087505,77.9641682 348.828036,65.8072382 336.042452,63.3422544 L336.042452,63.3422544 C323.255164,60.8789848 309.258475,68.3613592 304.131296,80.4000111 L304.131296,80.4000111 C305.797203,68.7179076 296.575094,57.0135199 285.104521,54.5553927 L285.104521,54.5553927 C283.351741,54.1799884 281.57852,54 279.808706,54 L279.808706,54 C269.990413,54 260.260696,59.5213581 254.607172,67.7459703" id="2cl" fill="url(#linearGradient-3)"></path>
                <path d="M621.611373,273.538113 C617.963555,278.862451 617.215929,285.874146 618.75494,292.157317 L618.75494,292.157317 C619.410392,294.833587 620.616091,297.60574 622.9949,298.956565 L622.9949,298.956565 C624.589774,299.863695 626.470476,299.9953 628.319524,300 L628.319524,300 L628.559732,300 C628.784113,299.99906 629.007563,299.99718 629.230082,299.9953 L629.230082,299.9953 L704.858544,298.700876 C705.630377,296.968398 705.995345,295.095856 706,293.213912 L706,293.213912 L706,293.15375 C705.992552,287.631065 702.892185,282.038818 697.899012,279.656778 L697.899012,279.656778 C691.185275,276.455031 682.206316,279.606016 678.907637,286.323481 L678.907637,286.323481 C678.718636,279.141641 673.110976,272.474937 666.122582,271.123172 L666.122582,271.123172 C659.133257,269.772346 651.482893,273.875584 648.68046,280.477425 L648.68046,280.477425 C649.591018,274.071111 644.550362,267.652575 638.280732,266.30457 L638.280732,266.30457 C637.322691,266.098703 636.353477,266 635.386125,266 L635.386125,266 C630.019605,266 624.701499,269.027842 621.611373,273.538113" id="1cl" fill="url(#linearGradient-4)"></path>
            </g>
        </g>
    </g>
</svg>