<?xml version="1.0" encoding="UTF-8"?>
<svg width="1111px" height="313px" viewBox="0 0 1111 313" version="1.1" xmlns="http://www.w3.org/2000/svg" xmlns:xlink="http://www.w3.org/1999/xlink">
    <!-- Generator: Sketch 53.2 (72643) - https://sketchapp.com -->
    <title>Ground</title>
    <desc>Created with Sketch.</desc>
    <defs>
        <linearGradient x1="50%" y1="0%" x2="50%" y2="100%" id="linearGradient-1">
            <stop stop-color="#FFD5E2" offset="0%"></stop>
            <stop stop-color="#FF94C2" offset="100%"></stop>
        </linearGradient>
    </defs>
    <g id="Page-1" stroke="none" stroke-width="1" fill="none" fill-rule="evenodd">
        <g id="b1" transform="translate(-328.000000, -587.000000)" fill="url(#linearGradient-1)">
            <g id="Ground">
                <path d="M760.435973,637.590701 C729.284317,658.635511 702.410749,683.131607 674.126905,706.298538 C635.096844,738.27057 590.449512,769.176818 533.845839,782.386819 C504.351978,789.269949 472.824351,791.023142 443.489709,798.245453 C414.155068,805.466258 382.839225,825.537526 365.86659,849.380759 L328.857,900 L1438.05676,900 C1438.05676,900 1438.05676,778.116596 1393.36056,714.67743 C1382,698.468421 1338.28119,642.221816 1233.67595,653.233919 C1200.16551,656.76141 1168.08167,667.951395 1134.24642,666.814759 C1067.88789,664.585204 1027.73055,612.863745 966.596548,594.404716 C949.65557,589.289854 931.731675,587 913.627332,587 C873.132449,586.998493 831.699232,598.450778 798.108117,615.360123 C784.725176,622.097307 772.271791,629.594898 760.435973,637.590701 Z"></path>
            </g>
        </g>
    </g>
</svg>