<?xml version="1.0" encoding="UTF-8"?>
<svg width="1440px" height="900px" viewBox="0 0 1440 900" version="1.1" xmlns="http://www.w3.org/2000/svg" xmlns:xlink="http://www.w3.org/1999/xlink">
    <!-- Generator: Sketch 53.2 (72643) - https://sketchapp.com -->
    <title>HD_back_and_text</title>
    <desc>Created with Sketch.</desc>
    <defs>
        <linearGradient x1="50%" y1="0%" x2="50%" y2="100%" id="linearGradient-1">
            <stop stop-color="#FFD5E2" offset="0%"></stop>
            <stop stop-color="#FF94C2" offset="100%"></stop>
        </linearGradient>
        <linearGradient x1="50%" y1="100%" x2="50%" y2="50%" id="linearGradient-2">
            <stop stop-color="#FFD5E2" offset="0%"></stop>
            <stop stop-color="#FF94C2" offset="100%"></stop>
        </linearGradient>
        <text id="text-3" font-family="Montserrat-Medium, Montserrat" font-size="26" font-weight="400" fill="#FFFFFF">
            <tspan x="728.100505" y="347">Удобная, интуитивная админ-панель</tspan>
            <tspan x="728.100505" y="425.5">Интеграция онлайн записи на ваш сайт</tspan>
            <tspan x="728.100505" y="504">Мобильное приложение iOS и Android</tspan>
            <tspan x="728.100505" y="582.5">Расписание групповых занятий</tspan>
            <tspan x="728.100505" y="661">Безопасность данных</tspan>
            <tspan x="728.100505" y="739.5">Высокая техническая надежность</tspan>
        </text>
        <filter x="-0.9%" y="-1.3%" width="101.8%" height="102.7%" filterUnits="objectBoundingBox" id="filter-4">
            <feOffset dx="0" dy="0" in="SourceAlpha" result="shadowOffsetOuter1"></feOffset>
            <feGaussianBlur stdDeviation="2" in="shadowOffsetOuter1" result="shadowBlurOuter1"></feGaussianBlur>
            <feColorMatrix values="0 0 0 0 0.760671422   0 0 0 0 0   0 0 0 0 0.309903172  0 0 0 0.35 0" type="matrix" in="shadowBlurOuter1"></feColorMatrix>
        </filter>
    </defs>
    <g id="Page-1" stroke="none" stroke-width="1" fill="none" fill-rule="evenodd">
        <g id="block2">
            <g id="block2/back_and_text" transform="translate(-0.100505, -187.000000)">
                <g id="back" transform="translate(72.000000, 0.000000)">
                    <g id="ground" transform="translate(257.100505, 0.000000)">
                        <g id="gr2" transform="translate(0.000000, 187.000000)" fill="url(#linearGradient-1)">
                            <path d="M431.578973,121.546989 C400.427317,172.10832 302.255304,147.881477 250.557506,280.271065 C228.328305,376 261.592512,437.68999 204.988839,469.427757 C175.494978,485.964861 143.967351,490.177005 114.632709,507.529013 C85.2980681,524.877398 53.9822253,573.099744 37.0095896,630.384442 L0,752 L1109.19976,752 C1109.19976,752 1218.54911,486.556824 1173.85291,334.140681 C1162.49236,295.197631 1091.44305,115.193139 960.597371,147.195782 C914.043802,162.454704 874.533739,185.459269 810.673758,157.803111 C746.813777,130.146952 764.656199,76.192216 703.522195,31.8433681 C669.250047,4.20862605 602.874675,0 584.770332,0 C544.275449,-0.0036217924 502.842232,27.5111351 469.251117,68.1367805 C455.868176,84.3232428 443.414791,102.336623 431.578973,121.546989 Z" id="ground" transform="translate(592.293158, 376.000000) scale(1, -1) translate(-592.293158, -376.000000) "></path>
                        </g>
                        <path d="M657.05751,285.797719 C630.707417,328.559696 547.667156,308.069973 503.937803,420.037763 C485.134901,501 513.271927,553.173981 465.392867,580.016028 C440.445044,594.002196 413.77693,597.564595 388.963787,612.239963 C364.150643,626.912268 337.66167,667.69606 323.305113,716.144289 L292,819 L1230.23315,819 C1230.23315,819 1322.72794,594.502846 1284.92099,465.597704 C1275.3115,432.661827 1215.21338,280.423984 1104.53561,307.490049 C1065.15758,320.395202 1031.7374,339.851191 977.720487,316.461142 C923.70357,293.071093 938.795848,247.439161 887.084739,209.931359 C858.095132,186.559423 801.950534,183 786.636705,183 C752.383505,182.996937 717.3366,206.267396 688.923055,240.62632 C677.602895,254.315934 667.069013,269.550655 657.05751,285.797719 Z" id="gr1" fill-opacity="0.53" fill="url(#linearGradient-2)" transform="translate(793.000000, 501.000000) scale(1, -1) rotate(-90.000000) translate(-793.000000, -501.000000) "></path>
                    </g>
                    <g id="stars" transform="translate(0.000000, 276.000000)">
                        <rect id="Rectangle" stroke="#FF67B1" stroke-width="6" transform="translate(429.899495, 227.798990) rotate(45.000000) translate(-429.899495, -227.798990) " x="418.899495" y="216.79899" width="22" height="22"></rect>
                        <rect id="Rectangle-Copy-2" stroke="#FF67B1" stroke-width="6" transform="translate(1089.000000, 582.899495) rotate(45.000000) translate(-1089.000000, -582.899495) " x="1085" y="578.899495" width="8" height="8"></rect>
                        <rect id="Rectangle-Copy-3" stroke="#FF67B1" stroke-width="6" transform="translate(487.000000, 502.899495) rotate(45.000000) translate(-487.000000, -502.899495) " x="483" y="498.899495" width="8" height="8"></rect>
                        <rect id="Rectangle-Copy" stroke="#FF67B1" stroke-width="6" transform="translate(1051.899495, 655.727922) rotate(45.000000) translate(-1051.899495, -655.727922) " x="1035.89949" y="639.727922" width="32" height="32"></rect>
                        <circle id="Oval" stroke="#FFFFFF" stroke-width="5" cx="392.100505" cy="73" r="19"></circle>
                        <circle id="Oval-Copy-3" stroke="#FF50A2" stroke-width="5" cx="262.100505" cy="14" r="14"></circle>
                        <circle id="Oval-Copy-2" stroke="#FFFFFF" stroke-width="5" cx="1228.60051" cy="394.5" r="9.5"></circle>
                        <circle id="Oval-Copy" stroke="#FFFFFF" stroke-width="5" cx="1287.10051" cy="455" r="27"></circle>
                        <rect id="Rectangle-Copy-4" stroke="#FF67B1" stroke-width="6" transform="translate(10.000000, 43.899495) rotate(45.000000) translate(-10.000000, -43.899495) " x="6" y="39.8994949" width="8" height="8"></rect>
                        <circle id="Oval-Copy-4" stroke="#FF50A2" stroke-width="5" cx="1274.10051" cy="615" r="14"></circle>
                    </g>
                </g>
                <g id="stirpes" transform="translate(422.100505, 216.000000)" fill="#FFFFFF">
                    <polygon id="Fill-1" points="623 19 635 19 635 15 623 15"></polygon>
                    <polygon id="Fill-2" points="638 19 650 19 650 15 638 15"></polygon>
                    <polygon id="Fill-3" points="652 19 664 19 664 15 652 15"></polygon>
                    <polygon id="Fill-4" points="665 19 677 19 677 15 665 15"></polygon>
                    <polygon id="Fill-5" points="680 19 692 19 692 15 680 15"></polygon>
                    <polygon id="Fill-6" points="695 19 707 19 707 15 695 15"></polygon>
                    <polygon id="Fill-7" points="710 19 722 19 722 15 710 15"></polygon>
                    <polygon id="Fill-8" points="595.435467 7 561.027671 44.3370985 69 44.3370985 69 45 561.316765 45 595.725265 7.66219555 722 7.66219555 722 7"></polygon>
                    <polygon id="Fill-9" points="657 0.9695 722 0.9695 722 0.0305 657 0.0305"></polygon>
                    <polygon id="Fill-10" points="96 555 109 555 109 551 96 551"></polygon>
                    <polygon id="Fill-11" points="80 555 93 555 93 551 80 551"></polygon>
                    <polygon id="Fill-12" points="64 555 77 555 77 551 64 551"></polygon>
                    <polygon id="Fill-13" points="48 555 61 555 61 551 48 551"></polygon>
                    <polygon id="Fill-14" points="32 555 45 555 45 551 32 551"></polygon>
                    <polygon id="Fill-15" points="16 555 29 555 29 551 16 551"></polygon>
                    <polygon id="Fill-16" points="0 555 13 555 13 551 0 551"></polygon>
                    <polygon id="Fill-17" points="176.988335 523 139.088329 564.268172 0 564.268172 0 565 139.408074 565 177.307374 523.732538 228 523.732538 228 523"></polygon>
                    <polygon id="Fill-18" points="0 571 70 571 70 570 0 570"></polygon>
                    <polygon id="Fill-19" points="227 523 228 523 228 71 227 71"></polygon>
                    <path d="M246.981923,446.017389 L289.018077,446.017389 L289.018077,420.940394 L272.059319,403.981907 L246.981923,403.981907 L246.981923,446.017389 Z M290,447 L246,447 L246,403 L272.465462,403 L290,420.534258 L290,447 Z" id="Fill-20"></path>
                    <g id="Group-55" transform="translate(246.000000, 94.000000)">
                        <path d="M10.4231111,343.47297 C10.4231111,344.872841 11.0342222,345.403681 12.0085079,345.403681 C12.9806984,345.403681 13.5918095,344.872841 13.5918095,343.47297 L13.5918095,332.894135 C13.5918095,331.494264 12.9806984,330.963423 12.0085079,330.963423 C11.0342222,330.963423 10.4231111,331.494264 10.4231111,332.894135 L10.4231111,343.47297 Z M7.36546032,333.089596 C7.36546032,329.955179 9.00533333,328.165087 12.0085079,328.165087 C15.0088889,328.165087 16.6494603,329.955179 16.6494603,333.089596 L16.6494603,343.277508 C16.6494603,346.411223 15.0088889,348.20272 12.0085079,348.20272 C9.00533333,348.20272 7.36546032,346.411223 7.36546032,343.277508 L7.36546032,333.089596 Z" id="Fill-21"></path>
                        <path d="M21.3818349,341.654825 L21.3818349,343.47304 C21.3818349,344.872911 21.992946,345.377034 22.9651365,345.377034 C23.9394222,345.377034 24.5505333,344.872911 24.5505333,343.47304 L24.5505333,339.162337 C24.5505333,337.763872 23.9394222,337.231626 22.9651365,337.231626 C21.992946,337.231626 21.3818349,337.763872 21.3818349,339.162337 L21.3818349,339.750831 L18.4897079,339.750831 L19.0470413,328.388743 L27.1074222,328.388743 L27.1074222,331.187783 L21.7987873,331.187783 L21.5473587,335.859879 C22.1053905,334.936006 22.9937714,334.43329 24.2173905,334.43329 C26.4683746,334.43329 27.6081841,336.028623 27.6081841,338.912034 L27.6081841,343.277579 C27.6081841,346.411293 26.0521206,348.202791 23.048946,348.202791 C20.0457714,348.202791 18.4897079,346.411293 18.4897079,343.277579 L18.4897079,341.654825 L21.3818349,341.654825 Z" id="Fill-23"></path>
                        <path d="M1.04768889,429.762685 L42.7568952,429.762685 L42.7568952,404.713359 L25.9300381,387.77288 L1.04768889,387.77288 L1.04768889,429.762685 Z M43.731181,430.743509 L0.0734031746,430.743509 L0.0734031746,386.792759 L26.3330222,386.792759 L43.731181,404.306968 L43.731181,430.743509 Z" id="Fill-25"></path>
                        <path d="M10.4233905,420.994542 C10.4233905,422.394414 11.0338032,422.925254 12.0080889,422.925254 C12.9809778,422.925254 13.5913905,422.394414 13.5913905,420.994542 L13.5913905,410.41641 C13.5913905,409.015836 12.9809778,408.484996 12.0080889,408.484996 C11.0338032,408.484996 10.4233905,409.015836 10.4233905,410.41641 L10.4233905,420.994542 Z M7.36504127,410.611169 C7.36504127,407.477454 9.0056127,405.68666 12.0080889,405.68666 C15.0091683,405.68666 16.6497397,407.477454 16.6497397,410.611169 L16.6497397,420.799081 C16.6497397,423.933498 15.0091683,425.724293 12.0080889,425.724293 C9.0056127,425.724293 7.36504127,423.933498 7.36504127,420.799081 L7.36504127,410.611169 Z" id="Fill-27"></path>
                        <path d="M21.4923238,417.468006 L21.4923238,420.994753 C21.4923238,422.394624 22.1048317,422.898747 23.0777206,422.898747 C24.0499111,422.898747 24.662419,422.394624 24.662419,420.994753 L24.662419,417.468006 C24.662419,416.069541 24.0499111,415.536592 23.0777206,415.536592 C22.1048317,415.536592 21.4923238,416.069541 21.4923238,417.468006 L21.4923238,417.468006 Z M18.434673,410.780124 C18.434673,407.477665 19.9355619,405.686168 23.1042603,405.686168 C26.1067365,405.686168 27.6634984,407.477665 27.6634984,410.61138 L27.6634984,411.115502 L24.7727683,411.115502 L24.7727683,410.416621 C24.7727683,409.016047 24.1616571,408.485207 23.1873714,408.485207 C22.1048317,408.485207 21.4923238,409.016047 21.4923238,410.891213 L21.4923238,414.473505 C22.0210222,413.354171 22.9652762,412.737553 24.3278794,412.737553 C26.5802603,412.737553 27.7200698,414.333589 27.7200698,417.217 L27.7200698,420.798589 C27.7200698,423.933006 26.0801968,425.723801 23.0777206,425.723801 C20.074546,425.723801 18.434673,423.933006 18.434673,420.798589 L18.434673,410.780124 Z" id="Fill-29"></path>
                        <path d="M1.00948571,41.3297361 L41.0816127,41.3297361 L41.0816127,17.2633429 L24.9147556,0.988698532 L1.00948571,0.988698532 L1.00948571,41.3297361 Z M42.0174857,42.2718894 L0.0736126984,42.2718894 L0.0736126984,0.0458420881 L25.3023746,0.0458420881 L42.0174857,16.8738258 L42.0174857,42.2718894 Z" id="Fill-31"></path>
                        <path d="M10.0148889,32.9069555 C10.0148889,34.2512817 10.6015556,34.7624351 11.538127,34.7624351 C12.4719048,34.7624351 13.0585714,34.2512817 13.0585714,32.9069555 L13.0585714,22.7429489 C13.0585714,21.3986227 12.4719048,20.8874693 11.538127,20.8874693 C10.6015556,20.8874693 10.0148889,21.3986227 10.0148889,22.7429489 L10.0148889,32.9069555 Z M7.07736508,22.9313796 C7.07736508,19.9193013 8.65298413,18.1988168 11.538127,18.1988168 C14.4211746,18.1988168 15.9967937,19.9193013 15.9967937,22.9313796 L15.9967937,32.7178217 C15.9967937,35.7306031 14.4211746,37.4510876 11.538127,37.4510876 C8.65298413,37.4510876 7.07736508,35.7306031 7.07736508,32.7178217 L7.07736508,22.9313796 Z" id="Fill-33"></path>
                        <path d="M19.7155619,20.7798248 C21.9861016,20.7798248 22.4924508,19.6780679 22.9478159,18.4138949 L24.9243238,18.4138949 L24.9243238,37.2351657 L21.9861016,37.2351657 L21.9861016,22.8771706 L19.7155619,22.8771706 L19.7155619,20.7798248 Z" id="Fill-35"></path>
                        <path d="M1.00948571,118.851238 L41.0816127,118.851238 L41.0816127,94.7855481 L24.9147556,78.5102007 L1.00948571,78.5102007 L1.00948571,118.851238 Z M42.0174857,119.794095 L0.0736126984,119.794095 L0.0736126984,77.5680473 L25.3023746,77.5680473 L42.0174857,94.3953279 L42.0174857,119.794095 Z" id="Fill-37"></path>
                        <path d="M10.0148889,110.428458 C10.0148889,111.772784 10.6015556,112.283937 11.538127,112.283937 C12.4719048,112.283937 13.0585714,111.772784 13.0585714,110.428458 L13.0585714,100.264451 C13.0585714,98.9201248 12.4719048,98.4089715 11.538127,98.4089715 C10.6015556,98.4089715 10.0148889,98.9201248 10.0148889,100.264451 L10.0148889,110.428458 Z M7.07666667,100.452882 C7.07666667,97.4415065 8.65298413,95.7203189 11.538127,95.7203189 C14.4211746,95.7203189 15.9967937,97.4415065 15.9967937,100.452882 L15.9967937,110.239324 C15.9967937,113.252105 14.4211746,114.97259 11.538127,114.97259 C8.65298413,114.97259 7.07666667,113.252105 7.07666667,110.239324 L7.07666667,100.452882 Z" id="Fill-39"></path>
                        <path d="M22.1982095,98.4091824 C21.2637333,98.4091824 20.6770667,98.9203357 20.6770667,100.264662 L20.6770667,102.281854 L17.8980825,102.281854 L17.8980825,100.453093 C17.8980825,97.4417175 19.3954794,95.7205299 22.278527,95.7205299 C25.1636698,95.7205299 26.6589714,97.4417175 26.6589714,100.453093 C26.6589714,106.368269 20.8104635,108.573189 20.8104635,111.665421 C20.8104635,111.799713 20.8104635,111.934005 20.8363048,112.068297 L26.3921778,112.068297 L26.3921778,114.757652 L17.8980825,114.757652 L17.8980825,112.445158 C17.8980825,106.90614 23.7207492,105.992111 23.7207492,100.56137 C23.7207492,98.8661971 23.1340825,98.4091824 22.1982095,98.4091824" id="Fill-41"></path>
                        <path d="M1.00948571,196.373443 L41.0816127,196.373443 L41.0816127,172.30705 L24.9147556,156.031703 L1.00948571,156.031703 L1.00948571,196.373443 Z M42.0174857,197.315597 L0.0736126984,197.315597 L0.0736126984,155.089549 L25.3023746,155.089549 L42.0174857,171.917533 L42.0174857,197.315597 Z" id="Fill-43"></path>
                        <path d="M10.0148889,187.950663 C10.0148889,189.294989 10.6015556,189.805439 11.538127,189.805439 C12.4719048,189.805439 13.0585714,189.294989 13.0585714,187.950663 L13.0585714,177.786656 C13.0585714,176.441627 12.4719048,175.931177 11.538127,175.931177 C10.6015556,175.931177 10.0148889,176.441627 10.0148889,177.786656 L10.0148889,187.950663 Z M7.07736508,177.975087 C7.07736508,174.963009 8.65298413,173.242524 11.538127,173.242524 C14.4211746,173.242524 15.9967937,174.963009 15.9967937,177.975087 L15.9967937,187.761529 C15.9967937,190.773607 14.4211746,192.494795 11.538127,192.494795 C8.65298413,192.494795 7.07736508,190.773607 7.07736508,187.761529 L7.07736508,177.975087 Z" id="Fill-45"></path>
                        <path d="M23.562,178.082591 C23.562,176.388824 22.9732381,175.931106 22.0394603,175.931106 C21.1028889,175.931106 20.5162222,176.441557 20.5162222,177.786586 L20.5162222,178.99662 L17.7393333,178.99662 L17.7393333,177.975017 C17.7393333,174.962938 19.2346349,173.242454 22.1197778,173.242454 C25.0028254,173.242454 26.5002222,174.962938 26.5002222,177.975017 L26.5002222,178.458749 C26.5002222,180.475238 25.858381,181.738708 24.4433968,182.330718 C25.9114603,182.97546 26.5002222,184.373925 26.5002222,186.28284 L26.5002222,187.762162 C26.5002222,190.773537 25.0028254,192.494725 22.1197778,192.494725 C19.2346349,192.494725 17.7393333,190.773537 17.7393333,187.762162 L17.7393333,186.202687 L20.5162222,186.202687 L20.5162222,187.950592 C20.5162222,189.294919 21.1028889,189.805369 22.0394603,189.805369 C22.9732381,189.805369 23.562,189.347651 23.562,187.681305 L23.562,186.202687 C23.562,184.454782 22.9732381,183.809336 21.6385714,183.809336 L20.649619,183.809336 L20.649619,181.119981 L21.7978095,181.119981 C22.8929206,181.119981 23.562,180.636248 23.562,179.130912 L23.562,178.082591 Z" id="Fill-47"></path>
                        <path d="M1.00948571,273.894946 L41.0816127,273.894946 L41.0816127,249.828552 L24.9147556,233.553908 L1.00948571,233.553908 L1.00948571,273.894946 Z M42.0174857,274.837099 L0.0736126984,274.837099 L0.0736126984,232.611052 L25.3023746,232.611052 L42.0174857,249.439035 L42.0174857,274.837099 Z" id="Fill-49"></path>
                        <path d="M10.0131429,265.472235 C10.0131429,266.816562 10.5998095,267.327715 11.536381,267.327715 C12.4708571,267.327715 13.0568254,266.816562 13.0568254,265.472235 L13.0568254,255.308229 C13.0568254,253.963902 12.4708571,253.452749 11.536381,253.452749 C10.5998095,253.452749 10.0131429,253.963902 10.0131429,255.308229 L10.0131429,265.472235 Z M7.07492063,255.496659 C7.07492063,252.484581 8.6512381,250.764097 11.536381,250.764097 C14.4194286,250.764097 15.9950476,252.484581 15.9950476,255.496659 L15.9950476,265.283101 C15.9950476,268.295883 14.4194286,270.016367 11.536381,270.016367 C8.6512381,270.016367 7.07492063,268.295883 7.07492063,265.283101 L7.07492063,255.496659 Z" id="Fill-51"></path>
                        <path d="M22.8656127,263.697261 L22.8656127,256.625486 L19.9001524,263.697261 L22.8656127,263.697261 Z M17.203581,263.697261 L22.5436444,250.978893 L25.7500571,250.978893 L25.7500571,263.697261 L27.1378032,263.697261 L27.1378032,266.385913 L25.7500571,266.385913 L25.7500571,269.800867 L22.8656127,269.800867 L22.8656127,266.385913 L17.203581,266.385913 L17.203581,263.697261 Z" id="Fill-53"></path>
                    </g>
                </g>
                <g id="Удобная,-интуитивная" fill="#FFFFFF" fill-opacity="1">
                    <use filter="url(#filter-4)" xlink:href="#text-3"></use>
                    <use xlink:href="#text-3"></use>
                </g>
            </g>
        </g>
    </g>
</svg>