<?xml version="1.0" encoding="UTF-8"?>
<svg width="1440px" height="900px" viewBox="0 0 1440 900" version="1.1" xmlns="http://www.w3.org/2000/svg" xmlns:xlink="http://www.w3.org/1999/xlink">
    <!-- Generator: Sketch 53.2 (72643) - https://sketchapp.com -->
    <title>HD_Girl</title>
    <desc>Created with Sketch.</desc>
    <defs>
        <polygon id="path-1" points="0 343 181.707796 343 181.707796 0.0450869565 0 0.0450869565"></polygon>
        <path d="M0.805106383,92.5003299 C0.554212766,93.7001546 0.434382979,94.9242371 0.447489362,96.1539175 L0.447489362,96.1539175 L1.31438298,180.009165 L18.1579574,180.009165 L25.0425532,102.841588 C25.1811064,101.283495 25.5331064,99.7515258 26.0910638,98.284866 L26.0910638,98.284866 L46.9545532,43.5071753 C47.267234,42.6861443 48.4861277,42.8671443 48.5385532,43.7460206 L48.5385532,43.7460206 L52.5509787,107.319938 C52.6726809,109.243763 52.9273191,111.158258 53.3092766,113.048495 L53.3092766,113.048495 L66.9211915,180.009165 L86.421617,180.009165 L76.3933617,115.879186 C75.9889362,113.283608 75.8260426,110.656309 75.9102979,108.030876 L75.9102979,108.030876 L79.3310638,1.53756701 L19.9310638,0.653092784 L0.805106383,92.5003299 Z" id="path-3"></path>
        <linearGradient x1="51.3062676%" y1="12.4631949%" x2="49.5548161%" y2="98.2943001%" id="linearGradient-5">
            <stop stop-color="#4637ED" offset="0%"></stop>
            <stop stop-color="#0083EA" offset="100%"></stop>
        </linearGradient>
        <polygon id="path-6" points="0.801146667 0.544077419 48.1082667 0.544077419 48.1082667 89.3533032 0.801146667 89.3533032"></polygon>
        <polygon id="path-8" points="0.311965249 0.0458709677 88.9773889 0.0458709677 88.9773889 73.9790632 0.311965249 73.9790632"></polygon>
    </defs>
    <g id="Page-1" stroke="none" stroke-width="1" fill="none" fill-rule="evenodd">
        <g id="b1">
            <g id="Girl">
                <ellipse id="shadow-girl" fill-opacity="0.12" fill="#000000" transform="translate(1145.626945, 827.478854) rotate(-6.000000) translate(-1145.626945, -827.478854) " cx="1145.62695" cy="827.478854" rx="88" ry="17"></ellipse>
                <g id="Group-8" transform="translate(1032.000000, 484.000000)">
                    <path d="M21.0511622,33.7445609 C21.0511622,33.7445609 10.1253153,13.3289087 0.659733673,9.68325652 C0.659733673,9.68325652 -2.98159286,2.75651739 6.84998878,6.40216957 C6.84998878,6.40216957 4.78470306,5.22060435 3.57652959,2.06103913 C3.35991735,1.4983 3.83048878,0.911256522 4.43364184,0.946778261 C8.83684592,1.20477826 23.9119378,3.97360435 29.7903459,29.3697783 L21.4134276,35.567387" id="Fill-1" fill="#FFB3B8"></path>
                    <mask id="mask-2" fill="white">
                        <use xlink:href="#path-1"></use>
                    </mask>
                    <g id="Clip-4"></g>
                    <polygon id="Fill-3" fill="#FFFFFF" mask="url(#mask-2)" points="144.338449 336.441565 155.197071 336.441565 155.197071 330.567391 144.338449 330.567391"></polygon>
                    <polygon id="Fill-5" fill="#FFFFFF" mask="url(#mask-2)" points="76.0365 336.441565 86.8951224 336.441565 86.8951224 330.567391 76.0365 330.567391"></polygon>
                    <path d="M156.008994,334.877861 L156.008994,343.001122 L130.288157,343.001122 C130.288157,343.001122 126.000729,329.553339 156.008994,334.877861" id="Fill-6" fill="#FFFFFF" mask="url(#mask-2)"></path>
                    <path d="M87.5554163,334.877861 L87.5554163,343.001122 L61.8345796,343.001122 C61.8345796,343.001122 57.547151,329.553339 87.5554163,334.877861" id="Fill-7" fill="#FFFFFF" mask="url(#mask-2)"></path>
                </g>
                <g id="Group-11" transform="translate(1103.000000, 635.000000)">
                    <mask id="mask-4" fill="white">
                        <use xlink:href="#path-3"></use>
                    </mask>
                    <g id="Clip-10"></g>
                    <path d="M0.805106383,92.5003299 C0.554212766,93.7001546 0.434382979,94.9242371 0.447489362,96.1539175 L0.447489362,96.1539175 L1.31438298,180.009165 L18.1579574,180.009165 L25.0425532,102.841588 C25.1811064,101.283495 25.5331064,99.7515258 26.0910638,98.284866 L26.0910638,98.284866 L46.9545532,43.5071753 C47.267234,42.6861443 48.4861277,42.8671443 48.5385532,43.7460206 L48.5385532,43.7460206 L52.5509787,107.319938 C52.6726809,109.243763 52.9273191,111.158258 53.3092766,113.048495 L53.3092766,113.048495 L66.9211915,180.009165 L86.421617,180.009165 L76.3933617,115.879186 C75.9889362,113.283608 75.8260426,110.656309 75.9102979,108.030876 L75.9102979,108.030876 L79.3310638,1.53756701 L19.9310638,0.653092784 L0.805106383,92.5003299 Z" id="Fill-9" fill="url(#linearGradient-5)" mask="url(#mask-4)"></path>
                </g>
                <g id="Group-22" transform="translate(1046.000000, 484.000000)">
                    <path d="M78.6397067,84.9827548 L40.74824,80.2342387 C36.8861067,80.1556581 33.24424,78.4044323 30.7653067,75.4333355 L0.99944,34.9998516 L18.7589067,22.5279806 L41.37544,54.0275935 C43.7759733,57.3710129 47.5727733,59.4309484 51.6831733,59.6161742 L132.911173,54.3344323 L142.244507,171.892948 L70.26584,163.314561 L78.6397067,84.9827548 Z" id="Fill-12" fill="#00AFE3"></path>
                    <g id="Group-16" transform="translate(119.600000, 60.741935)">
                        <mask id="mask-7" fill="white">
                            <use xlink:href="#path-6"></use>
                        </mask>
                        <g id="Clip-15"></g>
                        <path d="M14.9430133,6.74446452 L45.8531467,50.6934968 C49.7750133,56.2708516 48.4534133,63.9773677 42.90008,67.9232387 L12.73288,89.3533032 L0.801146667,70.750271 L24.2931467,57.9247871 C24.9315467,57.5786581 25.0734133,56.7217548 24.5806133,56.1847871 L5.22141333,35.0914968 L6.98728,4.08769032 L10.5246133,0.544077419 L14.9430133,6.74446452 Z" id="Fill-14" fill="#00AFE3" mask="url(#mask-7)"></path>
                    </g>
                    <path d="M87.1782133,20.3449355 C87.1782133,20.3449355 83.1331467,24.086871 80.3331467,28.7642903 L82.5115467,30.6352581 L79.3998133,39.0546129 L94.02328,42.7965484 L104.289947,17.5384839 L87.1782133,20.3449355 Z" id="Fill-17" fill="#FFB3B8"></path>
                    <g id="Group-21" transform="translate(60.733333, 0.000000)">
                        <mask id="mask-9" fill="white">
                            <use xlink:href="#path-8"></use>
                        </mask>
                        <g id="Clip-20"></g>
                        <path d="M43.4472267,4.32103226 C37.9144267,2.53612903 31.7656267,5.22845161 27.93336,11.1163871 C24.10296,17.0024516 22.7384267,25.852129 24.4930933,33.4389032 C20.8512267,32.2751613 16.8024267,34.1180645 14.33656,38.0620645 C11.8706933,42.0079355 11.0922933,47.8883871 12.38216,52.8165161 C9.22189333,53.6397419 5.92722667,54.5471613 3.39042667,57.3180645 C0.853626667,60.0927097 -0.622906667,65.3482581 0.976826667,69.2660645 C2.77629333,73.6684516 7.10136,74.0819355 10.71336,73.9621935 C33.85256,73.1988387 56.9936267,72.4373548 80.1328267,71.675871 C81.9472267,71.616 83.82696,71.5355484 85.4602933,70.4241935 C88.5720267,68.3062581 89.93096,62.2555484 88.25096,58.0084516 C86.57096,53.7632258 82.1936267,52.2009677 79.2722933,54.8016129 C83.03176,51.5012258 84.4746933,43.8845161 82.37656,38.3969677 C80.28216,32.9056774 74.97336,30.3817419 70.9376267,32.9580645 C74.80536,26.5556129 74.04376,16.2447097 70.2152267,9.79548387 C66.38856,3.34625806 60.2210933,0.380774194 54.2496267,0.0739354839 C48.2800267,-0.227290323 42.3888267,1.81206452 36.59096,3.84019355 L36.5032267,12.0836774" id="Fill-19" fill="#4B2728" mask="url(#mask-9)"></path>
                    </g>
                </g>
            </g>
        </g>
    </g>
</svg>