<?xml version="1.0" encoding="UTF-8"?>
<svg width="716px" height="408px" viewBox="0 0 716 408" version="1.1" xmlns="http://www.w3.org/2000/svg" xmlns:xlink="http://www.w3.org/1999/xlink">
    <!-- Generator: Sketch 53.2 (72643) - https://sketchapp.com -->
    <title>Leafs</title>
    <desc>Created with Sketch.</desc>
    <defs>
        <path d="M64.2437168,11.1120549 C47.0750462,18.1306703 29.9078844,25.1507912 12.7392139,32.1709121 L12.7392139,32.1709121 C6.89462428,34.5601319 0.072416185,38.2997802 0,44.6032857 L0,44.6032857 L0,44.7839451 C0.0663815029,51.1175604 7.48451445,55.1086264 13.8737341,54.9204396 L13.8737341,54.9204396 C20.3233006,54.7307473 26.4319075,51.8868681 32.8633699,51.3584396 L32.8633699,51.3584396 C50.4589942,49.9101538 64.3960925,65.3414725 74.6520347,79.6828132 L74.6520347,79.6828132 C84.9079769,94.0256593 97.0346705,110.233813 114.645382,111.511978 L114.645382,111.511978 C123.063763,112.123209 131.189462,109.08211 139.277445,106.041011 L139.277445,106.041011 C148.249509,102.668703 157.173295,99.2948901 166.398815,100.905769 L166.398815,100.905769 C177.051538,102.76656 185.349225,110.87967 192.874474,118.634473 L192.874474,118.634473 C200.399723,126.386264 208.581243,134.571637 219.19474,136.653736 L219.19474,136.653736 C226.851243,138.154714 235.784081,134.655945 239.849948,128.551165 L239.849948,128.551165 L239.48485,129.90611 C248.559503,114.547055 257.842353,98.5858022 259.776468,80.8601099 L259.776468,80.8601099 C259.965052,79.1333077 260.063116,77.3854286 260.072168,75.627011 L260.072168,75.627011 L260.072168,75.0970769 C259.992208,58.9822637 252.426225,42.3149341 237.772509,36.0264835 L237.772509,36.0264835 C226.526879,31.2013736 214.158798,33.3120769 201.742439,35.4227802 L201.742439,35.4227802 C190.097012,37.4025055 178.407832,39.3807253 167.555965,35.6380659 L167.555965,35.6380659 C150.485358,29.7515824 140.552272,11.3860549 124.098711,3.95794505 L124.098711,3.95794505 C118.296364,1.33838462 112.210387,0.267978022 106.006734,0.267978022 L106.006734,0.267978022 C92.0515318,0.267978022 77.5004046,5.69076923 64.2437168,11.1120549" id="path-1"></path>
        <linearGradient x1="5.57089474%" y1="57.2846498%" x2="97.8275153%" y2="45.4246937%" id="linearGradient-3">
            <stop stop-color="#4637ED" offset="0%"></stop>
            <stop stop-color="#0083EA" offset="100%"></stop>
        </linearGradient>
        <polygon id="path-4" points="0 0.248856241 293.360557 0.248856241 293.360557 334 0 334"></polygon>
    </defs>
    <g id="Page-1" stroke="none" stroke-width="1" fill="none" fill-rule="evenodd">
        <g id="b1" transform="translate(-678.000000, -297.000000)">
            <g id="PhoneAndLeafs">
                <g id="Leafs" transform="translate(678.000000, 297.000000)">
                    <g id="leafs_left-l" transform="translate(0.000000, 204.000000)">
                        <g id="Group-3" transform="translate(0.000000, 67.000000)">
                            <mask id="mask-2" fill="white">
                                <use xlink:href="#path-1"></use>
                            </mask>
                            <g id="Clip-2"></g>
                            <path d="M64.2437168,11.1120549 C47.0750462,18.1306703 29.9078844,25.1507912 12.7392139,32.1709121 L12.7392139,32.1709121 C6.89462428,34.5601319 0.072416185,38.2997802 0,44.6032857 L0,44.6032857 L0,44.7839451 C0.0663815029,51.1175604 7.48451445,55.1086264 13.8737341,54.9204396 L13.8737341,54.9204396 C20.3233006,54.7307473 26.4319075,51.8868681 32.8633699,51.3584396 L32.8633699,51.3584396 C50.4589942,49.9101538 64.3960925,65.3414725 74.6520347,79.6828132 L74.6520347,79.6828132 C84.9079769,94.0256593 97.0346705,110.233813 114.645382,111.511978 L114.645382,111.511978 C123.063763,112.123209 131.189462,109.08211 139.277445,106.041011 L139.277445,106.041011 C148.249509,102.668703 157.173295,99.2948901 166.398815,100.905769 L166.398815,100.905769 C177.051538,102.76656 185.349225,110.87967 192.874474,118.634473 L192.874474,118.634473 C200.399723,126.386264 208.581243,134.571637 219.19474,136.653736 L219.19474,136.653736 C226.851243,138.154714 235.784081,134.655945 239.849948,128.551165 L239.849948,128.551165 L239.48485,129.90611 C248.559503,114.547055 257.842353,98.5858022 259.776468,80.8601099 L259.776468,80.8601099 C259.965052,79.1333077 260.063116,77.3854286 260.072168,75.627011 L260.072168,75.627011 L260.072168,75.0970769 C259.992208,58.9822637 252.426225,42.3149341 237.772509,36.0264835 L237.772509,36.0264835 C226.526879,31.2013736 214.158798,33.3120769 201.742439,35.4227802 L201.742439,35.4227802 C190.097012,37.4025055 178.407832,39.3807253 167.555965,35.6380659 L167.555965,35.6380659 C150.485358,29.7515824 140.552272,11.3860549 124.098711,3.95794505 L124.098711,3.95794505 C118.296364,1.33838462 112.210387,0.267978022 106.006734,0.267978022 L106.006734,0.267978022 C92.0515318,0.267978022 77.5004046,5.69076923 64.2437168,11.1120549" id="Fill-1" fill="url(#linearGradient-3)" mask="url(#mask-2)"></path>
                        </g>
                        <g id="Group-57" transform="translate(1.000000, 0.000000)">
                            <path d="M0.506565269,112.605591 C24.9988527,99.1129017 66.4053198,100.791591 92.4458228,111.002112 C108.762446,117.400986 123.511236,128.332019 140.820769,131.113288 C155.815523,133.521515 171.078877,129.518834 186.263763,129.807641 C210.896386,130.272439 236.603404,147.847532 251.119811,167.690961" id="Stroke-4" stroke="#FFF9F7" stroke-width="0.65"></path>
                            <path d="M146.985413,131.453689 C146.985413,131.453689 135.103689,77.2648235 110.866419,67.0738571" id="Stroke-6" stroke="#FFF9F7" stroke-width="0.65"></path>
                            <path d="M56.6129317,103.517355 C56.6129317,103.517355 54.0099377,116.76185 31.3616263,117.498909" id="Stroke-8" stroke="#FFF9F7" stroke-width="0.65"></path>
                            <path d="M212.166345,136.697787 C212.166345,136.697787 215.172237,110.911258 195.03789,103.536157" id="Stroke-10" stroke="#FFF9F7" stroke-width="0.65"></path>
                            <path d="M233.084307,148.975382 C233.084307,148.975382 217.187181,175.163534 184.827061,177.791374" id="Stroke-12" stroke="#FFF9F7" stroke-width="0.65"></path>
                            <path d="M92.9133054,66.8068613 C92.9133054,66.8068613 113.073305,80.3311387 123.882144,126.71771" id="Stroke-14" stroke="#FFF9F7" stroke-width="0.65"></path>
                            <path d="M140.821222,131.112987 C140.821222,131.112987 116.623186,162.886239 88.4836886,163.630819" id="Stroke-16" stroke="#FFF9F7" stroke-width="0.65"></path>
                            <path d="M57.6378323,127.731392 C57.6378323,127.731392 87.4719162,126.305408 96.0972575,113.363257" id="Stroke-18" stroke="#FFF9F7" stroke-width="0.65"></path>
                            <path d="M20.7878874,94.258542 C20.7878874,94.258542 26.4420431,91.2802227 35.690594,102.226298" id="Stroke-20" stroke="#FFF9F7" stroke-width="0.65"></path>
                            <path d="M53.2236072,81.3684361 C53.2236072,81.3684361 62.7588647,86.3533605 67.3582419,103.695302" id="Stroke-22" stroke="#FFF9F7" stroke-width="0.65"></path>
                            <path d="M164.923739,167.003691 C164.923739,167.003691 208.715907,163.920077 204.994757,133.309573" id="Stroke-24" stroke="#FFF9F7" stroke-width="0.65"></path>
                            <path d="M166.081279,101.792787 C166.081279,101.792787 178.964968,113.263829 171.910477,128.684905" id="Stroke-26" stroke="#FFF9F7" stroke-width="0.65"></path>
                            <path d="M231.522963,101.011204 C231.522963,101.011204 246.461885,129.189414 239.75446,152.487994" id="Stroke-28" stroke="#FFF9F7" stroke-width="0.65"></path>
                            <g id="Group-56" transform="translate(100.592814, 0.000000)">
                                <path d="M110.872156,136.492163 C107.757617,143.273104 97.9386707,143.095608 92.6964671,138.018928 C87.4527545,132.942247 85.6057605,125.067751 83.9820958,117.689642 C82.3584311,110.313037 80.4224072,102.438541 75.0836287,97.4791882 C66.2938084,89.3173899 52.1018323,92.3904739 42.5982635,85.2154319 C33.1746707,78.1020622 31.7954611,63.9761042 30.8402754,51.6506756 C29.8865988,39.3222387 27.2353174,25.0142723 16.9093533,19.544995 C13.1353892,17.5459109 8.77141317,17.0570454 5.10005988,14.8473731 C1.42870659,12.6377008 -1.40817964,7.48731429 0.779844311,3.63956639 C2.92108982,-0.128458824 7.98523353,0.0776168067 12.0504311,0.745482353 C23.994024,2.70696134 35.9376168,4.66693613 47.8812096,6.62841513 C61.204012,8.81552437 76.0373054,11.9713395 83.7466946,23.8891294 C90.4737365,34.2876756 89.9063593,48.9205496 97.492012,58.6151294 C107.45582,71.3466924 127.566024,70.6652891 136.638024,84.1474487 C143.470695,94.3008101 140.988419,109.088617 133.997305,119.05997 C127.006192,129.031323 116.491605,135.293314 106.295413,141.268003" id="Fill-30" fill="#008858"></path>
                                <path d="M1.28746587,5.48266471 C19.4872982,6.17760588 42.0827952,22.1040933 53.2386994,37.6364798 C60.2283042,47.3686647 64.8291904,59.2669 73.5812862,67.1774966 C81.162412,74.0291353 91.0341725,77.1172613 99.4301485,82.7595218 C113.05022,91.9140933 121.562388,111.76053 123.057789,128.94453" id="Stroke-32" stroke="#FFF9F7" stroke-width="0.439"></path>
                                <path d="M29.9676311,46.9261286 C29.9676311,46.9261286 46.355176,55.6881034 60.6829605,49.8427756" id="Stroke-34" stroke="#FFF9F7" stroke-width="0.439"></path>
                                <path d="M96.3694802,81.9561277 C96.3694802,81.9561277 53.1507257,89.878758 37.5810491,79.7223882" id="Stroke-36" stroke="#FFF9F7" stroke-width="0.439"></path>
                                <path d="M35.6978395,20.2191782 C35.6978395,20.2191782 29.8218635,27.2603462 16.9095042,19.5452958" id="Stroke-38" stroke="#FFF9F7" stroke-width="0.439"></path>
                                <path d="M111.616235,96.2430353 C111.616235,96.2430353 121.901456,81.7921697 113.104091,70.0954975" id="Stroke-40" stroke="#FFF9F7" stroke-width="0.439"></path>
                                <path d="M119.217128,111.17344 C119.217128,111.17344 101.587691,121.223012 82.6137509,111.147869" id="Stroke-42" stroke="#FFF9F7" stroke-width="0.439"></path>
                                <path d="M68.2485437,11.1807311 C68.2485437,11.1807311 75.0102922,26.5912773 65.5746275,58.4277059" id="Stroke-44" stroke="#FFF9F7" stroke-width="0.439"></path>
                                <path d="M18.7519713,1.73539748 C18.7519713,1.73539748 22.9077078,1.97907815 24.4272527,11.905305" id="Stroke-46" stroke="#FFF9F7" stroke-width="0.439"></path>
                                <path d="M41.1929485,5.65609916 C41.1929485,5.65609916 44.8627928,12.0940824 41.6471521,24.1968891" id="Stroke-48" stroke="#FFF9F7" stroke-width="0.439"></path>
                                <path d="M75.083176,97.4799403 C75.083176,97.4799403 100.60308,111.398318 108.736493,91.6180664" id="Stroke-50" stroke="#FFF9F7" stroke-width="0.439"></path>
                                <path d="M97.4917102,58.6145277 C97.4917102,58.6145277 100.868812,70.1652924 91.7771952,76.9146454" id="Stroke-52" stroke="#FFF9F7" stroke-width="0.439"></path>
                                <path d="M134.349653,81.718163 C134.349653,81.718163 133.30091,104.073608 121.775305,115.692062" id="Stroke-54" stroke="#FFF9F7" stroke-width="0.439"></path>
                            </g>
                        </g>
                    </g>
                    <g id="leafs_right-l" transform="translate(422.000000, 0.000000)">
                        <g id="Group-3" transform="translate(0.000000, 39.000000)">
                            <mask id="mask-5" fill="white">
                                <use xlink:href="#path-4"></use>
                            </mask>
                            <g id="Clip-2"></g>
                            <path d="M12.2791075,268.834618 C-2.65565373,262.301023 -3.38626567,239.615173 6.93445075,227.016546 C17.2573612,214.417918 33.9780627,209.388539 49.6566,204.924062 C65.3373313,200.457395 82.0470627,195.222199 92.1044955,182.411186 C108.658451,161.325892 100.439615,128.859356 114.78857,106.219487 C129.01466,83.7722974 159.230839,79.2136699 185.627212,75.8111209 C212.023585,72.4085719 242.489884,64.8962516 253.078272,40.5266438 C256.94854,31.6217745 257.505824,21.4951405 261.839033,12.8048464 C266.172242,4.11455229 276.922988,-2.93796405 285.446794,1.74108824 C293.79069,6.31942157 293.922331,18.0312843 292.948182,27.4835392 C290.087167,55.2491275 287.226152,83.0147157 284.365137,110.778114 C281.172824,141.751382 276.06951,176.302363 251.320854,195.261611 C229.722824,211.805794 198.194615,211.917461 178.213585,230.373114 C151.966406,254.613539 155.713809,300.98148 127.755287,323.23599 C106.699182,339.996938 74.6180776,335.703245 52.3859731,320.529716 C30.1516746,305.360565 15.4933612,281.691611 1.49325672,258.732069" id="Fill-1" fill="#FFAF0B" mask="url(#mask-5)"></path>
                        </g>
                        <path d="M281.992458,42 C282.561483,84.0650498 250.83888,137.75757 218.663694,165.01089 C198.503945,182.085523 173.40752,193.857434 157.369359,214.82321 C143.477676,232.985525 137.950003,256.065386 126.756245,275.98725 C108.591381,308.309123 66.8262531,329.878923 30,335" id="Stroke-4" stroke="#FFF9F7" stroke-width="0.674"></path>
                        <path d="M152,222.133947 C152,222.133947 233.044861,245.693267 264,220" id="Stroke-6" stroke="#FFF9F7" stroke-width="0.674"></path>
                        <path d="M254,122 C254,122 238.700028,109.250189 253.339493,79" id="Stroke-8" stroke="#FFF9F7" stroke-width="0.674"></path>
                        <path d="M99,306 C99,306 131.015875,327.90429 155,306.875742" id="Stroke-10" stroke="#FFF9F7" stroke-width="0.674"></path>
                        <path d="M68,325 C68,325 44.03449,285.042359 63.8394449,240" id="Stroke-12" stroke="#FFF9F7" stroke-width="0.674"></path>
                        <path d="M277,196.628566 C277,196.628566 244.598269,214.251821 175,195" id="Stroke-14" stroke="#FFF9F7" stroke-width="0.674"></path>
                        <path d="M157,215 C157,215 132.312608,160.027654 150.978895,122" id="Stroke-16" stroke="#FFF9F7" stroke-width="0.674"></path>
                        <path d="M221,107 C221,107 201.096366,147.425287 212.556102,168" id="Stroke-18" stroke="#FFF9F7" stroke-width="0.674"></path>
                        <path d="M291,82 C291,82 290.952233,91.5559354 270,96" id="Stroke-20" stroke="#FFF9F7" stroke-width="0.674"></path>
                        <path d="M286,134 C286,134 272.511628,143.022054 246,136.827808" id="Stroke-22" stroke="#FFF9F7" stroke-width="0.674"></path>
                        <path d="M92.3985012,221 C92.3985012,221 65.0731217,281.16916 109,298" id="Stroke-24" stroke="#FFF9F7" stroke-width="0.674"></path>
                        <path d="M178,269.104624 C178,269.104624 153.542268,277.782974 138,258" id="Stroke-26" stroke="#FFF9F7" stroke-width="0.674"></path>
                        <path d="M132,357 C132,357 84.1185447,356.749979 58,331" id="Stroke-28" stroke="#FFF9F7" stroke-width="0.674"></path>
                        <g id="Group-56" transform="translate(4.000000, 0.000000)">
                            <path d="M13.68972,216.864625 C2.81292,216.050875 -1.91048,202.610875 2.40152,192.922437 C6.71352,183.234 16.58052,176.748063 25.87992,170.81775 C35.18152,164.887438 45.00012,158.285562 49.10312,148.52275 C55.85492,132.453375 44.45892,114.710562 49.49252,98.1686875 C54.48652,81.7668125 73.16452,72.76525 89.59192,65.2468125 C106.01712,57.7305625 124.30352,46.9068125 126.58272,30.109 C127.41652,23.970875 125.88092,17.789 127.05352,11.6836875 C128.22832,5.5761875 133.85812,-0.879125 140.24252,0.153375 C146.49492,1.1661875 148.77192,8.1530625 149.91372,14.0199375 L159.96772,65.7018125 C163.70552,84.9211875 166.87792,106.678063 154.43252,123.174 C143.56892,137.56775 123.20792,144.176187 113.74792,159.3815 C101.32452,179.353375 112.43012,206.3515 98.52612,225.48775 C88.05412,239.899 66.51172,243.98525 49.29892,239.514 C32.08392,235.038375 18.17552,223.901812 4.82372,213.051812" id="Fill-30" fill="#008858"></path>
                            <path d="M137.97256,1.773875 C146.22256,26.868875 135.80776,65.627 120.14376,88.63075 C110.32956,103.044188 96.33316,115.30075 89.90916,131.192938 C84.34316,144.956688 85.10216,159.936688 81.60856,174.199188 C75.94136,197.334188 53.02176,218.922625 30.20776,229.623875" id="Stroke-32" stroke="#FFF9F7" stroke-width="0.439"></path>
                            <path d="M95.62894,61.678125 C95.62894,61.678125 91.89774,88.3809375 107.16354,104.911875" id="Stroke-34" stroke="#FFF9F7" stroke-width="0.439"></path>
                            <path d="M81.1635,169.632563 C81.1635,169.632563 48.4363,114.870688 54.4929,88.57475" id="Stroke-36" stroke="#FFF9F7" stroke-width="0.439"></path>
                            <path d="M135.1625,55.9934688 C135.1625,55.9934688 122.5323,51.5594063 126.5847,30.1087813" id="Stroke-38" stroke="#FFF9F7" stroke-width="0.439"></path>
                            <path d="M69.27844,197.57 C69.27844,197.57 94.30344,204.265938 105.89744,186.402813" id="Stroke-40" stroke="#FFF9F7" stroke-width="0.439"></path>
                            <path d="M52.64094,215.4375 C52.64094,215.4375 29.94134,196.5375 34.16314,165.65875" id="Stroke-42" stroke="#FFF9F7" stroke-width="0.439"></path>
                            <path d="M164.02232,95.691125 C164.02232,95.691125 146.30572,112.659563 97.86172,115.892688" id="Stroke-44" stroke="#FFF9F7" stroke-width="0.439"></path>
                            <path d="M151.94388,23.629625 C151.94388,23.629625 153.71488,29.4024375 140.86688,36.4768125" id="Stroke-46" stroke="#FFF9F7" stroke-width="0.439"></path>
                            <path d="M157.91864,56.1185938 C157.91864,56.1185938 150.94244,64.3545313 132.71544,66.0892188" id="Stroke-48" stroke="#FFF9F7" stroke-width="0.439"></path>
                            <path d="M49.10246,148.522312 C49.10246,148.522312 42.91606,190.240125 74.16706,191.32075" id="Stroke-50" stroke="#FFF9F7" stroke-width="0.439"></path>
                            <path d="M113.74902,159.380625 C113.74902,159.380625 99.61182,169.801875 85.75622,160.844063" id="Stroke-52" stroke="#FFF9F7" stroke-width="0.439"></path>
                            <path d="M100.69928,221.151906 C100.69928,221.151906 69.50108,231.004406 47.73648,221.195656" id="Stroke-54" stroke="#FFF9F7" stroke-width="0.439"></path>
                        </g>
                    </g>
                </g>
            </g>
        </g>
    </g>
</svg>