<?xml version="1.0" encoding="UTF-8"?>
<svg width="267px" height="260px" viewBox="0 0 267 260" version="1.1" xmlns="http://www.w3.org/2000/svg" xmlns:xlink="http://www.w3.org/1999/xlink">
    <!-- Generator: Sketch 53.2 (72643) - https://sketchapp.com -->
    <title>LeafsLeft</title>
    <desc>Created with Sketch.</desc>
    <defs>
        <polygon id="path-1" points="0 0.213199228 252.449731 0.213199228 252.449731 286.143284 0 286.143284"></polygon>
    </defs>
    <g id="Page-1" stroke="none" stroke-width="1" fill="none" fill-rule="evenodd">
        <g id="b1" transform="translate(-135.000000, -640.000000)">
            <g id="LeafsLeft">
                <g id="LeafsLeft-inc" transform="translate(269.156210, 801.168517) scale(-1, 1) rotate(4.000000) translate(-269.156210, -801.168517) translate(142.656210, 640.668517)">
                    <g id="LeafsLeftFull">
                        <g id="Yellow" transform="translate(-0.000000, 34.000000)">
                            <g id="Group-3" transform="translate(-0.000000, 0.000000)">
                                <mask id="mask-2" fill="white">
                                    <use xlink:href="#path-1"></use>
                                </mask>
                                <g id="Clip-2"></g>
                                <path d="M10.5667149,230.315031 C-2.28530746,224.717593 -2.91403134,205.282253 5.96740149,194.488802 C14.8507224,183.695351 29.2396254,179.386599 42.7317,175.561808 C56.2256627,171.735142 70.6051254,167.250063 79.259991,156.274658 C93.5054015,138.21054 86.4327299,110.395926 98.7806403,90.9999784 C111.022819,71.7691025 137.025178,67.8636516 159.740424,64.9486319 C182.45567,62.0336123 208.673267,55.5976842 217.785043,34.7198411 C221.115581,27.0908934 221.595148,18.4152398 225.324066,10.9701221 C229.052984,3.5250045 238.304476,-2.51700204 245.639588,1.49161888 C252.819879,5.41395221 252.933163,15.4476973 252.094864,23.5455993 C249.632834,47.3328346 247.170804,71.1200699 244.708775,94.9054293 C241.961648,121.440737 237.570021,151.041129 216.272707,167.283828 C197.686648,181.457501 170.55523,181.553168 153.36067,197.364429 C130.773812,218.131599 133.998618,257.855776 109.939073,276.92158 C91.8193642,291.280959 64.2121552,287.602482 45.0804463,274.60307 C25.9468493,261.60741 13.3327224,241.329828 1.28501343,221.660011" id="Fill-1" fill="#FFAF0B" mask="url(#mask-2)"></path>
                            </g>
                            <g id="venus" transform="translate(26.000000, 2.000000)" stroke="#FFF9F7" stroke-width="0.674">
                                <path d="M216.993505,5.68434189e-14 C217.483499,36.0352475 190.166813,82.031229 162.460403,105.37793 C145.10062,120.005004 123.489809,130.089474 109.67917,148.049917 C97.7168873,163.60876 92.9569468,183.380245 83.317878,200.446416 C67.6759113,228.135119 31.7114957,246.613002 -4.26325641e-14,251" id="Stroke-4"></path>
                                <path d="M105,154.778289 C105,154.778289 174.467023,174.411056 201,153" id="Stroke-6"></path>
                                <path d="M192,68 C192,68 178.885739,57.0292324 191.433851,31" id="Stroke-8"></path>
                                <path d="M59,227 C59,227 87.0138911,244.523432 108,227.700594" id="Stroke-10"></path>
                                <path d="M32,243 C32,243 12.0287417,208.683437 28.5328708,170" id="Stroke-12"></path>
                                <path d="M213,132.447615 C213,132.447615 185.045565,148.11273 125,131" id="Stroke-14"></path>
                                <path d="M110,148 C110,148 87.211638,100.711961 104.442057,68" id="Stroke-16"></path>
                                <path d="M164,56 C164,56 147.413638,90.4609003 156.963419,108" id="Stroke-18"></path>
                                <path d="M225,34 C225,34 224.956782,42.1908017 206,46" id="Stroke-20"></path>
                                <path d="M220,79 C220,79 208.197674,88.0220539 185,81.8278079" id="Stroke-22"></path>
                                <path d="M53.390681,154 C53.390681,154 29.3443471,205.573566 68,220" id="Stroke-24"></path>
                                <path d="M127,195.250422 C127,195.250422 105.599484,203.261207 92,185" id="Stroke-26"></path>
                                <path d="M88,270 C88,270 46.5890116,269.788444 24,248" id="Stroke-28"></path>
                            </g>
                        </g>
                        <g id="Green" transform="translate(3.000000, 0.000000)">
                            <path d="M11.781456,185.499907 C2.420816,184.803848 -1.64417067,173.307649 2.06676267,165.020432 C5.777696,156.733215 14.269296,151.185326 22.272416,146.112704 C30.2774293,141.040081 38.727376,135.393022 42.2584427,127.042187 C48.0690827,113.296895 38.261616,98.1201919 42.5935627,83.9707368 C46.8914293,69.9410338 62.9658293,62.2413502 77.1033493,55.81029 C91.238976,49.381101 106.976363,40.1227694 108.937856,25.7543926 C109.655429,20.5040129 108.333883,15.2162107 109.343029,9.99389799 C110.354069,4.7697141 115.199109,-0.751978822 120.693563,0.131192665 C126.074416,0.997524019 128.034016,6.97390057 129.016656,11.9922606 L137.669189,56.1994842 C140.885963,72.6391976 143.616149,91.2494171 132.905563,105.359579 C123.556283,117.671588 106.033483,123.32426 97.8921493,136.330457 C87.200496,153.413837 96.7580427,176.507275 84.792176,192.875885 C75.7799093,205.202864 57.2403893,208.698127 42.4269493,204.873545 C27.611616,201.045222 15.6419627,191.519319 4.15132267,182.238534" id="Fill-30" fill="#008858"></path>
                            <path d="M118.740021,1.51732283 C125.840021,22.9828807 116.876981,56.1354917 103.396448,75.8122531 C94.950288,88.1411025 82.9049013,98.6250217 77.376368,112.218752 C72.5862347,123.991877 73.2394347,136.805348 70.2328213,149.00509 C65.3555947,168.794119 45.630848,187.260262 25.9969813,196.41381" id="Stroke-32" stroke="#FFF9F7" stroke-width="0.439"></path>
                            <path d="M82.2988453,52.757735 C82.2988453,52.757735 79.087752,75.5985705 92.225592,89.7386699" id="Stroke-34" stroke="#FFF9F7" stroke-width="0.439"></path>
                            <path d="M69.8498,145.098927 C69.8498,145.098927 41.6845733,98.2571583 46.89692,75.7643523" id="Stroke-36" stroke="#FFF9F7" stroke-width="0.439"></path>
                            <path d="M116.321667,47.8952398 C116.321667,47.8952398 105.45204,44.1024673 108.93956,25.7542054" id="Stroke-38" stroke="#FFF9F7" stroke-width="0.439"></path>
                            <path d="M59.6214453,168.995826 C59.6214453,168.995826 81.158112,174.723343 91.1359787,159.443728" id="Stroke-40" stroke="#FFF9F7" stroke-width="0.439"></path>
                            <path d="M45.303112,184.279184 C45.303112,184.279184 25.7676987,168.112655 29.4010053,141.69984" id="Stroke-42" stroke="#FFF9F7" stroke-width="0.439"></path>
                            <path d="M141.158603,81.8514995 C141.158603,81.8514995 125.911589,96.3658241 84.2203893,99.1313484" id="Stroke-44" stroke="#FFF9F7" stroke-width="0.439"></path>
                            <path d="M130.763824,20.2121173 C130.763824,20.2121173 132.287957,25.1500189 121.230891,31.2012404" id="Stroke-46" stroke="#FFF9F7" stroke-width="0.439"></path>
                            <path d="M135.905739,48.0022682 C135.905739,48.0022682 129.901979,55.0470577 114.215712,56.5308607" id="Stroke-48" stroke="#FFF9F7" stroke-width="0.439"></path>
                            <path d="M42.2578747,127.041813 C42.2578747,127.041813 36.9338213,162.726057 63.8286213,163.650394" id="Stroke-50" stroke="#FFF9F7" stroke-width="0.439"></path>
                            <path d="M97.893096,136.329708 C97.893096,136.329708 85.726536,145.243753 73.8023227,137.581491" id="Stroke-52" stroke="#FFF9F7" stroke-width="0.439"></path>
                            <path d="M86.6624107,189.167126 C86.6624107,189.167126 59.8130507,197.594678 41.082304,189.204549" id="Stroke-54" stroke="#FFF9F7" stroke-width="0.439"></path>
                        </g>
                    </g>
                </g>
            </g>
        </g>
    </g>
</svg>