<?xml version="1.0" encoding="UTF-8"?>
<svg width="1440px" height="900px" viewBox="0 0 1440 900" version="1.1" xmlns="http://www.w3.org/2000/svg" xmlns:xlink="http://www.w3.org/1999/xlink">
    <!-- Generator: Sketch 53.2 (72643) - https://sketchapp.com -->
    <title>Desktop HD 3</title>
    <desc>Created with Sketch.</desc>
    <defs>
        <polygon id="path-1" points="0 0.248856241 293.360557 0.248856241 293.360557 334 0 334"></polygon>
        <linearGradient x1="50%" y1="0%" x2="50%" y2="100%" id="linearGradient-3">
            <stop stop-color="#FFD5E2" offset="0%"></stop>
            <stop stop-color="#FF94C2" offset="100%"></stop>
        </linearGradient>
        <linearGradient x1="50%" y1="100%" x2="50%" y2="50%" id="linearGradient-4">
            <stop stop-color="#FFD5E2" offset="0%"></stop>
            <stop stop-color="#FF94C2" offset="100%"></stop>
        </linearGradient>
        <linearGradient x1="50%" y1="100%" x2="50%" y2="50%" id="linearGradient-5">
            <stop stop-color="#FFD5E2" offset="0%"></stop>
            <stop stop-color="#FF94C2" offset="100%"></stop>
        </linearGradient>
        <linearGradient x1="31.4374176%" y1="10.6457546%" x2="31.4374176%" y2="89.6503452%" id="linearGradient-6">
            <stop stop-color="#4637ED" offset="0%"></stop>
            <stop stop-color="#0083EA" offset="100%"></stop>
        </linearGradient>
        <linearGradient x1="4.89834628%" y1="50.0001335%" x2="89.5234957%" y2="50.0001335%" id="linearGradient-7">
            <stop stop-color="#4637ED" offset="0%"></stop>
            <stop stop-color="#0083EA" offset="100%"></stop>
        </linearGradient>
        <linearGradient x1="100.00045%" y1="50.0001335%" x2="-0.000153098935%" y2="50.0001335%" id="linearGradient-8">
            <stop stop-color="#4637ED" offset="0%"></stop>
            <stop stop-color="#0083EA" offset="100%"></stop>
        </linearGradient>
        <linearGradient x1="100.00045%" y1="50.0001335%" x2="-0.000153098935%" y2="50.0001335%" id="linearGradient-9">
            <stop stop-color="#4637ED" offset="0%"></stop>
            <stop stop-color="#0083EA" offset="100%"></stop>
        </linearGradient>
        <linearGradient x1="50%" y1="0%" x2="50%" y2="100%" id="linearGradient-10">
            <stop stop-color="#FFD5E2" offset="0%"></stop>
            <stop stop-color="#FF94C2" offset="100%"></stop>
        </linearGradient>
    </defs>
    <g id="Desktop-HD-3" stroke="none" stroke-width="1" fill="none" fill-rule="evenodd">
        <g id="right-l" transform="translate(1124.000000, 540.000000)">
            <g id="Group-3" transform="translate(0.000000, 39.000000)">
                <mask id="mask-2" fill="white">
                    <use xlink:href="#path-1"></use>
                </mask>
                <g id="Clip-2"></g>
                <path d="M12.2791075,268.834618 C-2.65565373,262.301023 -3.38626567,239.615173 6.93445075,227.016546 C17.2573612,214.417918 33.9780627,209.388539 49.6566,204.924062 C65.3373313,200.457395 82.0470627,195.222199 92.1044955,182.411186 C108.658451,161.325892 100.439615,128.859356 114.78857,106.219487 C129.01466,83.7722974 159.230839,79.2136699 185.627212,75.8111209 C212.023585,72.4085719 242.489884,64.8962516 253.078272,40.5266438 C256.94854,31.6217745 257.505824,21.4951405 261.839033,12.8048464 C266.172242,4.11455229 276.922988,-2.93796405 285.446794,1.74108824 C293.79069,6.31942157 293.922331,18.0312843 292.948182,27.4835392 C290.087167,55.2491275 287.226152,83.0147157 284.365137,110.778114 C281.172824,141.751382 276.06951,176.302363 251.320854,195.261611 C229.722824,211.805794 198.194615,211.917461 178.213585,230.373114 C151.966406,254.613539 155.713809,300.98148 127.755287,323.23599 C106.699182,339.996938 74.6180776,335.703245 52.3859731,320.529716 C30.1516746,305.360565 15.4933612,281.691611 1.49325672,258.732069" id="Fill-1" fill="#FFAF0B" mask="url(#mask-2)"></path>
            </g>
            <path d="M281.992458,42 C282.561483,84.0650498 250.83888,137.75757 218.663694,165.01089 C198.503945,182.085523 173.40752,193.857434 157.369359,214.82321 C143.477676,232.985525 137.950003,256.065386 126.756245,275.98725 C108.591381,308.309123 66.8262531,329.878923 30,335" id="Stroke-4" stroke="#FFF9F7" stroke-width="0.674"></path>
            <path d="M152,222.133947 C152,222.133947 233.044861,245.693267 264,220" id="Stroke-6" stroke="#FFF9F7" stroke-width="0.674"></path>
            <path d="M254,122 C254,122 238.700028,109.250189 253.339493,79" id="Stroke-8" stroke="#FFF9F7" stroke-width="0.674"></path>
            <path d="M99,306 C99,306 131.015875,327.90429 155,306.875742" id="Stroke-10" stroke="#FFF9F7" stroke-width="0.674"></path>
            <path d="M68,325 C68,325 44.03449,285.042359 63.8394449,240" id="Stroke-12" stroke="#FFF9F7" stroke-width="0.674"></path>
            <path d="M277,196.628566 C277,196.628566 244.598269,214.251821 175,195" id="Stroke-14" stroke="#FFF9F7" stroke-width="0.674"></path>
            <path d="M157,215 C157,215 132.312608,160.027654 150.978895,122" id="Stroke-16" stroke="#FFF9F7" stroke-width="0.674"></path>
            <path d="M221,107 C221,107 201.096366,147.425287 212.556102,168" id="Stroke-18" stroke="#FFF9F7" stroke-width="0.674"></path>
            <path d="M291,82 C291,82 290.952233,91.5559354 270,96" id="Stroke-20" stroke="#FFF9F7" stroke-width="0.674"></path>
            <path d="M286,134 C286,134 272.511628,143.022054 246,136.827808" id="Stroke-22" stroke="#FFF9F7" stroke-width="0.674"></path>
            <path d="M92.3985012,221 C92.3985012,221 65.0731217,281.16916 109,298" id="Stroke-24" stroke="#FFF9F7" stroke-width="0.674"></path>
            <path d="M178,269.104624 C178,269.104624 153.542268,277.782974 138,258" id="Stroke-26" stroke="#FFF9F7" stroke-width="0.674"></path>
            <path d="M132,357 C132,357 84.1185447,356.749979 58,331" id="Stroke-28" stroke="#FFF9F7" stroke-width="0.674"></path>
            <g id="Group-56" transform="translate(4.000000, 0.000000)">
                <path d="M13.68972,216.864625 C2.81292,216.050875 -1.91048,202.610875 2.40152,192.922437 C6.71352,183.234 16.58052,176.748063 25.87992,170.81775 C35.18152,164.887438 45.00012,158.285562 49.10312,148.52275 C55.85492,132.453375 44.45892,114.710562 49.49252,98.1686875 C54.48652,81.7668125 73.16452,72.76525 89.59192,65.2468125 C106.01712,57.7305625 124.30352,46.9068125 126.58272,30.109 C127.41652,23.970875 125.88092,17.789 127.05352,11.6836875 C128.22832,5.5761875 133.85812,-0.879125 140.24252,0.153375 C146.49492,1.1661875 148.77192,8.1530625 149.91372,14.0199375 L159.96772,65.7018125 C163.70552,84.9211875 166.87792,106.678063 154.43252,123.174 C143.56892,137.56775 123.20792,144.176187 113.74792,159.3815 C101.32452,179.353375 112.43012,206.3515 98.52612,225.48775 C88.05412,239.899 66.51172,243.98525 49.29892,239.514 C32.08392,235.038375 18.17552,223.901812 4.82372,213.051812" id="Fill-30" fill="#008858"></path>
                <path d="M137.97256,1.773875 C146.22256,26.868875 135.80776,65.627 120.14376,88.63075 C110.32956,103.044188 96.33316,115.30075 89.90916,131.192938 C84.34316,144.956688 85.10216,159.936688 81.60856,174.199188 C75.94136,197.334188 53.02176,218.922625 30.20776,229.623875" id="Stroke-32" stroke="#FFF9F7" stroke-width="0.439"></path>
                <path d="M95.62894,61.678125 C95.62894,61.678125 91.89774,88.3809375 107.16354,104.911875" id="Stroke-34" stroke="#FFF9F7" stroke-width="0.439"></path>
                <path d="M81.1635,169.632563 C81.1635,169.632563 48.4363,114.870688 54.4929,88.57475" id="Stroke-36" stroke="#FFF9F7" stroke-width="0.439"></path>
                <path d="M135.1625,55.9934688 C135.1625,55.9934688 122.5323,51.5594063 126.5847,30.1087813" id="Stroke-38" stroke="#FFF9F7" stroke-width="0.439"></path>
                <path d="M69.27844,197.57 C69.27844,197.57 94.30344,204.265938 105.89744,186.402813" id="Stroke-40" stroke="#FFF9F7" stroke-width="0.439"></path>
                <path d="M52.64094,215.4375 C52.64094,215.4375 29.94134,196.5375 34.16314,165.65875" id="Stroke-42" stroke="#FFF9F7" stroke-width="0.439"></path>
                <path d="M164.02232,95.691125 C164.02232,95.691125 146.30572,112.659563 97.86172,115.892688" id="Stroke-44" stroke="#FFF9F7" stroke-width="0.439"></path>
                <path d="M151.94388,23.629625 C151.94388,23.629625 153.71488,29.4024375 140.86688,36.4768125" id="Stroke-46" stroke="#FFF9F7" stroke-width="0.439"></path>
                <path d="M157.91864,56.1185938 C157.91864,56.1185938 150.94244,64.3545313 132.71544,66.0892188" id="Stroke-48" stroke="#FFF9F7" stroke-width="0.439"></path>
                <path d="M49.10246,148.522312 C49.10246,148.522312 42.91606,190.240125 74.16706,191.32075" id="Stroke-50" stroke="#FFF9F7" stroke-width="0.439"></path>
                <path d="M113.74902,159.380625 C113.74902,159.380625 99.61182,169.801875 85.75622,160.844063" id="Stroke-52" stroke="#FFF9F7" stroke-width="0.439"></path>
                <path d="M100.69928,221.151906 C100.69928,221.151906 69.50108,231.004406 47.73648,221.195656" id="Stroke-54" stroke="#FFF9F7" stroke-width="0.439"></path>
            </g>
        </g>
        <g id="ground" transform="translate(640.500000, 604.500000) rotate(180.000000) translate(-640.500000, -604.500000) translate(-44.000000, 170.000000)" fill="url(#linearGradient-3)">
            <path d="M498.766198,140.45789 C462.764924,198.885811 349.309717,170.889633 289.563725,323.877069 C263.873932,434.5 302.316634,505.788034 236.901032,542.463724 C202.815634,561.573755 166.379858,566.441247 132.478467,586.492968 C98.5770759,606.540504 62.3860545,662.265529 42.7711577,728.462873 L-4.54747351e-13,869 L1281.87743,869 C1281.87743,869 1408.25005,562.257819 1356.59565,386.127995 C1343.4665,341.125986 1261.3564,133.115475 1110.14097,170.097253 C1056.34005,187.730237 1010.67915,214.31397 936.877591,182.354925 C863.076035,150.39588 883.696124,88.0465901 813.044918,36.7977219 C773.437361,4.86342558 696.728824,1.70530257e-13 675.806037,1.70530257e-13 C629.007004,-0.00418528936 581.123559,31.791458 542.303056,78.7378487 C526.836689,97.4426835 512.44459,118.258677 498.766198,140.45789 Z" transform="translate(684.500000, 434.500000) scale(1, -1) translate(-684.500000, -434.500000) "></path>
        </g>
        <path d="M210.392811,343.299251 C179.940308,392.717573 83.971623,369.038412 33.4341074,498.43515 C11.7038083,592 44.2214482,652.295402 -11.1118368,683.315693 C-39.9437511,699.478953 -70.763787,703.595876 -99.440055,720.555618 C-128.116323,737.511819 -158.729327,784.644032 -175.321037,840.63373 L-211.5,959.5 L872.805381,959.5 C872.805381,959.5 979.700552,700.057534 936.007494,551.086969 C924.901908,513.024281 855.447197,337.089038 727.53816,368.368217 C682.029419,383.282191 643.406102,405.766706 580.979365,378.735753 C518.552628,351.704801 535.994603,298.969786 476.232663,255.623505 C442.729703,228.613484 377.84403,224.5 360.146012,224.5 C320.559979,224.49646 280.05667,251.389208 247.219458,291.096454 C234.136878,306.916999 221.962991,324.523162 210.392811,343.299251 Z" id="ground-copy" fill-opacity="0.53" fill="url(#linearGradient-4)" transform="translate(367.500000, 592.000000) scale(1, -1) rotate(90.000000) translate(-367.500000, -592.000000) "></path>
        <path d="M255.571303,545.117919 C233.875867,574.701676 165.504395,560.526396 129.499688,637.988389 C114.018257,694 137.18497,730.095207 97.7635877,748.665177 C77.2227162,758.341142 55.2654367,760.805695 34.8354531,770.958465 C14.4054694,781.109116 -7.40431341,809.324318 -19.2248319,842.841961 L-45,914 L727.497357,914 C727.497357,914 803.653243,758.687503 772.524769,669.507846 C764.612758,646.722018 715.130775,541.400241 624.003871,560.125191 C591.58184,569.053284 564.065228,582.513402 519.590221,566.331607 C475.115214,550.149813 487.541492,518.580552 444.96498,492.631758 C421.096291,476.462494 374.869452,474 362.26076,474 C334.058275,473.997881 305.202291,490.096941 281.807904,513.867265 C272.487413,523.338068 263.814307,533.877811 255.571303,545.117919 Z" id="ground-copy-2" fill-opacity="0.53" fill="url(#linearGradient-5)" transform="translate(367.500000, 694.000000) scale(1, -1) rotate(180.000000) translate(-367.500000, -694.000000) "></path>
        <rect id="Rectangle" stroke="#FF67B1" stroke-width="6" transform="translate(501.798990, 316.798990) rotate(45.000000) translate(-501.798990, -316.798990) " x="490.79899" y="305.79899" width="22" height="22"></rect>
        <rect id="Rectangle-Copy-2" stroke="#FF67B1" stroke-width="6" transform="translate(1187.899495, 490.899495) rotate(45.000000) translate(-1187.899495, -490.899495) " x="1183.89949" y="486.899495" width="8" height="8"></rect>
        <rect id="Rectangle-Copy-3" stroke="#FF67B1" stroke-width="6" transform="translate(629.899495, 239.899495) rotate(45.000000) translate(-629.899495, -239.899495) " x="625.899495" y="235.899495" width="8" height="8"></rect>
        <rect id="Rectangle-Copy" stroke="#FF67B1" stroke-width="6" transform="translate(1150.870058, 825.870058) rotate(45.000000) translate(-1150.870058, -825.870058) " x="1134.87006" y="809.870058" width="32" height="32"></rect>
        <circle id="Oval" stroke="#FFFFFF" stroke-width="5" cx="138" cy="391" r="19"></circle>
        <circle id="Oval-Copy-3" stroke="#FF50A2" stroke-width="5" cx="334" cy="103" r="14"></circle>
        <circle id="Oval-Copy-2" stroke="#FFFFFF" stroke-width="5" cx="650.5" cy="394.5" r="9.5"></circle>
        <circle id="Oval-Copy" stroke="#FFFFFF" stroke-width="5" cx="951" cy="501" r="27"></circle>
        <rect id="Rectangle-Copy-4" stroke="#FF67B1" stroke-width="6" transform="translate(81.899495, 132.899495) rotate(45.000000) translate(-81.899495, -132.899495) " x="77.8994949" y="128.899495" width="8" height="8"></rect>
        <circle id="Oval-Copy-4" stroke="#FF50A2" stroke-width="5" cx="1271" cy="216" r="14"></circle>
        <g id="Group-2" transform="translate(650.000000, 79.000000)">
            <g id="Group" transform="translate(158.000000, 563.500000) scale(-1, 1) translate(-158.000000, -563.500000) translate(0.000000, 363.000000)">
                <path d="M210.666667,342.575691 C210.666667,342.575691 181.215853,408.823575 177.772752,396.558175 C174.334997,384.286885 175.471113,354.820477 177.318305,350.615197 C179.16817,346.406972 191.208332,327.824818 191.208332,327.824818 L210.666667,342.575691" id="Fill-2772" fill="#F1B0A0"></path>
                <path d="M211.484177,31.7147329 L237.905312,20.4890511 C237.905312,20.4890511 316.324207,174.44001 315.998991,217.157052 C315.673776,259.868265 208.297589,345.386861 208.297589,345.386861 L190.185185,328.813535 C190.185185,328.813535 241.081408,245.667136 258.803029,224.087133 C267.665151,213.292759 204.221905,160.413736 194.612312,109.530973 C185.002719,58.6482094 211.484177,31.7147329 211.484177,31.7147329" id="Fill-2773" fill="url(#linearGradient-6)"></path>
                <path d="M52.6666667,308.815944 C52.6666667,308.815944 -2.21295519,352.564317 0.0692573491,340.286548 C2.35945896,327.997259 16.1752333,302.917546 19.637166,300.126751 C23.1070877,297.338837 41.8467956,286.846715 41.8467956,286.846715 L52.6666667,308.815944" id="Fill-2774" fill="#F1B0A0"></path>
                <path d="M142.900771,85.5925707 L222.175703,35.1240876 C222.175703,35.1240876 225.324678,210.435968 206.292524,248.342108 C187.26037,286.248248 52.9448537,310.262774 52.9448537,310.262774 L43.8888889,286.692312 C43.8888889,286.692312 126.754291,232.458048 152.19876,221.844328 C177.643228,211.224766 142.900771,85.5925707 142.900771,85.5925707" id="Fill-2775" fill="#326DF6"></path>
                <path d="M186.753288,0 C186.753288,0 127.655981,22.5776956 138.954154,84.5123932 C150.249634,146.447091 169.079025,158.058394 169.079025,158.058394 L202.970851,98.0613346 L237,19.4896757 L202.970851,14.8358584 L186.753288,0" id="Fill-2776" fill="#326DF6"></path>
                <path d="M26.3333333,295.627737 C26.3333333,295.627737 19.089662,299.42029 17.1988507,301.696988 C15.3104605,303.973685 -2.01188858,339.995649 0.193654396,344.549045 C2.39677636,349.09661 19.7699667,333.649464 19.7699667,333.649464 C19.7699667,333.649464 5.23178275,336.963939 26.3333333,295.627737" id="Fill-2792" fill="#323232"></path>
                <path d="M182.970019,342.459854 C182.970019,342.459854 177.424517,349.28439 176.568552,352.414529 C175.715197,355.541699 174.183334,397.914404 178.181315,400.759445 C182.179295,403.607456 193.111111,380.226443 193.111111,380.226443 C193.111111,380.226443 180.044603,391.873888 182.970019,342.557856" id="Fill-2793" fill="#323232"></path>
            </g>
            <path d="M144.467909,97.0872697 C162.573569,97.0872697 171.263037,113.64449 179.909856,115.088519 C197.408728,118.013295 220.452029,123.245631 237.559048,118.537239 C268.445259,110.032798 277.241484,75.7519993 309.268163,76.0013534 C322.456651,76.1069621 344.663608,82.138577 357.51288,85.1278924 C373.467734,88.8388678 390.086399,88.4399013 406.254725,91.0889217 C422.417203,93.7408757 439.114823,100.259285 448.250264,113.897486 C459.087633,130.082033 456.113644,152.914066 444.744056,168.726048 C433.371544,184.538031 415.156224,194.166032 396.499338,199.622486 C383.483382,203.427336 369.613538,205.627519 358.352148,213.199082 C346.959166,220.858653 341.793711,238.539141 331.175662,247.251866 C304.541349,269.10115 260.812897,257.487301 233.298377,236.758643 C226.385387,231.548609 219.975372,225.508373 212.208493,221.694723 C180.617531,206.181965 135.185968,226.719941 107.978497,198.493059 C80.34993,169.832007 60.7071488,89.7661033 124.910059,105.858058 C125.878186,100.010866 132.39747,97.0872697 144.467909,97.0872697 Z" id="Fill-2733" fill="url(#linearGradient-7)"></path>
            <path d="M329.119286,163.378339 C331.802154,166.753936 330.010643,163.125098 333.051228,168 C345.688565,167.562583 354.171121,157.067442 354.171121,157.067442 C354.171121,157.067442 374.232527,157.588314 373.997959,154.074585 C373.769255,150.552224 354.769268,151.867354 354.769268,151.867354 C354.769268,151.867354 374.868792,145.668688 373.766323,142.577989 C372.669719,139.484411 349.465105,149.346448 349.465105,149.346448 C349.465105,149.346448 372.88083,135.078582 369.420956,132.793651 C365.964014,130.50872 343.433782,142.963607 343.433782,142.963607 C343.433782,142.963607 363.014324,127.179168 360.079296,125.141723 C357.150131,123.107157 329.993051,143.651388 329.993051,143.651388 C330.388884,133.547621 323,133.901583 323,133.901583 L323.30787,158.578258 C323.30787,158.578258 327.881941,161.824356 329.119286,163.378339" id="Fill-2735" fill="#F1B0A0"></path>
            <path d="M31.5229006,50.0043582 C27.2330393,50.7920866 30.5624402,49.3015522 24.9958693,51 C15.8568542,42.2852059 17.0691426,28.5922028 17.0691426,28.5922028 C17.0691426,28.5922028 1.74277127,15.6898564 4.28447749,13.16854 C6.84082488,10.6413668 20.1379308,24.2377341 20.1379308,24.2377341 C20.1379308,24.2377341 9.3210382,6.196119 12.2287735,4.57088018 C15.1335807,2.95149807 25.8099181,25.839546 25.8099181,25.839546 C25.8099181,25.839546 17.953469,-0.542033301 22.0822775,0.0084980477 C26.2052295,0.564886112 34.6209711,24.972752 34.6209711,24.972752 C34.6209711,24.972752 30.6649283,-0.0149288182 34.2256596,0.380399544 C37.7863909,0.772799547 44.1962929,34.4167073 44.1962929,34.4167073 C50.7262524,26.4632863 56,31.6318386 56,31.6318386 L39.446699,49.8345134 C39.446699,49.8345134 33.4936014,49.6441701 31.5229006,50.0043582" id="Fill-2736" fill="#F1B0A0"></path>
            <path d="M135.966576,154.06416 C130.41246,153.145306 116.990502,162.161933 110.275124,176.85767 C106.518618,185.079932 103.929238,193.435576 108.245848,206.815278 C110.275124,213.107946 114.530152,213.893418 115.47441,216.712225 C116.679659,220.2839 112.703217,231.532453 112.703217,231.532453 L128.547403,238 C129.579636,230.272733 130.74383,222.495078 138.538361,219.139779 C141.453245,217.885987 144.570471,217.088659 147.321137,215.496967 C154.746175,211.193173 158.710887,201.785292 161.757733,194.081738 C164.033337,188.328526 149.881191,156.370188 135.966576,154.06416" id="Fill-2737" fill="#F1B0A0"></path>
            <path d="M94,247.941597 C94,236.370974 97.7363642,228 109.347434,228 C120.958504,228 137,232.058654 137,243.632159 C137,255.205665 127.852848,274 116.241778,274 C104.6336,274 94,259.517985 94,247.941597" id="Fill-2741" fill="#F1B0A0"></path>
            <path d="M104,226.242788 C104,226.242788 67.1854528,186.834054 59.8207737,148.233391 C52.4531452,109.632727 39.9417441,47 39.9417441,47 L25.9467892,50.9820062 C25.9467892,50.9820062 19.3165135,136.582011 25.9467892,149.692001 C32.5711662,162.80199 64.9527487,250.079397 74.8155789,273 L104,226.242788" id="Fill-2742" fill="#F1B0A0"></path>
            <path d="M142,256.792108 C142,256.792108 144.806027,244.506673 190.992815,227.809359 C237.176678,211.112045 324.303951,157 324.303951,157 L333,166.93477 C333,166.93477 285.657444,221.576007 258.115079,231.162856 C230.572713,240.749705 172.073349,278.535747 166.054583,281.561788 C156.954747,286.134472 157.065934,291.894183 142,256.792108" id="Fill-2743" fill="#F1B0A0"></path>
            <path d="M78.7279936,249.009453 C72.2159414,259.428258 67,274.41536 67,295.695393 C67,295.695393 67.0233037,373.26607 75.7301657,387.3773 C75.7301657,387.3773 89.8842782,391.028375 107.53104,387.3773 C126.034214,383.541323 143.943142,369.791091 143.943142,369.791091 L173,281.892333 L169.524829,240.709142 L130.013328,233.019578 C130.013328,233.019578 141.3506,286.388673 100.341834,263.446185 C92.3719531,258.987999 112.063618,228.70814 112.063618,228.70814 L103.942263,227 C103.942263,227 89.5465281,231.700592 78.7279936,249.009453 Z" id="Fill-2744" fill="#323232"></path>
            <path d="M71.3301472,272 L53,234.171601 C53,234.171601 55.6282304,211.225839 89.2789663,203 C89.2789663,203 92.681586,214.567314 96.4127345,218.986777 C100.14095,223.406241 111,228.104645 111,228.104645 L71.3301472,272" id="Fill-2745" fill="#323232"></path>
            <path d="M141.030022,288 L198.893694,276.035756 C198.893694,276.035756 208.954536,255.009471 185.099712,230 C185.099712,230 139.967155,232.746518 134.125751,233.237073 C128.371707,233.721752 132.323245,238.18668 132.323245,238.18668 L141.030022,288" id="Fill-2746" fill="#323232"></path>
            <path d="M160.714166,194.135232 C160.714166,194.135232 166.756742,188.454238 170.47373,192.386622 C174.190719,196.319006 157,202 157,202 L160.714166,194.135232" id="Fill-2748" fill="#F1B0A0"></path>
            <path d="M128.473302,188.814238 C128.456614,189.04744 126.76002,189.208461 124.170628,188.353385 C123.528147,188.128511 122.774414,187.831456 122.070745,187.187373 C121.720301,186.868107 121.400451,186.437793 121.200198,185.924193 C120.919286,185.205152 120.941537,184.391719 121.219667,183.769846 C121.305887,183.64214 121.303106,183.345084 121.464421,183.339532 L121.965056,183.325651 C122.290468,183.278455 122.671506,183.386728 123.046982,183.456133 C123.728401,183.586615 123.945342,183.564406 124.434852,183.59772 C125.28593,183.617154 126.175946,183.531091 127.057619,183.333979 C130.67053,182.576071 133.093044,179.949767 134.177751,177.789868 C135.318085,175.616088 135.415431,173.980894 135.718593,174.000328 C135.929972,173.972566 136.355511,175.710479 135.415431,178.334007 C134.937047,179.616621 134.105438,181.09357 132.762069,182.387288 C131.427044,183.678231 129.577478,184.738747 127.474814,185.196823 C126.426264,185.430025 125.37215,185.516088 124.359756,185.46334 C123.917529,185.443907 123.222204,185.355068 123.016388,185.310648 C122.83004,185.277333 122.855072,185.23569 122.821697,185.260676 C122.799446,185.28011 122.78554,185.318977 122.788321,185.368949 C122.863416,185.621585 122.9997,185.857563 123.19161,186.074109 C123.578211,186.507199 124.137252,186.834793 124.685169,187.106862 C126.926898,188.200693 128.515021,188.528287 128.473302,188.814238" id="Fill-2750" fill="#E26559"></path>
            <path d="M114,191 L135,199.20915 C135,199.20915 116.542151,211.835985 114,191" id="Fill-2751" fill="#FFFFFE"></path>
            <path d="M145.770236,195.659526 C145.033616,197.179364 142.750093,197.447571 140.66489,196.254514 C138.585354,195.061456 137.491756,192.863394 138.23121,191.340474 C138.96783,189.820636 141.24852,189.552429 143.333723,190.745486 C145.413259,191.938544 146.506856,194.136606 145.770236,195.659526" id="Fill-2752" fill="#ED9E90"></path>
            <path d="M120.840863,181.394275 C120.223225,183.019448 118.005847,183.489225 115.885845,182.44175 C113.763061,181.397449 112.544477,179.229494 113.159334,177.604321 C113.776972,175.979148 115.994349,175.512546 118.117134,176.556846 C120.234353,177.604321 121.455719,179.769102 120.840863,181.394275" id="Fill-2753" fill="#ED9E90"></path>
            <path d="M113,213 C113,213 120.344078,219.152584 128,217.168526 C128,217.168526 125.359336,221.133779 115.194354,219.679376 C115.194354,219.679376 116.041198,215.313303 113,213" id="Fill-2754" fill="#E98E82"></path>
            <path d="M145.402233,180.734564 C145.402235,181.544629 144.089992,182.198228 142.474921,182.198224 C140.854803,182.198219 139.55265,181.544611 139.552647,180.734547 C139.552645,179.927005 140.854794,179.273406 142.474912,179.27341 C144.089983,179.273415 145.40223,179.927023 145.402233,180.734564" id="Fill-2755" fill="#252D35" transform="translate(142.477440, 180.735817) rotate(20.000000) translate(-142.477440, -180.735817) "></path>
            <path d="M130.09009,176.446392 C130.090092,177.256457 128.777849,177.910057 127.162778,177.910052 C125.542659,177.910047 124.240506,177.25644 124.240504,176.446375 C124.240502,175.638834 125.542651,174.985234 127.162769,174.985239 C128.77784,174.985244 130.090087,175.638851 130.09009,176.446392" id="Fill-2755-Copy" fill="#252D35" transform="translate(127.165297, 176.447646) rotate(20.000000) translate(-127.165297, -176.447646) "></path>
            <path d="M151.316161,179.375782 C150.792623,179.595142 149.780643,178.372568 148.24805,177.381052 C146.74763,176.345665 145.226738,175.880616 145.229661,175.310277 C145.179939,174.766261 147.303336,174.327543 149.362392,175.710985 C151.430222,177.082728 151.839698,179.211994 151.316161,179.375782" id="Fill-2757" fill="#67477F" transform="translate(148.375718, 177.094682) rotate(14.000000) translate(-148.375718, -177.094682) "></path>
            <path d="M121.00048,170.060554 C120.966713,169.698554 122.719753,169.240554 125.066519,169.286554 C127.455493,169.322554 129.219788,170.146554 128.977796,170.490554 C128.749872,170.838554 127.086876,170.688554 124.990545,170.660554 C122.882957,170.616554 121.034246,170.454554 121.00048,170.060554" id="Fill-2758" fill="#67477F"></path>
        </g>
        <g id="Group-2" transform="translate(40.000000, 163.000000)">
            <path d="M187.084352,166 C187.084352,166 180.701343,170.496724 183.894359,177.994341 C187.084352,185.491958 201.07799,207.732427 219.9821,206.981434 C220.756165,206.950656 196.167517,166 196.167517,166 L187.084352,166" id="Fill-2707" fill="#442B29"></path>
            <path d="M158,574.891651 C158,574.891651 133.938658,553.652166 126.235212,557.456117 C116.823651,562.10539 62.9549282,614.250835 65.0600648,638.819918 C65.9218167,648.878646 77.7770597,640.258182 98.9053681,618.608198 C120.033676,596.961256 146.643342,606.238517 146.643342,606.238517 L158,574.891651" id="Fill-2708" fill="url(#linearGradient-8)"></path>
            <path d="M217,609.470716 L188.205149,592 C188.205149,592 113.574654,662.771519 125.237194,672.204224 C134.080956,679.362836 139.276171,672.94477 160.218713,650.978323 C181.161255,629.008789 207.692542,641.638185 207.692542,641.638185 L217,609.470716" id="Fill-2709" fill="url(#linearGradient-9)"></path>
            <path d="M278.441768,427 C278.441768,427 383.299947,433.621123 397.261917,428.953323 C397.261917,428.953323 417.753305,630.634677 381.289252,652.393288 C344.8252,674.161069 263,642.290421 263,642.290421 L285.093231,598.770142 L332.72747,595.658275 L332.72747,517.938033 L329.313256,518.714471 L278.441768,427" id="Fill-2711" fill="#191D23"></path>
            <path d="M146.554586,564.731962 C146.554586,564.731962 120.160733,575.627122 128.701178,602.08461 C128.701178,602.08461 218.795695,672.89397 262.636849,656.551229 C287.198643,647.400519 313.583335,577.552138 332.041322,517.882773 L397,428.95562 C397,428.95562 366.364933,430.49196 356.142048,430.452174 C336.612307,430.378724 278.09026,427 278.09026,427 C278.09026,427 247.525422,587.299633 236.633836,591.18945 C225.742249,595.076207 146.554586,564.731962 146.554586,564.731962" id="Fill-2712" fill="#252D35"></path>
            <path d="M303,225.845789 C303,225.845789 365.88101,166.661263 376.746883,151.084132 C387.612756,135.510062 410.904619,83.3361654 439.621787,61.5294059 L425.650943,31.940206 C425.650943,31.940206 434.190377,27.2695167 439.621787,39.7257092 C439.621787,39.7257092 459.802573,-0.766870406 464.458504,0.0110673611 C469.12054,0.789005128 455.149696,31.1592055 455.149696,31.1592055 C455.149696,31.1592055 474.561109,3.12281843 479.992519,3.90688169 C485.420876,4.68481946 466.015569,35.4225495 466.015569,35.4225495 C466.015569,35.4225495 487.750367,10.1365093 490.858392,13.2513231 C493.963363,16.366137 473.779523,35.4225495 473.779523,35.4225495 C473.779523,35.4225495 495.511269,22.905102 497.840761,27.0306224 C500.173305,31.1592055 476.109015,42.0625852 476.109015,42.0625852 C476.109015,42.0625852 473.779523,59.9735304 459.0332,67.7590335 C459.0332,67.7590335 429.830594,146.903482 403.436813,172.602993 L318.650032,261 L303,225.845789" id="Fill-2713" fill="#FFDED6"></path>
            <path d="M227.3283,257 C227.3283,257 167.564714,319.279276 151.887263,329.990676 C136.209811,340.695976 83.8270923,363.491643 61.7549307,391.986226 L32.2957767,377.745036 C32.2957767,377.745036 27.5456834,386.235446 39.9522779,391.778771 C39.9522779,391.778771 -0.725181593,411.566338 0.0098425206,416.23408 C0.741804034,420.895721 31.2422421,407.21588 31.2422421,407.21588 C31.2422421,407.21588 3.02650399,426.350573 3.7554029,431.781018 C4.48430181,437.217565 35.398191,418.11338 35.398191,418.11338 C35.398191,418.11338 9.91122985,439.594147 12.9983311,442.72428 C16.0823698,445.860515 35.3277512,425.868544 35.3277512,425.868544 C35.3277512,425.868544 22.6087714,447.468293 26.7157186,449.835723 C30.8196033,452.200102 41.9460308,428.260381 41.9460308,428.260381 C41.9460308,428.260381 59.874494,426.103457 67.8035666,411.432102 C67.8035666,411.432102 142.766838,381.726346 168.71319,355.59004 L262,289.744365 L227.3283,257" id="Fill-2714" fill="#FFDED6"></path>
            <path d="M249.225199,231.201222 L219,260.847889 L226.665012,294.275189 C226.665012,294.275189 256.446174,365.913886 260.944737,383.390106 C267.942161,410.566474 256.623789,452 256.623789,452 C256.623789,452 307.106302,447.802025 353.041255,446.240059 C398.973146,444.681161 414,429.853225 414,429.853225 C414,429.853225 374.174396,296.935748 346.680795,259.779983 C319.178008,222.630356 309.176437,211 309.176437,211 L268.68937,219.86853 L249.225199,231.201222" id="Fill-2715" fill="#008858"></path>
            <path d="M338.269803,256 L369.803179,235.909784 C369.803179,235.909784 374.620267,214.385644 336.592561,189 L292,216.859086 L338.269803,256" id="Fill-2716" fill="#008858"></path>
            <path d="M226.176209,258.635502 C208.96325,261.082688 177.507926,305.289821 174,305.203195 C174,305.203195 196.137489,341.811986 213.674069,343 C213.674069,343 290.845398,249.443858 226.176209,258.635502" id="Fill-2717" fill="#008858"></path>
            <path d="M286,229.559728 C286,229.559728 260.933734,210.934044 261.802413,203.504459 C262.022641,201.636414 265.497354,198.597038 266.399679,195.901456 C271.259996,181.401291 247.824031,144.028227 233.429663,136.154448 C222.103198,129.957043 227.067511,129.409407 203.230854,143.498846 C179.394196,157.588284 192.974943,181.955011 203.619312,194.553665 C213.682523,206.464732 225.207805,211.569909 235.576889,212.427871 L250.319952,245 L286,229.559728" id="Fill-2718" fill="#FFDED6"></path>
            <path d="M241.258006,256.83634 C236.550203,245.181766 245.464656,230.498596 261.170496,224.036776 C276.88241,217.568824 293.426543,221.77146 298.143458,233.426034 C302.848224,245.074478 287.042154,262.590058 278.218819,266.222533 C269.395484,269.851943 245.962772,268.484784 241.258006,256.83634" id="Fill-2719" fill="#FFDED6"></path>
            <path d="M203.715668,196.008876 C203.715668,196.008876 195.9057,195.570551 195.035639,200.854311 C194.168518,206.138071 209.359304,206.138071 215,202.175251 L203.715668,196.008876" id="Fill-2720" fill="#FFDED6"></path>
            <path d="M205.408672,192.367228 C201.831323,185.995607 196.453444,180.25465 196.828259,173.323511 C201.834747,173.360306 205.047958,167.151124 202.768108,161.846488 C201.87453,159.761429 200.35361,157.973798 199.386586,155.916336 C198.416503,153.861939 198.159446,151.16976 199.646704,150.010713 C200.34749,149.461852 201.299212,149.366798 202.211152,149.271743 C209.632139,148.508244 222.338093,150.737417 229.165401,148.204684 C235.668328,145.791535 246.967037,140.001072 247,132 C247.04602,120.829604 245.092538,118.130113 235,108.036637 C226,99.035801 217.184715,107.46018 213.714447,108.036637 C208.408059,108.922787 207.125834,116.008921 206.740249,121.945207 C203.031286,118.403673 197.562707,118.973998 194.334195,121.853219 C191.108743,124.729374 189.584763,129.304238 188.177071,133.722723 C186.769378,138.141208 185.282121,142.728338 182.099512,145.659685 C179.131117,148.397858 174.439829,150.467586 175.054929,155.119107 C175.786317,160.662911 183.014512,162.634518 186.356251,167.359629 C185.536117,166.200582 184.835331,173.602541 185.309663,174.859709 C186.735716,178.640411 190.29473,181.139416 192.868359,184.033968 C198.352239,190.197157 201.032975,196.403273 208.291771,200 C207.866378,197.298254 206.767395,194.787252 205.408672,192.367228 Z" id="Fill-2721" fill="#442B29"></path>
            <path d="M253.578157,178 L235,187.85356 C235,187.85356 257.314649,204.464925 253.578157,178" id="Fill-2722" fill="#FFFFFE"></path>
            <path d="M228.68333,181.724427 C229.697027,183.680723 228.196388,186.509253 225.332923,188.041893 C222.469459,189.574532 219.327305,189.231869 218.31667,187.275573 C217.302973,185.319277 218.803612,182.490747 221.667077,180.958107 C224.530541,179.425468 227.672695,179.768131 228.68333,181.724427" id="Fill-2723" fill="#ED9E90"></path>
            <path d="M255.68333,162.72357 C256.697027,164.679579 255.196388,167.507694 252.332923,169.043223 C249.469459,170.575638 246.327305,170.22991 245.31667,168.273901 C244.302973,166.321007 245.803612,163.492892 248.667077,161.960478 C251.530541,160.424948 254.672695,160.767561 255.68333,162.72357" id="Fill-2724" fill="#ED9E90"></path>
            <path d="M240.226251,176.964962 C240.140755,176.854468 240.485794,176.384079 241.28885,175.787411 C242.049158,175.174959 243.377406,174.521466 244.363669,173.42284 C245.340771,172.355784 245.69497,170.13959 244.198783,169.82705 C242.641526,169.280894 240.879688,171.124565 238.855255,172.876684 C238.351436,173.306032 237.856778,173.732223 237.368227,174.1521 C236.907157,174.584605 235.942269,175.22547 234.940739,175.096035 C233.032336,174.780337 232.223173,173.460723 231.487293,172.583085 C230.02164,170.635234 229.11782,168.598988 228.617055,166.837398 C227.624686,163.276334 228.070489,160.978059 228.308657,161.000158 C228.644536,160.981216 228.75446,163.191096 230.015533,166.322811 C230.647596,167.879198 231.600271,169.647102 232.983481,171.31714 C233.655239,172.163208 234.504096,172.952451 235.108678,172.977707 C235.365168,172.990335 235.560588,172.90194 236.039979,172.488376 C236.522423,172.068499 237.010974,171.642308 237.508686,171.21296 C238.525483,170.360578 239.407928,169.498725 240.574344,168.696854 C241.707172,167.907611 243.325497,167.40881 244.769777,167.917082 C246.317873,168.333802 247.221693,170.199572 246.952989,171.49393 C246.778943,172.813544 246.14688,173.785892 245.426267,174.49621 C243.899545,175.812667 242.537709,176.131521 241.679691,176.5293 C240.800299,176.873409 240.320908,177.088083 240.226251,176.964962" id="Fill-2725" fill="#E26559"></path>
            <path d="M236,213.699489 C236,213.699489 248.314933,213.763676 255,210 C255,210 249.344631,216.351568 238.033893,218 L236,213.699489" id="Fill-2726" fill="#E98E82"></path>
            <path d="M240.991728,159.889442 C240.887599,160.486364 239.281037,160.670753 237.582247,161.458315 C235.862631,162.189623 234.619033,163.274083 234.137064,162.936556 C233.64617,162.661535 234.461352,160.50824 236.784916,159.480034 C239.10848,158.442453 241.146434,159.326897 240.991728,159.889442" id="Fill-2727" fill="#252D35"></path>
            <path d="M218.146842,174.935855 C217.64818,174.579572 218.430328,172.505139 220.329343,170.434036 C222.252266,168.316316 224.708006,167.61041 224.967584,168.199775 C225.240823,168.779151 223.744837,170.12104 222.057583,171.982369 C220.349836,173.837039 218.68649,175.332095 218.146842,174.935855" id="Fill-2728" fill="#252D35"></path>
            <path d="M208.773637,171.73604 C207.828957,171.042484 207.094874,168.089661 210.699101,164.106923 C214.339431,160.034885 218.403964,160.749278 218.891347,161.883376 C219.411824,162.993661 218.060991,164.574254 214.868933,168.152171 C211.628739,171.721157 209.793531,172.492106 208.773637,171.73604" id="Fill-2729" fill="#442B29"></path>
            <path d="M229.160147,156.281527 C228.630531,155.35561 229.215252,152.660736 233.98486,150.783183 C238.821818,148.842759 242.045436,150.983227 241.999516,152.094898 C241.990332,153.200854 240.168819,153.975309 235.922705,155.684254 C231.636792,157.361763 229.729561,157.290319 229.160147,156.281527" id="Fill-2730" fill="#442B29"></path>
        </g>
        <rect id="Rectangle" stroke="#000000" stroke-width="6" fill="#FFFFFF" transform="translate(676.340808, 103.827774) rotate(51.000000) translate(-676.340808, -103.827774) " x="659.340808" y="69.8277737" width="34" height="68" rx="8"></rect>
        <rect id="Rectangle" stroke="#000000" stroke-width="6" fill="url(#linearGradient-10)" transform="translate(676.340808, 103.827774) rotate(51.000000) translate(-676.340808, -103.827774) " x="659.340808" y="69.8277737" width="34" height="68" rx="8"></rect>
        <rect id="Rectangle-Copy-5" stroke="#000000" stroke-width="6" fill="#FFFFFF" transform="translate(503.861013, 191.700054) rotate(-43.000000) translate(-503.861013, -191.700054) " x="486.861013" y="157.700054" width="34" height="68" rx="8"></rect>
        <rect id="Rectangle-Copy-5" stroke="#000000" stroke-width="6" fill="url(#linearGradient-10)" transform="translate(503.861013, 191.700054) rotate(-43.000000) translate(-503.861013, -191.700054) " x="486.861013" y="157.700054" width="34" height="68" rx="8"></rect>
    </g>
</svg>